<svg width="171" height="180" viewBox="0 0 171 180" fill="none" xmlns="http://www.w3.org/2000/svg">
<path d="M162.221 132.408C175.56 112.461 162.457 95.6069 159.311 92.0419C158.901 91.5809 158.666 91.3449 158.666 91.3449C178.05 81.5299 149.609 58.9809 149.609 58.9809C156.126 52.4639 151.719 44.3459 142.073 37.0509L147.352 39.5789C151.88 34.8559 160.937 22.9919 151.378 11.4559C139.586 -2.7951 113.891 -0.233089 104.097 18.8629L110.82 22.0829C102.083 19.4789 93.133 17.9079 85.229 17.9079C77.328 17.9079 68.379 19.4789 59.642 22.0829L66.364 18.8629C56.57 -0.233089 30.885 -2.7951 19.083 11.4559C9.52403 22.9919 18.581 34.8559 23.119 39.5789L28.379 37.0589C18.741 44.3509 14.34 52.4649 20.859 58.9799C20.859 58.9799 -7.59199 81.5299 11.792 91.3439C11.792 91.3439 -6.80298 109.908 8.23702 132.407C12.736 139.133 18.734 143.626 25.401 146.536C16.096 152.376 10.02 161.03 10.02 166.933C10.02 176.594 26.29 177.254 46.361 177.254C66.432 177.254 82.702 176.594 82.702 166.933C82.702 161.909 78.3 154.892 71.253 149.314C79.606 147.781 85.229 145.9 85.229 145.9C85.229 145.9 90.706 147.733 98.882 149.255C91.791 154.843 87.358 161.892 87.358 166.934C87.358 176.595 103.628 177.255 123.699 177.255C143.77 177.255 160.04 176.595 160.04 166.934C160.04 161.065 154.035 152.478 144.823 146.64C151.584 143.733 157.671 139.214 162.221 132.408Z" fill="#F8D4AE"/>
<path d="M48.1899 26.1383C39.1979 29.8393 31.1179 34.4733 25.5469 39.3543C21.8719 33.5633 16.9179 22.9383 25.1669 16.9833C33.9119 10.6643 43.7459 20.6443 48.1899 26.1383Z" fill="#FFF1E6"/>
<path d="M144.917 39.3582C139.35 34.4782 131.27 29.8392 122.274 26.1382C126.718 20.6452 136.552 10.6642 145.297 16.9822C153.546 22.9382 148.593 33.5662 144.917 39.3582Z" fill="#FFF1E6"/>
<path d="M85.233 77.248C99.74 77.248 104.939 99.378 116.762 103.097C134.824 108.763 146.924 103.097 158.675 91.346C158.675 91.346 177.27 109.91 162.23 132.409C140.766 164.497 85.233 145.902 85.233 145.902C85.233 145.902 29.7 164.497 8.23702 132.409C-6.80298 109.911 11.792 91.346 11.792 91.346C23.543 103.097 35.643 108.763 53.705 103.097C65.527 99.378 70.725 77.248 85.233 77.248Z" fill="#FFF1E6"/>
<path d="M35.4246 129.08C45.9583 127.359 53.1027 117.425 51.3821 106.891C49.6615 96.3578 39.7276 89.2134 29.1939 90.934C18.6603 92.6545 11.5159 102.589 13.2364 113.122C14.957 123.656 24.891 130.8 35.4246 129.08Z" fill="#FD9DB4"/>
<path d="M141.207 129.128C151.751 127.463 158.948 117.566 157.283 107.023C155.618 96.4797 145.721 89.2825 135.178 90.9475C124.634 92.6126 117.437 102.509 119.102 113.053C120.767 123.596 130.664 130.793 141.207 129.128Z" fill="#FD9DB4"/>
<path d="M164.196 133.728C177.139 114.369 166.738 97.6131 162.304 91.9351C165.562 89.6391 167.389 86.7121 167.744 83.2051C168.726 73.4981 157.654 62.7641 152.961 58.6851C155.363 55.2681 155.737 51.3471 154.025 47.2141C153.129 45.0511 151.636 42.8411 149.618 40.6351C152.156 37.8841 155.289 33.7561 156.908 28.8111C159.12 22.0551 157.841 15.5301 153.211 9.94009C147.24 2.73209 137.643 -0.910905 127.536 0.195095C116.689 1.38209 107.23 7.82507 102.157 17.4541C96.172 16.2081 90.399 15.5331 85.228 15.5331C80.06 15.5331 74.289 16.2081 68.307 17.4531C63.234 7.82509 53.775 1.38209 42.928 0.195095C32.819 -0.909905 23.224 2.73209 17.253 9.94009C12.623 15.5301 11.345 22.0551 13.556 28.8111C15.175 33.7551 18.307 37.8831 20.845 40.6341C18.827 42.8411 17.333 45.0521 16.437 47.2151C14.726 51.3481 15.102 55.2681 17.505 58.6851C12.809 62.7651 1.73203 73.4991 2.71303 83.2061C3.06703 86.7121 4.89303 89.6371 8.14903 91.9331C6.42603 94.1271 3.92604 97.8181 2.14504 102.612C-0.573964 109.931 -2.06697 121.271 6.26003 133.728C9.93703 139.225 14.808 143.616 20.752 146.864C20.163 147.31 19.624 147.739 19.143 148.139C12.049 154.034 7.64201 161.236 7.64201 166.934C7.64201 179.631 28.211 179.631 46.358 179.631C64.014 179.631 83.96 179.629 85.027 167.936C86.095 179.629 106.04 179.631 123.696 179.631C141.843 179.631 162.412 179.631 162.412 166.934C162.412 160.943 157.352 153.056 149.437 147.009C155.504 143.748 160.465 139.308 164.196 133.728ZM128.053 4.91708C136.565 3.98508 144.604 6.99609 149.553 12.9701C152.959 17.0821 156.966 25.6631 146.199 37.3291C141.354 33.1391 134.692 29.0561 126.659 25.4391C120.294 22.5731 113.567 20.2501 106.968 18.5701C111.427 10.9501 119.199 5.88608 128.053 4.91708ZM20.912 12.9711C25.861 6.99707 33.899 3.98509 42.412 4.91809C51.266 5.88709 59.037 10.9511 63.496 18.5701C56.897 20.2501 50.169 22.5741 43.803 25.4401C35.771 29.0561 29.109 33.1391 24.265 37.3281C13.499 25.6631 17.506 17.0821 20.912 12.9711ZM71.572 173.393C64.995 174.766 55.511 174.881 46.36 174.881C37.209 174.881 27.725 174.766 21.148 173.393C12.394 171.566 12.394 168.201 12.394 166.935C12.394 163.447 15.42 157.412 22.181 151.794C23.117 151.016 24.287 150.119 25.667 149.196C32.906 152.134 41.441 153.636 51.118 153.635C52.35 153.635 53.603 153.61 54.872 153.562C60.596 153.342 65.977 152.66 70.606 151.852C77.318 157.454 80.325 163.459 80.325 166.935C80.326 168.201 80.326 171.565 71.572 173.393ZM31.037 146.151C35.226 144.175 40.412 142.618 46.36 142.618C53.992 142.618 60.369 145.18 64.995 147.902C61.731 148.343 58.22 148.681 54.585 148.817C45.609 149.152 37.752 148.256 31.037 146.151ZM85.029 165.909C84.609 161.266 81.413 155.676 76.372 150.712C80.703 149.754 83.851 148.825 85.229 148.395C86.568 148.813 89.582 149.701 93.724 150.63C88.639 155.615 85.442 161.193 85.029 165.909ZM147.877 151.793C154.638 157.411 157.664 163.446 157.664 166.934C157.664 168.201 157.664 171.565 148.91 173.392C142.333 174.765 132.849 174.88 123.698 174.88C114.547 174.88 105.063 174.765 98.486 173.392C89.732 171.565 89.732 168.2 89.732 166.934C89.732 163.446 92.758 157.411 99.519 151.793C104.223 152.626 109.726 153.336 115.588 153.561C116.858 153.61 118.109 153.634 119.342 153.634C128.906 153.634 137.354 152.164 144.538 149.293C145.855 150.181 146.974 151.042 147.877 151.793ZM105.139 147.858C109.758 145.152 116.108 142.618 123.697 142.618C129.719 142.618 134.961 144.214 139.177 146.224C132.513 148.276 124.737 149.147 115.875 148.817C112.12 148.677 108.495 148.32 105.139 147.858ZM144.996 144.002C138.842 140.331 131.497 137.868 123.698 137.868C112.266 137.868 103.381 142.901 98.286 146.718C90.954 145.289 86.063 143.675 85.982 143.648C85.738 143.566 85.483 143.526 85.229 143.526C84.974 143.526 84.72 143.567 84.475 143.648C84.393 143.676 79.339 145.342 71.808 146.787C64.947 141.631 56 137.867 46.36 137.867C37.639 137.867 30.402 140.797 25.196 143.881C18.941 140.92 13.933 136.653 10.21 131.087C4.45604 122.48 3.22202 113.51 6.54002 104.428C9.07102 97.5011 13.428 93.0661 13.469 93.0251C14.008 92.4871 14.256 91.7231 14.137 90.9701C14.017 90.2181 13.544 89.5681 12.864 89.2241C9.48503 87.5131 7.71103 85.3891 7.44203 82.7301C6.66603 75.0871 17.93 64.3371 22.334 60.8411C22.865 60.4201 23.191 59.7921 23.23 59.1161C23.269 58.4391 23.017 57.7791 22.537 57.3001C20.06 54.8251 19.516 52.1981 20.827 49.0321C23.388 42.8451 32.706 35.6451 45.753 29.7701C58.948 23.8291 73.705 20.2821 85.228 20.2821C96.755 20.2821 111.513 23.8291 124.709 29.7701C137.755 35.6441 147.073 42.8451 149.636 49.0321C150.947 52.1971 150.405 54.8241 147.93 57.3001C147.451 57.7791 147.2 58.4391 147.238 59.1151C147.277 59.7911 147.602 60.4191 148.133 60.8401C152.536 64.3371 163.793 75.0861 163.017 82.7291C162.747 85.3891 160.972 87.5141 157.593 89.2251C156.915 89.5681 156.444 90.2171 156.323 90.9671C156.202 91.7171 156.448 92.4811 156.984 93.0201C157.008 93.0451 157.207 93.2471 157.531 93.6121C159.055 95.3401 162.802 100.077 164.661 106.72C166.987 115.03 165.502 123.228 160.247 131.086C156.474 136.731 151.374 141.037 144.996 144.002Z" fill="#D3A98C"/>
<path d="M51.7653 95.1592C48.3563 95.1592 45.8923 94.4382 45.6713 94.3722C44.4163 93.9922 43.7063 92.6662 44.0873 91.4102C44.4663 90.1572 45.7883 89.4472 47.0433 89.8242C47.4483 89.9432 56.4003 92.4812 62.7343 86.0882C63.6573 85.1552 65.1613 85.1492 66.0933 86.0732C67.0253 86.9962 67.0323 88.5002 66.1083 89.4322C61.4983 94.0842 55.9273 95.1592 51.7653 95.1592Z" fill="#5F5C5D"/>
<path d="M118.695 95.1594C114.533 95.1594 108.963 94.0854 104.352 89.4324C103.428 88.5004 103.435 86.9964 104.367 86.0734C105.3 85.1504 106.803 85.1564 107.726 86.0884C114.071 92.4904 123.041 89.9364 123.419 89.8234C124.675 89.4534 125.997 90.1654 126.372 91.4194C126.747 92.6734 126.041 93.9934 124.789 94.3724C124.569 94.4384 122.104 95.1594 118.695 95.1594Z" fill="#5F5C5D"/>
<path d="M103.439 101.632C99.3911 96.8909 93.7191 93.9469 87.6101 93.3369V87.0059H82.8591V93.3369C76.7311 93.9469 71.0601 96.8919 67.0311 101.637C66.1821 102.637 66.3041 104.136 67.3041 104.985C68.3051 105.834 69.8031 105.711 70.6521 104.712C74.2941 100.424 79.6101 97.9639 85.2371 97.9639C90.8451 97.9639 96.1631 100.425 99.8261 104.716C100.296 105.266 100.963 105.549 101.634 105.549C102.179 105.549 102.728 105.362 103.175 104.98C104.173 104.129 104.291 102.63 103.439 101.632Z" fill="#D3A98C"/>
<path d="M90.1878 83.4149C88.9168 82.1269 86.8418 82.1139 85.5548 83.3849L85.2438 83.6919L84.9368 83.3809C83.6658 82.0929 81.5908 82.0799 80.3038 83.3509C79.0158 84.6219 79.0028 86.6969 80.2738 87.9839L81.3658 89.09C83.4748 91.227 86.9168 91.249 89.0538 89.139L90.1598 88.047C91.4458 86.777 91.4588 84.7029 90.1878 83.4149Z" fill="#E27FA3"/>
<path d="M131.327 177.255H39.1379C35.3459 177.255 32.0939 174.551 31.4019 170.823L23.1909 126.596C21.8999 119.642 27.2379 113.222 34.3109 113.222H136.154C143.227 113.222 148.565 119.642 147.274 126.596L139.063 170.823C138.371 174.551 135.119 177.255 131.327 177.255Z" fill="#95A1B3"/>
<path d="M131.327 179.631H39.1379C34.2029 179.631 29.967 176.109 29.066 171.257L20.855 127.03C20.11 123.019 21.179 118.92 23.787 115.783C26.395 112.646 30.2309 110.847 34.3099 110.847H136.153C140.232 110.847 144.068 112.646 146.676 115.783C149.284 118.92 150.353 123.02 149.608 127.03L141.397 171.257C140.498 176.109 136.262 179.631 131.327 179.631ZM34.311 115.597C31.648 115.597 29.144 116.772 27.441 118.82C25.738 120.868 25.04 123.544 25.526 126.163L33.7369 170.39C34.2199 172.992 36.4909 174.88 39.1379 174.88H131.327C133.974 174.88 136.245 172.991 136.728 170.39L144.939 126.163C145.425 123.544 144.727 120.868 143.024 118.82C141.321 116.772 138.817 115.597 136.154 115.597H34.311Z" fill="#70838E"/>
<path d="M85.2329 157.375C90.859 157.375 95.4199 153.994 95.4199 149.823C95.4199 145.652 90.859 142.271 85.2329 142.271C79.6068 142.271 75.0459 145.652 75.0459 149.823C75.0459 153.994 79.6068 157.375 85.2329 157.375Z" fill="white"/>
<path d="M85.2329 159.75C78.3059 159.75 72.6709 155.296 72.6709 149.822C72.6709 144.348 78.3059 139.894 85.2329 139.894C92.1599 139.894 97.7949 144.348 97.7949 149.822C97.7939 155.297 92.1589 159.75 85.2329 159.75ZM85.2329 144.646C80.9989 144.646 77.4219 147.017 77.4219 149.823C77.4219 152.629 80.9989 155 85.2329 155C89.4669 155 93.0439 152.629 93.0439 149.823C93.0439 147.016 89.4659 144.646 85.2329 144.646Z" fill="#70838E"/>
</svg>
