<svg width="168" height="185" viewBox="0 0 168 185" fill="none" xmlns="http://www.w3.org/2000/svg">
<path d="M124.219 21.8446L156.062 42.6016C160.118 39.3596 168.464 30.9732 162.146 20.9165C154.344 8.49562 133.894 7.85039 124.219 21.8446Z" fill="#F8D4AE"/>
<path d="M135.519 31.7347C135.519 31.7347 148.442 16.7513 156.79 24.6288C165.139 32.5071 151.494 45.0494 151.494 45.0494L135.519 31.7347Z" fill="#FFF1E6"/>
<path d="M58.425 29.7437L94.5638 17.9396C88.8429 1.91765 68.9136 -2.75462 58.1706 7.22427C49.4646 15.3018 55.3545 25.5635 58.425 29.7437Z" fill="#F8D4AE"/>
<path d="M81.0842 24.5666C81.0842 24.5666 72.4803 6.74784 62.3776 12.1959C52.2748 17.644 62.2069 33.291 62.2069 33.291L81.0842 24.5666Z" fill="#FFF1E6"/>
<path d="M37.1273 101.164C50.6671 128.602 96.2408 119.737 96.2408 119.737C96.2408 119.737 137.957 140.098 158.147 117.1C172.296 100.976 159.603 84.4606 159.603 84.4606C165.521 82.381 166.629 78.3171 165.643 73.993C163.917 66.4427 155.827 58.0865 155.827 58.0865C169.905 47.2925 134.385 22.4223 109.488 19.1442C84.5831 15.8645 43.844 30.6923 54.6389 44.761C54.6389 44.761 44.6608 50.7371 41.0481 57.5844C38.9751 61.506 38.9944 65.718 44.1713 69.2588C44.1713 69.2588 43.962 69.4195 43.5922 69.74C40.751 72.2163 28.7083 84.1058 37.1273 101.164Z" fill="#F8D4AE"/>
<path d="M37.1273 101.163C50.6671 128.602 96.2408 119.736 96.2408 119.736C96.2408 119.736 137.957 140.097 158.147 117.1C172.296 100.975 159.603 84.4603 159.603 84.4603C165.521 82.3807 166.629 78.3168 165.643 73.9927C154.684 81.3228 143.912 84 129.422 77.7092C119.614 73.4437 117.427 55.4626 104.923 53.8156C92.4179 52.1686 85.651 68.9714 75.072 70.5523C59.4476 72.8771 49.7356 67.5027 41.0481 57.5849C38.9751 61.5065 38.9944 65.7185 44.1713 69.2593C44.1713 69.2593 43.962 69.42 43.5922 69.7405C40.751 72.216 28.7083 84.1054 37.1273 101.163Z" fill="#FFF1E6"/>
<path d="M101.821 63.1893L100.925 71.418L104.877 71.8486L105.774 63.6199L101.821 63.1893Z" fill="#D3A98C"/>
<path d="M152.592 97.1183C159.245 91.892 160.403 82.2614 155.176 75.6077C149.95 68.9541 140.319 67.797 133.666 73.0233C127.012 78.2496 125.855 87.8802 131.081 94.5338C136.308 101.188 145.938 102.345 152.592 97.1183Z" fill="#FD9DB4"/>
<path d="M69.1901 86.3138C75.9326 81.2017 77.2543 71.5917 72.1422 64.8492C67.0301 58.1067 57.4201 56.785 50.6776 61.8971C43.9351 67.0092 42.6134 76.6192 47.7255 83.3617C52.8376 90.1042 62.4476 91.4259 69.1901 86.3138Z" fill="#FD9DB4"/>
<path d="M167.684 79.0247C169.459 71.4987 161.947 61.955 158.636 58.2C160.853 55.7487 161.541 52.6975 160.622 49.2672C160.146 47.4871 159.215 45.6117 157.878 43.6844C160.155 41.7771 163.012 38.869 164.784 35.1733C167.238 30.0584 166.907 24.7626 163.827 19.8585C159.861 13.546 152.662 9.67042 144.57 9.493C135.925 9.29299 127.804 13.3786 122.796 20.41C118.242 18.8233 113.796 17.7027 109.75 17.1705C105.702 16.6374 101.115 16.5688 96.3036 16.9228C93.2867 8.83438 86.5089 2.79717 78.0974 0.74013C70.235 -1.18384 62.2788 0.695776 56.814 5.7664C52.5694 9.70557 50.8781 14.7352 51.9242 20.3113C52.6799 24.3408 54.6875 27.8892 56.3922 30.3211C54.603 31.8359 53.218 33.4067 52.2974 35.0018C50.5216 38.0773 50.3952 41.2022 51.9007 44.1438C47.7323 46.9139 38.0095 54.188 37.7768 61.9165C37.6931 64.7092 38.8095 67.1997 41.1017 69.3455C36.9734 73.4336 27.1945 85.5214 35.3474 102.04C41.2055 113.912 53.7343 121.061 71.5807 122.715C83.1739 123.79 93.3277 122.258 95.9714 121.802C98.4067 122.927 107.817 127.035 119.291 128.999C123.311 129.687 127.139 130.028 130.757 130.028C143.036 130.028 152.897 126.094 159.644 118.409C167.507 109.448 167.507 100.346 166.122 94.2877C165.231 90.3895 163.68 87.2579 162.552 85.3381C165.321 83.8594 167.043 81.7438 167.684 79.0247ZM144.483 13.4682C151.235 13.6163 157.209 16.7964 160.461 21.9733C162.688 25.5183 164.922 32.5924 155.403 40.5695C152.025 36.7902 147.23 32.9129 141.324 29.2591C136.654 26.3694 131.647 23.8621 126.67 21.8645C130.945 16.4315 137.505 13.32 144.483 13.4682ZM59.5197 8.6804C64.0011 4.52113 70.5932 2.99551 77.1543 4.60147C83.9346 6.26016 89.4647 10.9692 92.1871 17.3245C86.8645 17.9655 81.3797 19.0911 76.1207 20.6728C69.4693 22.6729 63.8337 25.1769 59.5916 27.9536C52.4606 17.7831 56.4508 11.5283 59.5197 8.6804ZM163.815 78.1125C163.337 80.1378 161.746 81.5998 158.948 82.5823C158.348 82.7932 157.886 83.2803 157.703 83.8895C157.521 84.4987 157.642 85.1607 158.028 85.6662C158.504 86.2905 169.527 101.119 156.657 115.786C148.785 124.752 136.469 127.884 120.048 125.095C107.51 122.965 97.2183 117.996 97.1162 117.947C96.8434 117.814 96.5447 117.745 96.2442 117.745C96.1179 117.745 95.9907 117.758 95.8643 117.782C95.4249 117.867 51.6338 126.06 38.9133 100.281C35.611 93.5897 35.2921 87.0228 37.9676 80.7621C40.1083 75.7526 43.5295 72.431 44.8944 71.241C45.1882 70.9866 45.3639 70.8502 45.3832 70.8343C45.8886 70.4468 46.1782 69.84 46.1606 69.2023C46.143 68.5655 45.8217 67.9755 45.2953 67.6156C42.8483 65.9427 41.6892 64.1183 41.7503 62.0387C41.9294 55.9998 51.8539 48.7483 55.6617 46.4636C56.1479 46.1724 56.4868 45.687 56.5931 45.1305C56.6994 44.574 56.563 43.9982 56.2173 43.548C54.5578 41.3846 54.4055 39.3 55.7395 36.9894C58.3807 32.4142 66.4272 27.7377 77.2631 24.4789C88.2345 21.18 100.185 19.9205 109.229 21.1122C118.272 22.303 129.487 26.6121 139.229 32.6393C148.853 38.5928 155.414 45.1932 156.78 50.2948C157.47 52.8724 156.782 54.8458 154.617 56.5061C154.167 56.8509 153.886 57.3723 153.844 57.938C153.802 58.5037 154.004 59.0603 154.399 59.467C154.427 59.4963 157.268 62.4421 159.86 66.3369C163.114 71.22 164.48 75.2914 163.815 78.1125Z" fill="#D3A98C"/>
<path d="M100.105 60.3126C101.237 59.4322 102.869 59.6364 103.749 60.7687L103.962 61.0423L104.236 60.8297C105.368 59.9493 107 60.1536 107.88 61.2858C108.76 62.4181 108.556 64.05 107.424 64.9304L106.452 65.6861C104.573 67.1473 101.865 66.8084 100.404 64.9296L99.6486 63.9571C98.7674 62.8249 98.9724 61.1929 100.105 60.3126Z" fill="#E27FA3"/>
<path d="M73.9249 56.2954C73.3248 60.8505 75.6739 64.916 79.1712 65.3763C82.6685 65.8366 85.9901 62.5175 86.5893 57.9624C87.1893 53.4073 84.8402 49.3418 81.3429 48.8815C77.8456 48.4212 74.5249 51.7403 73.9249 56.2954Z" fill="#5F5C5D"/>
<path d="M121.559 62.568C120.959 67.1231 123.308 71.1886 126.805 71.6497C130.303 72.11 133.624 68.791 134.223 64.2359C134.823 59.6808 132.474 55.6152 128.977 55.1549C125.48 54.6947 122.159 58.0137 121.559 62.568Z" fill="#5F5C5D"/>
<path d="M109.86 75.119C109.252 75.119 108.609 75.0512 107.93 74.898C106.859 74.6553 106.188 73.5908 106.431 72.5196C106.673 71.4493 107.736 70.7781 108.808 71.0199C111.772 71.6919 113.596 69.1897 113.672 69.0826C114.306 68.1947 115.542 67.9754 116.436 68.6014C117.329 69.2274 117.557 70.4492 116.939 71.348C116.82 71.5221 114.29 75.119 109.86 75.119Z" fill="#D3A98C"/>
<path d="M108.37 72.9591C102.63 76.1777 88.847 75.1935 88.6704 67.28C88.4938 59.3665 99.2066 59.7482 100.569 65.9829C101.931 72.2176 108.37 72.9591 108.37 72.9591Z" fill="#E27FA3"/>
<path d="M100.394 76.6566C97.1807 76.6566 93.8658 76.0147 91.2765 74.5368C88.3399 72.8597 86.7515 70.3666 86.6837 67.3246C86.5875 62.9971 89.1801 59.8839 93.2892 59.3935C98.272 58.7993 101.762 62.1259 102.512 65.5588C103.544 70.2879 108.403 70.96 108.609 70.9859C109.46 71.0947 110.151 71.7366 110.315 72.5785C110.479 73.4204 110.09 74.2731 109.343 74.6924C107.15 75.9226 103.83 76.6566 100.394 76.6566ZM94.3177 63.3084C94.1294 63.3084 93.9436 63.3193 93.7595 63.3411C92.572 63.4825 90.5903 64.1771 90.6581 67.2359C90.6941 68.851 91.541 70.1097 93.2474 71.0838C95.7479 72.5115 99.3582 72.9216 102.51 72.5894C100.834 71.3173 99.2745 69.3716 98.6268 66.4074C98.1849 64.3855 96.1873 63.3084 94.3177 63.3084Z" fill="#DD528B"/>
<path d="M144.95 120.754C139.362 117.955 131.99 120.856 126.732 127.326C121.26 123.85 113.788 121.706 105.546 121.706C97.3029 121.706 89.8321 123.851 84.3606 127.326C79.1025 120.857 71.7305 117.956 66.1418 120.754C59.2242 124.219 57.6609 135.104 62.6504 145.066C67.6398 155.029 77.2932 160.296 84.2116 156.831C84.569 156.652 84.9096 156.449 85.2385 156.23C90.6187 159.388 97.7372 161.312 105.547 161.312C113.356 161.312 120.474 159.389 125.855 156.23C126.184 156.448 126.524 156.652 126.882 156.831C133.8 160.296 143.453 155.029 148.443 145.066C153.431 135.104 151.869 124.219 144.95 120.754Z" fill="#F8D4AE"/>
<path d="M79.5854 159.893C77.0555 159.893 74.3934 159.168 71.7556 157.729C67.331 155.315 63.4664 151.134 60.8729 145.957C58.2802 140.779 57.2467 135.18 57.9631 130.191C58.7179 124.935 61.3064 120.953 65.2514 118.977C69.1964 117.001 73.9365 117.313 78.5971 119.856C83.0216 122.271 86.8863 126.452 89.4798 131.629C92.0724 136.806 93.1059 142.404 92.3896 147.394C91.6347 152.649 89.0463 156.632 85.1012 158.608C83.389 159.467 81.5261 159.893 79.5854 159.893ZM70.7681 121.676C69.4341 121.676 68.1738 121.96 67.0314 122.533C61.1047 125.501 59.9364 135.211 64.4279 144.178C68.0273 151.363 74.1859 155.924 79.5402 155.924C80.8675 155.924 82.1446 155.644 83.3212 155.054C86.0678 153.679 87.8905 150.758 88.4546 146.83C89.0571 142.635 88.1583 137.869 85.9247 133.409C83.6911 128.951 80.4122 125.376 76.6932 123.347C74.6579 122.236 72.641 121.676 70.7681 121.676Z" fill="#D3A98C"/>
<path d="M131.507 159.893C129.566 159.893 127.704 159.466 125.991 158.608C122.046 156.632 119.457 152.65 118.703 147.394C117.986 142.405 119.02 136.806 121.612 131.629C124.206 126.452 128.071 122.271 132.495 119.857C137.156 117.313 141.896 117 145.841 118.977C149.786 120.953 152.374 124.936 153.129 130.191C153.845 135.181 152.812 140.779 150.219 145.956C147.626 151.133 143.761 155.314 139.337 157.729C136.699 159.168 134.037 159.893 131.507 159.893ZM140.324 121.676C138.451 121.676 136.434 122.236 134.399 123.347C130.679 125.377 127.4 128.95 125.167 133.41C122.934 137.87 122.035 142.635 122.638 146.83C123.202 150.758 125.024 153.679 127.771 155.055C133.698 158.022 142.174 153.144 146.664 144.177C151.155 135.211 149.987 125.501 144.061 122.532C142.918 121.96 141.658 121.676 140.324 121.676Z" fill="#D3A98C"/>
<path d="M140.536 135.491C138.266 144.544 129.509 150.679 120.224 149.738C113.74 149.081 108.427 145.298 105.518 140.105C104.043 137.473 100.44 136.874 98.1941 138.888C93.7603 142.862 87.5105 144.727 81.1611 143.253C72.0702 141.143 65.7643 132.508 66.5418 123.207C67.4849 111.919 77.8597 104.08 88.8152 106.02C98.7765 107.673 115.055 110.376 125.016 112.029C136.007 113.737 143.289 124.505 140.536 135.491Z" fill="white"/>
<path d="M122.111 151.822C121.419 151.822 120.724 151.787 120.024 151.717C113.199 151.025 107.128 147.048 103.783 141.078C103.378 140.353 102.661 139.857 101.819 139.717C100.977 139.577 100.14 139.815 99.5205 140.37C94.4239 144.939 87.3916 146.741 80.7125 145.191C70.6449 142.854 63.7014 133.333 64.5617 123.043C65.0621 117.053 67.946 111.748 72.681 108.102C77.3508 104.508 83.3587 103.036 89.1616 104.063L125.341 110.07C131.144 110.97 136.351 114.305 139.608 119.215C142.91 124.194 143.923 130.146 142.463 135.974C140.124 145.309 131.585 151.822 122.111 151.822ZM101.34 135.701C101.715 135.701 102.093 135.732 102.471 135.794C104.511 136.133 106.253 137.35 107.252 139.134C109.964 143.976 114.888 147.2 120.425 147.762C120.991 147.819 121.556 147.847 122.116 147.847C129.794 147.848 136.712 142.571 138.608 135.009C139.793 130.278 138.972 125.45 136.295 121.413C133.655 117.432 129.434 114.729 124.712 113.995L88.4904 107.982C83.7621 107.146 78.8923 108.339 75.1063 111.253C71.2676 114.208 68.9293 118.513 68.5226 123.374C67.8263 131.71 73.4526 139.425 81.6105 141.319C87.0293 142.576 92.7334 141.115 96.8667 137.41C98.1078 136.297 99.6928 135.701 101.34 135.701Z" fill="#E2E2E2"/>
<path d="M55.915 119.689C55.915 111.976 58.6207 105.725 66.3333 105.725C74.0459 105.725 80.2982 111.977 80.2982 119.689C80.2982 127.401 74.0459 133.653 66.3333 133.653C58.6215 133.653 55.915 127.401 55.915 119.689Z" fill="#F8D4AE"/>
<path d="M66.3334 135.641C58.4492 135.641 53.9268 129.827 53.9268 119.689C53.9268 109.551 58.4492 103.736 66.3334 103.736C75.1298 103.736 82.2859 110.892 82.2859 119.689C82.2859 128.485 75.1298 135.641 66.3334 135.641ZM66.3334 107.712C60.7389 107.712 57.9027 111.742 57.9027 119.689C57.9027 127.636 60.7389 131.665 66.3334 131.665C72.9372 131.665 78.3099 126.293 78.3099 119.689C78.3099 113.085 72.938 107.712 66.3334 107.712Z" fill="#D3A98C"/>
<path d="M149.582 118.944C151.603 126.387 150.631 133.13 143.189 135.152C135.746 137.174 128.074 132.78 126.052 125.336C124.03 117.894 128.425 110.222 135.867 108.2C143.31 106.178 147.56 111.501 149.582 118.944Z" fill="#F8D4AE"/>
<path d="M139.532 137.629C132.51 137.629 126.061 132.951 124.134 125.857C123.017 121.744 123.568 117.444 125.686 113.746C127.803 110.049 131.235 107.397 135.347 106.281C139.465 105.162 143.179 105.942 146.083 108.541C148.478 110.684 150.302 114.008 151.501 118.423C154.159 128.206 151.32 135.003 143.711 137.069C142.316 137.448 140.912 137.629 139.532 137.629ZM138.904 109.754C138.115 109.754 137.278 109.876 136.388 110.118C133.301 110.956 130.725 112.947 129.135 115.723C127.545 118.499 127.131 121.728 127.97 124.815C129.701 131.188 136.293 134.964 142.668 133.233C148.066 131.767 149.747 127.135 147.663 119.466C146.682 115.857 145.22 113.104 143.432 111.504C142.125 110.335 140.629 109.754 138.904 109.754Z" fill="#D3A98C"/>
<path d="M72.918 140.763H23.1716C21.3196 140.763 19.6358 141.837 18.8567 143.518L11.4294 159.524C11.1382 160.151 10.9875 160.834 10.9875 161.526V177.944C10.9875 180.571 13.1174 182.701 15.7443 182.701H80.3461C82.973 182.701 85.1029 180.571 85.1029 177.944V161.526C85.1029 160.834 84.9522 160.151 84.661 159.524L77.2337 143.518C76.4538 141.837 74.77 140.763 72.918 140.763Z" fill="white"/>
<path d="M80.3461 184.69H15.7444C12.0253 184.69 9 181.664 9 177.944V161.527C9 160.553 9.21675 159.571 9.62682 158.687L17.0541 142.681C18.1554 140.309 20.5564 138.775 23.1725 138.775H72.9197C75.5349 138.775 77.9367 140.309 79.0381 142.681L86.4653 158.687C86.8754 159.57 87.0921 160.552 87.0921 161.526V177.944C87.0905 181.664 84.0652 184.69 80.3461 184.69ZM23.1716 142.751C22.0979 142.751 21.1121 143.38 20.6602 144.354L13.2329 160.36C13.0647 160.722 12.976 161.126 12.976 161.526V177.944C12.976 179.471 14.2179 180.713 15.7452 180.713H80.3469C81.8742 180.713 83.1161 179.471 83.1161 177.944V161.526C83.1161 161.126 83.0275 160.722 82.8592 160.36L75.432 144.353C74.9801 143.379 73.9942 142.75 72.9205 142.75H23.1716V142.751Z" fill="#E2E2E2"/>
<path d="M53.7377 173.577H20.5657C19.4677 173.577 18.5781 172.687 18.5781 171.589C18.5781 170.491 19.4686 169.602 20.5657 169.602H53.7377C54.8357 169.602 55.7253 170.492 55.7253 171.589C55.7262 172.687 54.8357 173.577 53.7377 173.577Z" fill="#E2E2E2"/>
<path d="M73.8401 173.577H69.3762C68.2783 173.577 67.3887 172.687 67.3887 171.589C67.3887 170.491 68.2791 169.602 69.3762 169.602H73.8401C74.9381 169.602 75.8277 170.492 75.8277 171.589C75.8286 172.687 74.9381 173.577 73.8401 173.577Z" fill="#E2E2E2"/>
<path d="M76.0228 161.511H20.0677C18.9697 161.511 18.0801 160.622 18.0801 159.524C18.0801 158.426 18.9705 157.536 20.0677 157.536H76.0228C77.1208 157.536 78.0104 158.426 78.0104 159.524C78.0104 160.622 77.1199 161.511 76.0228 161.511Z" fill="#E2E2E2"/>
<path d="M48.0002 166.485C73.4548 166.485 94.0898 157.903 94.0898 147.317C94.0898 136.732 73.4548 128.15 48.0002 128.15C22.5457 128.15 1.91064 136.732 1.91064 147.317C1.91064 157.903 22.5457 166.485 48.0002 166.485Z" fill="white"/>
<path d="M48.0004 168.394C35.4425 168.394 23.6076 166.348 14.6748 162.633C5.21142 158.697 0 153.257 0 147.316C0 141.375 5.2122 135.936 14.6772 131.999C23.6108 128.284 35.4448 126.238 47.9996 126.238C60.5576 126.238 72.3924 128.284 81.3252 131.999C90.7886 135.936 96 141.375 96 147.316C96 153.257 90.7878 158.697 81.3228 162.633C72.39 166.348 60.556 168.394 48.0004 168.394ZM48.0004 130.059C21.5735 130.059 3.82085 138.982 3.82085 147.316C3.82085 155.65 21.5735 164.573 48.0004 164.573C74.4273 164.573 92.1799 155.65 92.1799 147.316C92.1799 138.982 74.4281 130.059 48.0004 130.059Z" fill="#E2E2E2"/>
<path d="M89.1141 130.966C89.1141 123.188 70.7068 116.882 47.9997 116.882C25.2926 116.882 6.88525 123.188 6.88525 130.966C6.88525 132.88 6.88525 142.304 6.88525 144.218C6.88525 151.997 25.2926 158.303 47.9997 158.303C70.706 158.303 89.1141 151.997 89.1141 144.218C89.1141 142.304 89.1141 132.88 89.1141 130.966Z" fill="#FFBE8D"/>
<path d="M48.0003 160.213C36.8122 160.213 26.2669 158.711 18.3078 155.984C7.28839 152.208 4.97583 147.501 4.97583 144.218V133.939H8.79668V144.218C8.79668 147.016 12.8156 150.064 19.5464 152.37C27.1181 154.964 37.2227 156.393 48.0011 156.393C58.7763 156.393 68.8809 154.964 76.4526 152.37C83.185 150.064 87.2047 147.016 87.2047 144.218V133.446H91.0256V144.218C91.0256 147.501 88.7122 152.208 77.6912 155.984C69.7297 158.711 59.186 160.213 48.0003 160.213Z" fill="#EA9C71"/>
<path d="M47.5414 108.912C71.7456 108.912 91.3669 115.633 91.3669 123.925C91.3669 123.925 92.6827 137.731 81.7627 135.403C81.7627 135.403 75.6763 143.59 66.01 140.392C66.01 140.392 57.4559 147.934 47.7705 142.922C38.0851 147.934 29.531 140.392 29.531 140.392C19.8647 143.59 13.7783 135.403 13.7783 135.403C2.85907 137.73 4.17406 123.925 4.17406 123.925C4.17406 115.633 23.7954 108.912 47.9996 108.912" fill="#FFFFA1"/>
<path d="M82.7341 125.731V125.737C77.7979 128.605 66.0625 132.373 47.9997 132.373C29.9368 132.373 18.2014 128.605 13.2581 125.737V125.731C18.2006 121.898 29.936 116.877 47.9997 116.877C66.0633 116.877 77.7987 121.898 82.7341 125.731Z" fill="#E27FA3"/>
<path d="M40.821 146.571C35.2985 146.571 30.9129 143.824 29.1254 142.504C21.7072 144.459 15.7775 140.528 13.0131 137.472C10.0895 137.856 7.67119 137.212 5.8089 135.553C1.76054 131.946 2.18853 124.783 2.2649 123.836C2.30627 120.381 4.81372 115.467 16.3916 111.501C24.7397 108.641 35.7607 107.048 47.4786 107.002C47.5757 106.998 47.6735 107.001 47.7714 107.001C47.8684 107.001 47.9663 106.998 48.0641 107.002C59.7812 107.048 70.8022 108.641 79.1503 111.501C90.7282 115.467 93.2357 120.381 93.2771 123.836C93.3526 124.782 93.7814 131.946 89.733 135.554C87.8707 137.213 85.4516 137.857 82.5289 137.473C79.7645 140.528 73.8355 144.459 66.4166 142.505C63.9266 144.342 56.3923 148.952 47.7714 145.045C45.3379 146.146 42.9911 146.571 40.821 146.571ZM29.5311 138.481C29.9893 138.481 30.4404 138.646 30.7952 138.958C31.103 139.226 38.5204 145.558 46.8939 141.225C47.4444 140.94 48.0991 140.94 48.6496 141.225C57.0232 145.558 64.4397 139.226 64.7516 138.955C65.2607 138.511 65.9703 138.366 66.6107 138.578C74.8729 141.312 80.1773 134.334 80.2306 134.264C80.6761 133.665 81.4295 133.378 82.1621 133.535C84.3816 134.008 86.0252 133.737 87.1858 132.707C89.5143 130.639 89.6209 125.795 89.4657 124.103C89.461 124.045 89.4578 123.983 89.4578 123.925C89.4578 117.747 72.3495 110.865 47.7722 110.822C23.194 110.865 6.08575 117.747 6.08575 123.925C6.08575 123.985 6.08335 124.045 6.07699 124.106C5.92186 125.795 6.02846 130.64 8.35692 132.707C9.51758 133.737 11.1611 134.008 13.3806 133.535C14.1125 133.378 14.8658 133.665 15.3121 134.264C15.5253 134.547 20.7351 141.29 28.9321 138.578C29.1278 138.512 29.3306 138.481 29.5311 138.481Z" fill="#F9CB71"/>
<path d="M83.9066 124.225C78.1447 119.75 65.687 114.969 48.0004 114.969C30.3202 114.969 17.8577 119.75 12.0886 124.225L14.4306 127.243C18.2021 124.318 25.2114 121.25 35.0216 119.742C26.5264 124.004 23.0707 128.407 22.8758 128.662L25.9035 130.991C25.9639 130.914 32.0615 123.29 48.2606 118.792C50.9812 118.799 53.5626 118.923 56.0041 119.142C42.9617 123.305 36.9333 130.387 36.6302 130.751L39.564 133.198C39.5847 133.173 41.6825 130.708 46.0188 127.946C49.9749 125.427 56.6588 122.143 66.0904 120.719C67.5127 121.048 68.8635 121.408 70.1324 121.794C60.0325 125.504 51.7218 130.415 51.3169 130.656L53.2699 133.94C53.3805 133.875 64.213 127.477 75.8115 123.906C78.1893 124.975 80.1168 126.119 81.5639 127.243L83.9066 124.225Z" fill="#DD528B"/>
<path d="M47.9997 134.284C26.3935 134.284 12.4323 128.919 9.4205 125.11C8.76659 124.282 8.90661 123.081 9.73394 122.426C10.5613 121.772 11.7625 121.912 12.4172 122.74C13.9828 124.719 25.781 130.463 47.9997 130.463C70.2183 130.463 82.0173 124.719 83.5821 122.74C84.2368 121.912 85.438 121.772 86.2654 122.426C87.0927 123.081 87.2335 124.282 86.5788 125.11C83.567 128.919 69.6058 134.284 47.9997 134.284Z" fill="#F9CB71"/>
</svg>
