<svg width="206" height="229" viewBox="0 0 206 229" fill="none" xmlns="http://www.w3.org/2000/svg">
<path d="M181.763 121.742C186.523 103.032 172.058 93.7701 168.715 91.9104C168.28 91.6713 168.039 91.5558 168.039 91.5558C180.103 78.9064 152.478 69.4425 152.478 69.4425C155.67 62.7495 150.148 57.7762 140.873 54.8353L145.555 55.3345C147.721 50.5366 151.403 39.1067 141.056 32.9248C128.285 25.2842 109.486 34.127 107.187 51.2405L113.151 51.877C105.825 52.249 98.6151 53.4603 92.6214 55.5837C68.5966 64.0909 38.5809 96.2754 54.8333 104.021C54.8333 104.021 39.3121 128.763 56.6484 131.001C56.6484 131.001 47.5319 150.074 64.9801 163.097C70.1098 166.924 75.7589 168.726 81.4943 169.183C90.2334 178.001 107.506 184.004 127.39 184.004C156.093 184.004 179.361 171.497 179.361 156.069C179.361 149.939 175.685 144.27 169.456 139.664C175.192 135.309 179.79 129.5 181.763 121.742Z" fill="#F8D4AE"/>
<path d="M143.649 55.8197C138.112 53.6127 130.741 52.2659 122.926 51.8731C124.819 46.5123 129.598 36.3064 137.927 38.7453C145.786 41.0506 144.883 50.4399 143.649 55.8197Z" fill="#FFF1E6"/>
<path d="M108.561 100.585C119.563 96.6889 129.449 112.076 139.414 111.721C154.634 111.167 162.289 103.62 168.045 91.5527C168.045 91.5527 187.133 100.638 181.769 121.739C174.109 151.839 129.541 159.459 129.541 159.459C129.541 159.459 89.877 181.667 64.981 163.096C47.5329 150.072 56.6493 131 56.6493 131C68.7176 136.756 79.4155 137.803 91.592 128.655C99.56 122.66 97.5585 104.48 108.561 100.585Z" fill="#FFF1E6"/>
<path d="M91.8776 134.475C89.0112 126.381 80.1257 122.142 72.0305 125.008C63.9361 127.875 59.6975 136.76 62.5639 144.855C65.4302 152.951 74.3157 157.188 82.411 154.322C90.5062 151.456 94.7439 142.569 91.8776 134.475Z" fill="#FD9DB4"/>
<path d="M172.412 115.684C174.879 107.458 170.21 98.7905 161.984 96.3242C153.758 93.858 145.091 98.5269 142.625 106.753C140.158 114.978 144.827 123.646 153.053 126.112C161.279 128.578 169.946 123.909 172.412 115.684Z" fill="#FD9DB4"/>
<path d="M171.308 90.9554C173.089 88.3445 173.651 85.6392 172.979 82.8847C171.118 75.2614 160.046 70.0852 155.239 68.1692C156.076 64.9282 155.27 61.8509 152.853 59.1664C151.614 57.7905 149.935 56.5346 147.876 55.4152C149.046 52.6343 150.26 48.7213 150.161 44.5955C150.022 38.7873 147.258 34.1104 142.169 31.0685C135.632 27.1628 127.287 26.9736 119.844 30.5629C111.916 34.385 106.444 41.8046 105.121 50.4718C100.3 51.1375 95.7887 52.1696 91.9021 53.5464C82.6465 56.8238 71.864 63.8124 63.0567 72.2395C53.8739 81.0268 48.414 89.7859 48.0748 96.2707C47.8865 99.8781 49.1969 102.776 51.8878 104.768C49.3561 109.284 44.0062 120.275 47.3564 127.371C48.5667 129.934 50.7047 131.683 53.7302 132.591C53.0209 134.754 52.1742 138.145 52.1133 142.131C52.016 148.471 53.9457 157.554 63.6906 164.827C69.5969 169.233 76.6428 171.44 84.5834 171.44C91.4401 171.44 98.9643 169.794 106.99 166.494L105.348 162.499C85.3355 170.725 73.0526 166.423 66.2732 161.366C50.4992 149.593 58.2625 132.644 58.5981 131.932C58.8972 131.307 58.8781 130.577 58.5462 129.968C58.2152 129.359 57.6123 128.946 56.9257 128.858C53.9948 128.48 52.1424 127.391 51.2621 125.53C50.0272 122.917 50.5164 118.646 52.678 113.177C54.4213 108.767 56.6411 105.202 56.6629 105.167C56.9903 104.645 57.0794 104.009 56.9075 103.417C56.7357 102.825 56.3192 102.334 55.7626 102.07C53.3219 100.907 52.2488 99.1352 52.387 96.4962C52.6653 91.1782 57.7696 83.2775 66.0413 75.3605C74.4284 67.3344 84.6344 60.7014 93.3416 57.6186C102.052 54.5349 114.158 53.2654 125.728 54.2248C137.138 55.1706 146.078 58.0988 149.642 62.0573C151.411 64.0215 151.693 66.0731 150.529 68.5129C150.264 69.0685 150.248 69.7115 150.487 70.2789C150.725 70.8464 151.194 71.2856 151.777 71.4857C151.816 71.4993 155.784 72.8734 159.912 75.2041C165.031 78.0941 168.099 81.105 168.783 83.9132C169.271 85.9147 168.516 87.9262 166.476 90.066C166 90.5652 165.792 91.2646 165.916 91.9448C166.04 92.625 166.484 93.2052 167.106 93.5043C167.134 93.518 167.334 93.6162 167.666 93.799C169.271 94.692 173.347 97.2537 176.511 101.751C180.463 107.368 181.525 113.914 179.669 121.211C176.739 132.737 167.283 141.146 151.564 146.203L152.887 150.314C169.873 144.849 180.582 135.154 183.856 122.276C188.449 104.22 176.378 94.2491 171.308 90.9554ZM109.599 49.9671C110.997 43.2096 115.437 37.4823 121.719 34.4532C127.85 31.4968 134.665 31.6178 139.952 34.776C148.087 39.6375 146.148 48.3466 143.943 53.6228C139.15 51.7813 133.06 50.4982 126.085 49.9189C120.59 49.4643 114.968 49.497 109.599 49.9671Z" fill="#D3A98C"/>
<path d="M129.803 124.016C129.066 126.183 127.908 128.245 126.444 129.989C124.786 131.948 122.729 133.499 120.434 134.303C116.116 135.814 110.819 134.735 106.754 132.143C103.981 130.388 101.777 127.942 100.82 125.142C100.459 124.098 100.277 123.016 100.301 121.898C100.485 112.59 107.997 116.418 113.488 114.491C118.981 112.571 122.453 104.89 128.414 112.047C131.047 115.208 131.236 119.792 129.803 124.016Z" fill="#5F5C5D"/>
<path d="M129.803 124.016C129.066 126.183 127.908 128.245 126.444 129.988C124.786 131.948 122.729 133.499 120.434 134.303C116.116 135.814 110.819 134.735 106.754 132.143C107.481 129.997 108.624 127.94 110.074 126.21C111.722 124.245 113.776 122.687 116.068 121.875C120.404 120.34 125.719 121.422 129.803 124.016Z" fill="#E27FA3"/>
<path d="M116.173 137.155C112.244 137.155 108.053 135.807 104.579 133.291C100.402 130.265 98.0558 126.097 98.1413 121.856C98.1959 119.159 98.806 117.146 100.008 115.701L103.328 118.465C102.785 119.117 102.494 120.287 102.46 121.943C102.404 124.748 104.099 127.609 107.112 129.792C110.95 132.573 116.016 133.57 119.718 132.272C123.42 130.974 126.756 127.034 128.019 122.465C129.01 118.879 128.549 115.585 126.755 113.43C125.531 111.959 124.436 111.213 123.501 111.213C123.487 111.213 123.474 111.213 123.46 111.213L123.359 106.895C125.708 106.829 127.916 108.073 130.074 110.665C132.788 113.925 133.556 118.645 132.182 123.616C130.533 129.579 126.202 134.576 121.147 136.348C119.597 136.891 117.91 137.155 116.173 137.155Z" fill="#F8D4AE"/>
<path d="M123.411 106.896C123.394 106.896 123.376 106.896 123.36 106.896C120.807 106.956 118.748 108.505 116.756 110.005C116.084 110.51 115.399 111.023 114.708 111.468L113.221 107.266L109.148 108.708L110.631 112.893C109.819 112.976 108.969 113.002 108.134 113.027C105.302 113.108 102.092 113.202 100.009 115.703C99.2462 116.619 99.3708 117.981 100.287 118.745C100.691 119.081 101.181 119.245 101.668 119.245C102.287 119.245 102.902 118.98 103.329 118.466C104.164 117.463 106.062 117.408 108.26 117.344C110.118 117.291 112.223 117.23 114.204 116.535C116.186 115.84 117.869 114.574 119.354 113.457C120.867 112.318 122.296 111.243 123.462 111.216C124.654 111.189 125.599 110.199 125.571 109.007C125.542 107.829 124.58 106.896 123.411 106.896Z" fill="#D3A98C"/>
<path d="M81.5998 123.225C81.2879 123.225 80.9714 123.158 80.6713 123.014C79.5946 122.501 79.1381 121.212 79.6519 120.135C82.4537 114.261 89.5132 111.761 95.3877 114.564C96.4644 115.077 96.9209 116.366 96.4071 117.443C95.8933 118.519 94.6048 118.977 93.5281 118.462C89.8033 116.686 85.3273 118.271 83.5513 121.996C83.1803 122.772 82.4064 123.225 81.5998 123.225Z" fill="#5F5C5D"/>
<path d="M129.539 106.249C129.227 106.249 128.911 106.181 128.611 106.038C127.534 105.524 127.078 104.235 127.591 103.159C130.393 97.2849 137.452 94.7841 143.327 97.5868C144.404 98.1006 144.86 99.3892 144.347 100.466C143.833 101.543 142.544 102 141.468 101.485C137.743 99.7093 133.267 101.294 131.491 105.018C131.12 105.795 130.346 106.249 129.539 106.249Z" fill="#5F5C5D"/>
<path d="M113.975 103.931C112.665 103.296 111.089 103.842 110.453 105.153L110.3 105.469L109.983 105.316C108.674 104.681 107.097 105.227 106.461 106.538C105.826 107.847 106.373 109.424 107.683 110.06L108.807 110.605C110.981 111.659 113.597 110.752 114.651 108.578L115.197 107.453C115.832 106.142 115.285 104.565 113.975 103.931Z" fill="#E27FA3"/>
<path d="M143.124 158.078C157.536 132.689 186.495 93.857 200.432 100.477C214.37 107.097 172.838 171.114 172.838 171.114L143.124 158.078Z" fill="#F8D4AE"/>
<path d="M174.65 172.289L171.026 169.939C171.111 169.807 179.645 156.622 187.556 141.839C201.186 116.366 201.745 107.353 200.866 104.246C200.522 103.031 199.925 102.627 199.507 102.428C194.437 100.02 184.98 105.955 173.567 118.714C162.242 131.373 151.386 147.899 145.003 159.143L141.247 157.011C147.74 145.572 158.795 128.747 170.347 115.834C183.694 100.914 194.128 95.0898 201.36 98.5254C203.156 99.3784 204.423 100.95 205.023 103.069C206.928 109.796 202.457 123.152 191.352 143.9C183.355 158.84 174.736 172.157 174.65 172.289Z" fill="#D3A98C"/>
<path d="M173.255 159.673L172.674 175.621L73.621 172.011L74.2021 156.063C82.2036 158.078 85.0745 156.022 92.9434 153.092C100.811 150.162 118.711 152.167 123.434 165.841C129.148 152.547 147.146 151.851 154.78 155.345C162.414 158.841 165.129 161.101 173.255 159.673Z" fill="white"/>
<path d="M174.831 175.7L170.514 175.542L171.002 162.154C165.143 162.694 161.795 161.084 157.027 158.795C156.043 158.323 155.026 157.835 153.882 157.311C149.868 155.475 142.044 154.896 135.452 157.439C130.636 159.296 127.261 162.409 125.423 166.692C125.071 167.513 124.25 168.034 123.359 167.998C122.468 167.966 121.688 167.388 121.397 166.546C119.874 162.14 116.735 158.789 112.067 156.586C105.676 153.57 97.8321 153.579 93.6945 155.118C92.515 155.557 91.4656 155.97 90.4498 156.369C85.5283 158.304 82.0718 159.664 76.2672 158.701L75.7798 172.09L71.463 171.932L72.0441 155.981C72.0677 155.329 72.3851 154.723 72.9062 154.332C73.4282 153.94 74.0984 153.806 74.7304 153.966C80.8396 155.507 83.3567 154.518 88.8693 152.35C89.8551 151.962 90.9718 151.523 92.1886 151.07C97.1201 149.236 106.02 148.957 113.91 152.68C118.128 154.671 121.419 157.559 123.608 161.153C126.054 157.728 129.547 155.087 133.897 153.409C142.037 150.27 150.894 151.196 155.679 153.385C156.86 153.925 157.942 154.444 158.896 154.902C164.236 157.466 166.675 158.636 172.88 157.543C173.522 157.43 174.181 157.613 174.672 158.042C175.164 158.47 175.436 159.097 175.413 159.749L174.831 175.7Z" fill="#E2E2E2"/>
<path d="M123.437 165.841C131.504 158.693 145.054 155.771 158.36 165.989C169.186 174.304 179.362 167.879 179.362 167.879L170.499 224.424C170.499 224.424 161.559 230.069 152.048 222.764C140.358 213.786 128.454 216.352 121.367 222.634C114.756 215.854 103.07 212.427 90.7572 220.53C80.7395 227.123 72.2342 220.843 72.2342 220.843L67.5109 163.802C67.5109 163.802 77.1921 170.951 88.5947 163.446C102.611 154.224 115.912 158.124 123.437 165.841Z" fill="#95E0E8"/>
<path d="M180.549 166.074C179.84 165.608 178.926 165.6 178.209 166.052C178.12 166.108 169.196 171.588 159.675 164.276C145.661 153.514 131.842 156.627 123.541 162.96C115.724 156.04 102.168 151.929 87.4071 161.643C77.4612 168.188 69.135 162.313 68.7931 162.065C68.111 161.562 67.198 161.504 66.4578 161.916C65.7176 162.329 65.2874 163.137 65.3575 163.981L70.0807 221.021C70.1326 221.642 70.449 222.21 70.9501 222.581C71.3475 222.873 80.7959 229.672 91.9439 222.334C99.2817 217.505 110.985 215.081 119.819 224.141C120.624 224.967 121.935 225.014 122.798 224.249C132.268 215.856 143.765 219.125 150.731 224.477C154.932 227.702 159.026 228.689 162.464 228.688C167.69 228.688 171.4 226.408 171.651 226.25C172.177 225.917 172.535 225.373 172.631 224.759L181.494 168.213C181.627 167.376 181.257 166.539 180.549 166.074ZM89.5705 218.726C82.5201 223.366 76.4118 220.778 74.2984 219.591L69.988 167.539C74.2266 169.241 81.5925 170.641 89.7833 165.251C98.054 159.809 111.143 157.032 121.244 166.718L119.371 218.126C112.244 213.148 101.337 210.983 89.5705 218.726ZM168.533 223.025C166.329 224.058 160.053 226.188 153.365 221.051C147.474 216.527 141.62 214.768 136.308 214.768C131.545 214.768 127.219 216.182 123.687 218.285L125.561 166.875C136.34 157.95 149.193 161.673 157.045 167.703C164.822 173.674 172.27 172.814 176.621 171.425L168.533 223.025Z" fill="#63D3D6"/>
<path d="M166.767 181.844C163.203 181.75 159.79 180.47 156.623 178.038C146.393 170.182 137.024 170.263 130.967 171.714C129.807 171.992 129.092 173.157 129.37 174.317C129.648 175.477 130.814 176.193 131.974 175.914C137.117 174.683 145.112 174.645 153.992 181.465C157.898 184.464 162.158 186.045 166.654 186.163C166.673 186.163 166.692 186.164 166.712 186.164C167.879 186.164 168.839 185.233 168.87 184.06C168.901 182.867 167.96 181.876 166.767 181.844Z" fill="#63D3D6"/>
<path d="M164.626 191.345C161.264 191.257 158.045 190.049 155.056 187.754C145.307 180.267 136.377 180.346 130.602 181.729C129.442 182.007 128.727 183.173 129.006 184.332C129.284 185.493 130.449 186.207 131.609 185.929C136.471 184.764 144.027 184.731 152.426 191.18C156.152 194.042 160.219 195.55 164.512 195.663C164.531 195.663 164.55 195.664 164.57 195.664C165.737 195.664 166.697 194.734 166.728 193.561C166.759 192.368 165.818 191.376 164.626 191.345Z" fill="#63D3D6"/>
<path d="M59.0046 192.261C57.3259 185.27 58.418 179.014 65.4084 177.335C72.3988 175.655 79.4273 179.962 81.106 186.953C82.7847 193.945 78.4779 200.972 71.4876 202.651C64.4972 204.33 60.6833 199.253 59.0046 192.261Z" fill="#F8D4AE"/>
<path d="M68.9286 205.131C66.1987 205.131 63.7615 204.166 61.7682 202.275C59.5511 200.171 57.9152 196.971 56.9049 192.766C54.6532 183.387 57.5687 176.998 64.9046 175.236C68.8468 174.289 72.9217 174.935 76.3782 177.053C79.8347 179.171 82.26 182.509 83.2067 186.451C85.1609 194.589 80.1303 202.799 71.9923 204.753C70.9374 205.006 69.9144 205.131 68.9286 205.131ZM68.4694 179.132C67.6182 179.132 66.7616 179.233 65.914 179.436C58.5708 181.199 60.4787 189.146 61.1062 191.758C61.9064 195.09 63.1641 197.643 64.7428 199.142C66.3896 200.704 68.4312 201.166 70.9856 200.553C76.8074 199.154 80.4058 193.28 79.0081 187.458C78.3315 184.638 76.5965 182.25 74.123 180.735C72.3924 179.676 70.4463 179.132 68.4694 179.132Z" fill="#D3A98C"/>
<path d="M89.3246 26.4606C92.9836 31.7823 93.3873 38.1908 91.0027 43.6398C94.3421 48.4962 93.7555 47.6436 99.209 55.5753C84.0647 73.945 63.2172 86.5166 39.1075 91.8182C33.654 83.8865 34.2405 84.7391 30.9062 79.8886C24.6227 79.6667 18.5499 76.6686 14.8902 71.3462C8.93547 62.6846 11.6101 51.141 20.8711 45.5558C22.99 44.2782 25.2643 43.4269 27.5899 42.9752C29.1247 37.3985 32.8234 32.3275 38.4058 28.9605C43.9819 25.5981 50.4348 24.5481 56.4913 25.547C57.893 23.7517 59.6689 22.1599 61.787 20.883C71.0417 15.3024 83.3699 17.7989 89.3246 26.4606Z" fill="white"/>
<path d="M77.2956 16.1542C71.4737 14.9749 65.5071 15.9895 60.4958 19.011C58.599 20.1545 56.9204 21.5479 55.4819 23.156C49.1643 22.4264 42.6617 23.7494 37.1138 27.0945C31.5638 30.4428 27.5862 35.4397 25.6786 41.1267C23.5217 41.6875 21.4744 42.5423 19.579 43.6845C14.5692 46.706 11.114 51.3727 9.85012 56.825C8.58698 62.2767 9.66704 67.8626 12.8904 72.5521C16.7337 78.1411 22.9691 81.4311 29.5442 82.0184L37.1092 93.0228C37.6538 93.8141 38.6702 94.198 39.6485 93.9836C59.8167 89.5489 77.6861 80.188 92.0078 66.6542C95.2167 63.6219 98.2492 60.3772 101.088 56.9341C101.702 56.1891 101.749 55.1627 101.205 54.3708L93.6475 43.3769C93.9331 42.5977 94.1747 41.7988 94.364 40.9817C95.6279 35.5293 94.5471 29.9441 91.3238 25.2546C88.1004 20.5651 83.1183 17.3329 77.2956 16.1542ZM87.3292 27.6637C89.867 31.3547 90.7168 35.75 89.7226 40.0405C88.7278 44.3318 86.0097 48.004 82.0653 50.3831C81.571 50.6813 81.0547 50.959 80.5298 51.2104C79.36 51.7679 78.8967 53.1087 79.4928 54.2023C80.089 55.2958 81.5194 55.7301 82.6877 55.1713C83.3544 54.8524 84.0097 54.4992 84.6365 54.1209C86.0313 53.2803 87.3045 52.3125 88.4443 51.2354C89.4799 50.2568 90.4012 49.1867 91.2055 48.0423L96.2975 55.4487C81.9093 72.3579 62.5707 84.0208 40.1911 89.2834L35.092 81.8663C38.0788 81.4322 41.0185 80.4255 43.7205 78.7964C44.341 78.4215 44.95 78.0135 45.53 77.5825C45.6054 77.5259 45.6765 77.4666 45.7427 77.4041C46.5777 76.615 46.6694 75.3488 45.9143 74.4572C45.0989 73.4951 43.6048 73.3352 42.5774 74.0986C42.1193 74.4383 41.6393 74.7616 41.15 75.0565C33.0101 79.9653 22.1256 77.7614 16.887 70.1424C11.6491 62.5228 14.0104 52.3312 22.151 47.423C22.9224 46.9574 23.7273 46.5558 24.5572 46.2116C24.3828 47.7861 24.357 49.3877 24.4974 51.0024C24.6034 52.2266 25.7488 53.1376 27.0565 53.0376C28.3641 52.9375 29.3385 51.8638 29.2317 50.6402C28.5461 42.7242 32.552 35.1354 39.6857 30.833C46.8145 26.5339 55.8476 26.2612 63.258 30.1217C64.2099 30.6171 65.3694 30.435 66.1002 29.7445C66.2494 29.6034 66.3809 29.442 66.489 29.2601C67.1267 28.1866 66.7153 26.832 65.5692 26.2355C64.0588 25.4487 62.4911 24.8078 60.8893 24.3041C61.569 23.7363 62.2949 23.2152 63.0684 22.7489C67.0122 20.3705 71.7071 19.5723 76.2897 20.5011C80.871 21.43 84.7922 23.9733 87.3292 27.6637Z" fill="#E2E2E2"/>
</svg>
