<svg width="201" height="168" viewBox="0 0 201 168" fill="none" xmlns="http://www.w3.org/2000/svg">
<path d="M142.17 165.194C143.167 164.589 144.138 163.921 145.099 163.182C163.743 148.838 153.592 128.378 153.592 128.378C172.281 125.698 155.133 99.2102 155.133 99.2102C172.566 90.5916 139.64 56.3046 113.562 47.4901C87.4751 38.6757 40.509 45.9762 49.1277 63.4012C49.1277 63.4012 19.4433 74.0496 32.6736 87.5211C32.6736 87.5211 32.4062 87.6543 31.9438 87.9218C28.3647 89.9787 12.8907 100.208 18.3219 120.339C27.0566 152.731 45.4588 165.195 45.4588 165.195C45.4588 165.195 86.7598 165.195 100.269 165.195L142.17 165.194Z" fill="#F8D4AE"/>
<path d="M18.3126 120.337C27.0563 152.729 77.9487 152.871 77.9487 152.871C77.9487 152.871 87.4486 160.074 100.27 165.193H142.17C143.168 164.587 144.138 163.92 145.099 163.18C163.744 148.837 153.594 128.377 153.594 128.377C140.648 134.787 129.118 136.087 115.816 126.4C107.117 120.044 108.996 100.376 97.0563 96.3426C85.1078 92.3093 74.6724 109.083 63.8998 108.852C47.4548 108.496 39.0682 100.465 32.6661 87.519C32.6661 87.519 12.1869 97.6335 18.3126 120.337Z" fill="#FFF1E6"/>
<path d="M137.14 153.891C145.884 150.795 150.462 141.196 147.366 132.452C144.27 123.708 134.671 119.13 125.927 122.226C117.183 125.322 112.605 134.921 115.701 143.665C118.797 152.409 128.395 156.987 137.14 153.891Z" fill="#FD9DB4"/>
<path d="M61.3029 98.0054C59.944 102.028 61.8124 106.291 65.4758 107.53C69.1392 108.767 73.2115 106.511 74.5704 102.488C75.9293 98.4659 74.0609 94.2024 70.3975 92.964C66.7332 91.7265 62.6619 93.983 61.3029 98.0054Z" fill="#5F5C5D"/>
<path d="M111.203 114.866C109.844 118.888 111.713 123.152 115.376 124.39C119.04 125.627 123.112 123.371 124.471 119.348C125.83 115.326 123.961 111.062 120.298 109.824C116.634 108.587 112.562 110.844 111.203 114.866Z" fill="#5F5C5D"/>
<path d="M100.268 122.351C99.9054 123.394 99.4049 124.343 98.7948 125.199C96.853 127.934 93.8233 129.662 90.5388 129.977C88.936 130.129 87.267 129.95 85.6397 129.37C80.204 127.462 77.1063 121.872 78.1697 116.375C78.2712 115.827 78.4199 115.275 78.6139 114.73C79.1107 113.319 79.7834 112.277 80.592 111.527C82.1794 110.09 84.298 109.774 86.7204 110.087C88.3413 110.298 90.1073 110.802 91.9449 111.453C96.5148 113.059 100.191 115.084 100.73 118.623C100.906 119.718 100.762 120.949 100.268 122.351Z" fill="#5F5C5D"/>
<path d="M91.1544 128.55C90.9776 129.045 90.7691 129.519 90.5398 129.977C88.937 130.129 87.268 129.949 85.6407 129.369C80.205 127.462 77.1073 121.871 78.1707 116.375C79.6393 116.618 81.2049 117.073 82.8268 117.642C87.4022 119.258 91.0692 121.281 91.6095 124.82C91.7872 125.907 91.6485 127.147 91.1544 128.55Z" fill="#E27FA3"/>
<path d="M89.4567 132.185C87.931 132.185 86.4007 131.926 84.9185 131.404C77.8274 128.907 74.0896 121.108 76.5863 114.017C78.1456 109.587 81.217 108.259 83.5188 107.926C84.6964 107.754 85.7888 108.57 85.9592 109.747C86.1297 110.925 85.3147 112.017 84.1379 112.188C82.9893 112.354 81.5543 112.876 80.6486 115.447C78.9406 120.298 81.498 125.634 86.349 127.342C88.6988 128.17 91.2309 128.033 93.4773 126.956C95.7238 125.88 97.4172 123.993 98.2449 121.643C99.0273 119.419 98.5196 118.242 98.069 117.552C97.4199 116.555 97.701 115.221 98.6982 114.572C99.6954 113.923 101.029 114.205 101.678 115.2C103.143 117.449 103.355 120.098 102.308 123.073C101.099 126.508 98.6238 129.267 95.3403 130.841C93.4701 131.734 91.4684 132.185 89.4567 132.185Z" fill="#F8D4AE"/>
<path d="M101.677 115.199C100.116 112.803 97.3258 111.26 94.6523 110.167L96.3757 105.067C96.7565 103.94 96.1518 102.718 95.0249 102.337C93.8981 101.957 92.676 102.562 92.2953 103.688L90.5882 108.74C87.7108 107.892 85.478 107.64 83.5198 107.926C82.3431 108.097 81.5272 109.189 81.6985 110.367C81.8699 111.544 82.9632 112.359 84.1399 112.187C85.7971 111.948 88.0499 112.356 91.2319 113.476C93.5618 114.297 96.8054 115.612 98.0692 117.551C98.4816 118.185 99.1715 118.53 99.875 118.53C100.278 118.53 100.685 118.416 101.049 118.18C102.045 117.529 102.326 116.195 101.677 115.199Z" fill="#D3A98C"/>
<path d="M91.2562 100.043C92.6614 99.3371 94.373 99.9028 95.0792 101.308L95.2496 101.648L95.5896 101.477C96.9947 100.77 98.7063 101.336 99.4125 102.741C100.119 104.146 99.5531 105.858 98.1479 106.564L96.9412 107.171C94.6105 108.343 91.7702 107.404 90.5981 105.073L89.9916 103.866C89.2854 102.461 89.851 100.75 91.2562 100.043Z" fill="#E27FA3"/>
<path d="M136.823 21.8481L153.142 4.87552C156.632 1.24657 162.438 1.24657 165.927 4.87552L182.246 21.8481C183.834 23.4999 184.721 25.7028 184.721 27.9946V156.33C184.721 161.227 180.751 165.198 175.854 165.198H143.216C138.318 165.198 134.348 161.228 134.348 156.33V27.9937C134.348 25.7028 135.235 23.4999 136.823 21.8481Z" fill="#A3D676"/>
<path d="M137.89 165.976C134.497 164.094 132.194 160.475 132.194 156.329V27.9945C132.194 25.1316 133.287 22.4192 135.271 20.3559L151.59 3.38237C153.687 1.20119 156.509 0 159.535 0C162.561 0 165.383 1.20119 167.48 3.38237L183.799 20.3559C185.783 22.4192 186.876 25.1316 186.876 27.9945V156.329C186.876 160.696 184.323 164.478 180.631 166.26C179.184 166.958 139.469 166.851 137.89 165.976ZM159.535 4.30706C157.692 4.30706 155.972 5.03865 154.695 6.36767L138.376 23.3403C137.168 24.5968 136.502 26.2494 136.502 27.9936V156.328C136.502 160.03 139.515 163.043 143.217 163.043H175.856C179.558 163.043 182.57 160.03 182.57 156.328V27.9945C182.57 26.2503 181.905 24.5977 180.695 23.3412L164.376 6.36767C163.097 5.03865 161.378 4.30706 159.535 4.30706Z" fill="#87B758"/>
<path d="M162.459 146.468C166.327 144.856 168.156 140.414 166.544 136.546C164.933 132.678 160.491 130.849 156.623 132.46C152.755 134.072 150.926 138.514 152.537 142.382C154.149 146.25 158.591 148.079 162.459 146.468Z" fill="white"/>
<path d="M167.022 50.5047C167.695 46.369 164.888 42.4709 160.752 41.7979C156.617 41.125 152.719 43.9321 152.046 48.0678C151.373 52.2035 154.18 56.1017 158.316 56.7746C162.451 57.4476 166.349 54.6405 167.022 50.5047Z" fill="white"/>
<path d="M159.535 59.0187C154.165 59.0187 149.795 54.6491 149.795 49.2786C149.795 43.9082 154.165 39.5386 159.535 39.5386C164.905 39.5386 169.275 43.9082 169.275 49.2786C169.276 54.6491 164.906 59.0187 159.535 59.0187ZM159.535 43.8447C156.539 43.8447 154.102 46.2825 154.102 49.2786C154.102 52.2739 156.54 54.7117 159.535 54.7117C162.531 54.7117 164.969 52.2739 164.969 49.2786C164.969 46.2825 162.531 43.8447 159.535 43.8447Z" fill="#E2E2E2"/>
<path d="M64.0877 44.5693L64.5509 21.0287C64.6497 15.9955 68.9142 12.0547 73.9393 12.3511L97.4436 13.7382C99.7309 13.8733 101.878 14.8886 103.433 16.5712L190.543 110.814C193.867 114.411 193.646 120.021 190.05 123.346L166.081 145.499C162.485 148.824 156.874 148.603 153.55 145.006L66.4402 50.763C64.8864 49.0804 64.0423 46.8602 64.0877 44.5693Z" fill="#A3D676"/>
<path d="M160.068 150.003C157.1 150.003 154.14 148.814 151.971 146.467L64.8602 52.2242C62.9175 50.1228 61.8786 47.3886 61.9348 44.5266L62.398 20.986C62.4579 17.9608 63.7144 15.1632 65.9363 13.1098C68.1583 11.0555 71.0457 10.0212 74.0663 10.2007L97.5707 11.5877C100.428 11.7563 103.072 13.0064 105.015 15.1088L192.125 109.351C196.25 113.814 195.975 120.801 191.512 124.926L167.543 147.079C165.428 149.036 162.745 150.003 160.068 150.003ZM73.4064 14.4878C71.7147 14.4878 70.1138 15.1124 68.86 16.2719C67.5065 17.5229 66.7404 19.2273 66.7042 21.0703L66.2409 44.6109C66.2065 46.3542 66.8393 48.0196 68.0232 49.3005L155.134 143.544C157.647 146.262 161.903 146.43 164.622 143.917L188.589 121.764C191.308 119.251 191.476 114.994 188.963 112.276L101.852 18.0324C100.669 16.7514 99.0584 15.9899 97.3169 15.8866L73.8125 14.4996C73.6774 14.4914 73.5415 14.4878 73.4064 14.4878Z" fill="#87B758"/>
<path d="M155.013 120.657C152.17 117.58 152.358 112.78 155.435 109.936C158.512 107.092 163.312 107.28 166.156 110.357C169 113.434 168.811 118.234 165.734 121.078C162.658 123.923 157.857 123.734 155.013 120.657Z" fill="white"/>
<path d="M93.8142 54.4458C90.9703 51.369 91.1589 46.5687 94.2358 43.7249C97.3126 40.881 102.113 41.0696 104.957 44.1464C107.801 47.2233 107.612 52.0235 104.535 54.8674C101.458 57.7122 96.6581 57.5227 93.8142 54.4458Z" fill="white"/>
<path d="M160.588 125.243C157.964 125.243 155.349 124.192 153.431 122.119C149.786 118.174 150.029 112 153.973 108.354C157.917 104.709 164.092 104.953 167.736 108.896C169.502 110.806 170.419 113.291 170.316 115.89C170.214 118.49 169.106 120.894 167.195 122.66C165.325 124.388 162.953 125.243 160.588 125.243ZM156.593 119.195C158.627 121.395 162.072 121.53 164.271 119.497C165.337 118.512 165.956 117.171 166.013 115.72C166.07 114.271 165.558 112.885 164.573 111.818C162.54 109.618 159.095 109.483 156.895 111.517C154.696 113.551 154.56 116.995 156.593 119.195Z" fill="#E2E2E2"/>
<path d="M99.3877 59.0324C96.7642 59.0324 94.1487 57.9817 92.2313 55.9084C90.4654 53.9983 89.5489 51.5134 89.6513 48.9143C89.7537 46.3152 90.8625 43.9101 92.7726 42.1441C94.6827 40.3781 97.1658 39.4679 99.7667 39.564C102.366 39.6665 104.771 40.7752 106.537 42.6853C110.182 46.6288 109.939 52.8034 105.996 56.4496C104.126 58.1775 101.754 59.0324 99.3877 59.0324ZM99.3796 43.8629C98.0098 43.8629 96.7088 44.3715 95.6971 45.3071C94.631 46.2916 94.0127 47.6333 93.9556 49.0838C93.8985 50.5343 94.4098 51.9195 95.3943 52.9856C97.4278 55.1868 100.873 55.3209 103.072 53.2875C105.272 51.2541 105.407 47.8092 103.374 45.6099C102.388 44.5438 101.048 43.9255 99.5971 43.8684C99.5255 43.8647 99.4521 43.8629 99.3796 43.8629Z" fill="#E2E2E2"/>
<path d="M16.428 21.8481L32.7469 4.87552C36.2363 1.24657 42.0428 1.24657 45.5312 4.87552L61.8502 21.8481C63.4385 23.4999 64.326 25.7028 64.326 27.9946V156.33C64.326 161.227 60.3562 165.198 55.458 165.198H22.8201C17.9229 165.198 13.9521 161.228 13.9521 156.33V27.9937C13.9531 25.7028 14.8397 23.4999 16.428 21.8481Z" fill="#A3D676"/>
<path d="M17.8683 166.173C14.272 164.356 11.7998 160.626 11.7998 156.329V27.9945C11.7998 25.1316 12.8922 22.4192 14.8767 20.3559L31.1956 3.38237C33.2934 1.20119 36.1146 0 39.1407 0C42.1668 0 44.988 1.20119 47.0858 3.38237L63.4048 20.3559C65.3883 22.4183 66.4816 25.1316 66.4816 27.9945V156.329C66.4816 161.045 63.5045 165.078 59.3307 166.649C58.125 167.101 19.3578 166.926 17.8683 166.173ZM39.1407 4.30706C37.2977 4.30706 35.5779 5.03865 34.3006 6.36767L17.9816 23.3403C16.7732 24.5968 16.1069 26.2503 16.1069 27.9936V156.328C16.1069 160.03 19.1194 163.043 22.8209 163.043H55.4597C59.1621 163.043 62.1737 160.03 62.1737 156.328V27.9945C62.1737 26.2503 61.5082 24.5977 60.2998 23.3412L43.9809 6.36767C42.7026 5.03865 40.9837 4.30706 39.1407 4.30706Z" fill="#87B758"/>
<path d="M44.5025 144.806C47.4654 141.843 47.4654 137.039 44.5025 134.076C41.5396 131.113 36.7358 131.113 33.773 134.076C30.8101 137.039 30.8101 141.843 33.773 144.806C36.7358 147.769 41.5396 147.769 44.5025 144.806Z" fill="white"/>
<path d="M46.5329 51.0171C47.4992 46.9396 44.9771 42.8509 40.8996 41.8846C36.8221 40.9184 32.7334 43.4405 31.7671 47.518C30.8009 51.5955 33.323 55.6842 37.4005 56.6504C41.4779 57.6167 45.5667 55.0946 46.5329 51.0171Z" fill="white"/>
<path d="M39.1404 149.18C33.77 149.18 29.4004 144.811 29.4004 139.44C29.4004 134.07 33.77 129.7 39.1404 129.7C44.5109 129.7 48.8805 134.07 48.8805 139.44C48.8805 144.811 44.5109 149.18 39.1404 149.18ZM39.1404 134.006C36.1443 134.006 33.7065 136.444 33.7065 139.439C33.7065 142.436 36.1443 144.872 39.1404 144.872C42.1366 144.872 44.5735 142.435 44.5735 139.439C44.5735 136.444 42.1357 134.006 39.1404 134.006Z" fill="#E2E2E2"/>
<path d="M39.1404 59.0187C33.77 59.0187 29.4004 54.6491 29.4004 49.2786C29.4004 43.9082 33.77 39.5386 39.1404 39.5386C44.5109 39.5386 48.8805 43.9082 48.8805 49.2786C48.8805 54.6491 44.5109 59.0187 39.1404 59.0187ZM39.1404 43.8447C36.1443 43.8447 33.7065 46.2825 33.7065 49.2786C33.7065 52.2739 36.1443 54.7117 39.1404 54.7117C42.1366 54.7117 44.5735 52.2739 44.5735 49.2786C44.5735 46.2825 42.1357 43.8447 39.1404 43.8447Z" fill="#E2E2E2"/>
<path d="M197.915 167.347H2.15308C0.963672 167.347 0 166.383 0 165.194C0 164.005 0.964579 163.041 2.15308 163.041H197.915C199.104 163.041 200.068 164.006 200.068 165.194C200.068 166.383 199.103 167.347 197.915 167.347Z" fill="#AB8D96"/>
<path d="M127.842 132.923C130.473 140.11 135.128 145.013 142.316 142.382C149.503 139.751 153.196 131.792 150.564 124.604C147.934 117.417 139.974 113.724 132.787 116.356C125.6 118.986 125.211 125.736 127.842 132.923Z" fill="#F8D4AE"/>
<path d="M138.556 145.251C136.212 145.251 134.021 144.515 132.078 143.057C129.499 141.12 127.394 137.96 125.821 133.664C124.248 129.368 123.815 125.596 124.534 122.452C125.411 118.62 128.008 115.813 132.047 114.334C136.063 112.864 140.412 113.045 144.291 114.846C148.17 116.646 151.116 119.849 152.587 123.865C154.057 127.881 153.876 132.229 152.076 136.109C150.275 139.988 147.072 142.934 143.056 144.405C141.513 144.97 140.006 145.251 138.556 145.251ZM137.559 117.658C136.202 117.658 134.841 117.897 133.528 118.378C130.852 119.358 129.284 121.004 128.733 123.411C128.209 125.697 128.601 128.73 129.865 132.183C131.129 135.635 132.788 138.204 134.664 139.612C136.639 141.095 138.901 141.341 141.576 140.359C144.512 139.284 146.854 137.131 148.169 134.295C149.486 131.458 149.618 128.28 148.544 125.344C147.468 122.409 145.315 120.066 142.479 118.751C140.91 118.024 139.237 117.658 137.559 117.658Z" fill="#D3A98C"/>
<path d="M76.5012 140.13C74.9628 132.632 71.0845 127.094 63.5873 128.634C56.09 130.172 51.2599 137.498 52.7983 144.995C54.3367 152.492 61.6626 157.323 69.1599 155.784C76.6571 154.245 78.0406 147.627 76.5012 140.13Z" fill="#F8D4AE"/>
<path d="M66.3686 158.222C58.9276 158.222 52.2417 152.995 50.6888 145.427C49.8285 141.238 50.6516 136.965 53.0059 133.395C55.3603 129.825 58.9648 127.384 63.154 126.525C70.9295 124.928 76.5647 129.73 78.6108 139.698C80.6569 149.666 77.3697 156.298 69.5923 157.894C68.5108 158.114 67.4311 158.222 66.3686 158.222ZM65.919 130.539C65.3143 130.539 64.6806 130.607 64.0188 130.742C60.9565 131.37 58.322 133.154 56.6004 135.764C54.8798 138.374 54.2779 141.499 54.9061 144.562C56.2034 150.884 62.4033 154.972 68.7248 153.674C74.0454 152.582 75.951 148.17 74.3899 140.563C73.0237 133.901 70.178 130.539 65.919 130.539Z" fill="#D3A98C"/>
</svg>
