<svg width="108" height="115" viewBox="0 0 108 115" fill="none" xmlns="http://www.w3.org/2000/svg">
<path d="M95.3065 50.2266C94.8173 49.1958 94.2551 48.267 93.6795 47.441C91.6175 44.4755 89.3682 42.8588 89.3682 42.8588C91.4551 41.3388 92.3348 39.6988 92.4082 38.0515C92.4506 37.2096 92.2789 36.3722 91.9604 35.5463C89.873 30.1438 81.2448 25.3247 81.2448 25.3247C82.8863 23.0496 82.7498 20.8014 81.3467 18.7062C81.7925 17.8467 82.2176 16.879 82.5419 15.841C83.6254 12.4012 83.614 8.20789 79.6307 4.73034C72.9807 -1.08334 61.9667 0.56183 56.243 8.00619C50.9119 7.28265 45.5331 7.19111 40.9328 7.93689C38.0474 8.40443 34.9764 9.28156 31.8965 10.4545C24.1367 3.15499 11.4103 4.65431 6.50842 13.0027C3.28429 18.4952 5.84591 23.1504 8.61492 26.118C5.25683 30.4132 4.47019 34.5021 8.17221 37.1713C8.17221 37.1713 3.86043 41.8984 2.03477 46.7594C2.03477 46.7594 2.03477 46.7594 2.02908 46.7604C0.558206 50.6807 0.700431 54.6858 6.00985 56.3728C6.00985 56.3728 6.00985 56.3728 6.0052 56.3796C6.00055 56.3863 5.99537 56.393 5.99072 56.3997C5.94676 56.4608 5.85056 56.6014 5.70782 56.8274C4.25091 59.1403 -1.98169 70.2417 7.77035 80.0046C16.3598 88.6012 27.9959 89.2922 38.185 87.4603C37.0999 89.9045 36.5 92.582 36.5 95.3903C36.5 106.887 46.5334 114.138 58.9096 114.138C71.2864 114.138 81.3198 106.887 81.3198 95.3903C81.3198 89.3744 78.5715 83.9559 74.1795 80.1551C81.687 79.3928 90.4729 76.0967 95.1633 65.8368C98.0874 59.431 97.1793 54.1241 95.3065 50.2266Z" fill="#F8D4AE"/>
<path d="M22.3086 15.0356C18.2787 17.3629 14.5922 20.0316 11.725 22.7474C10.6828 20.2525 10.5266 17.5036 12.8297 15.2006C15.6121 12.4114 19.2495 13.3129 22.3086 15.0356Z" fill="#FFF1E6"/>
<path d="M82.5419 15.8408C82.2963 16.6218 81.9953 17.3671 81.6694 18.0523L70.6084 11.9625C72.8954 9.67082 75.8366 8.09755 79.0856 9.72409C81.7429 11.0589 82.575 13.3956 82.5419 15.8408Z" fill="#FFF1E6"/>
<path d="M7.77081 80.0036C26.8182 99.0665 60.849 79.2578 60.849 79.2578C60.849 79.2578 85.9346 86.0221 95.1637 65.8358C98.858 57.7419 96.4324 51.3919 93.6794 47.4401C91.6174 44.4745 89.3682 42.8578 89.3682 42.8578C91.455 41.3378 92.3347 39.6978 92.4082 38.0506L92.1677 38.1137C87.754 41.8069 82.4405 43.5219 75.0292 42.4554C67.9769 41.4324 62.9927 29.351 54.7597 30.6859C46.5261 32.0207 45.4519 44.7559 39.2467 48.2567C17.0196 60.7814 8.43333 53.2398 2.03575 46.7584C2.03575 46.7584 2.03575 46.7584 2.03006 46.7594C0.559182 50.6797 0.701408 54.6848 6.01083 56.3719C6.01083 56.3719 6.01083 56.3719 6.00618 56.3786C6.00152 56.3853 5.99635 56.392 5.9917 56.3987C5.94773 56.4598 5.85154 56.601 5.7088 56.8265C4.25137 59.1393 -1.98123 70.2407 7.77081 80.0036Z" fill="#FFF1E6"/>
<path d="M76.8473 46.201C77.8284 52.2542 82.9858 56.4604 88.3702 55.5874C91.4521 55.0878 93.9351 53.032 95.3067 50.2258C94.8174 49.1955 94.2552 48.2661 93.6796 47.4402C91.6176 44.4747 89.3684 42.8579 89.3684 42.8579C91.4552 41.3379 92.3349 39.6979 92.4084 38.0507C92.4508 37.2087 92.2791 36.3714 91.9605 35.5455C89.9223 33.9784 87.3901 33.2311 84.814 33.6484C79.4296 34.5219 75.8652 40.1422 76.8473 46.201Z" fill="#FD9DB4"/>
<path d="M94.6874 46.7401C93.4674 44.9853 92.1863 43.6779 91.2864 42.8602C92.9657 41.2621 93.7544 39.4349 93.6329 37.4132C93.4591 34.518 91.3862 31.4051 87.4712 28.1618C85.722 26.7127 84.0055 25.5728 82.9365 24.9066C83.9719 22.8632 83.9093 20.7262 82.7472 18.6466C85.5379 12.8128 84.7301 7.56388 80.439 3.81067C77.174 0.954253 72.8276 -0.367162 68.2019 0.0879613C63.3331 0.567392 58.8227 2.96817 55.7118 6.70225C50.3295 6.03095 45.0883 6.01904 40.7362 6.725C38.0619 7.1584 35.1542 7.95591 32.1747 9.04717C28.1066 5.51996 22.7428 3.94565 17.3357 4.71988C12.2119 5.45428 7.88048 8.24604 5.45126 12.3809C2.78827 16.9223 3.36131 21.7896 7.04212 26.18C5.86346 27.836 5.07216 29.4377 4.71944 30.9308C4.12934 33.4288 4.72306 35.6098 6.43702 37.3077C5.63331 38.2774 4.36569 39.9009 3.16427 41.8284C0.476456 46.1423 -0.506196 49.7496 0.243722 52.5517C0.767114 54.5083 2.09214 55.9921 4.18933 56.9778C3.23926 58.6525 1.772 61.7411 1.31843 65.4731C0.622819 71.1921 2.55399 76.5171 6.90352 80.8707C12.2781 86.25 19.2854 89.1467 27.7311 89.4814C28.286 89.5036 28.8456 89.5145 29.4114 89.5145C35.1941 89.5145 41.5322 88.3668 48.2778 86.0953C48.9202 85.8792 49.2656 85.183 49.0495 84.5407C48.8333 83.8983 48.1371 83.5534 47.4948 83.7691C26.328 90.8964 14.6825 85.1835 8.64022 79.1366C-0.199506 70.2871 4.95683 60.324 6.74784 57.4816C6.8999 57.2406 6.98058 57.1273 6.98575 57.12L7.0054 57.0931C7.2371 56.774 7.30123 56.3634 7.17814 55.989C7.05505 55.6145 6.75974 55.3218 6.38426 55.2023C4.26018 54.5264 3.02773 53.4527 2.61657 51.9187C1.45652 47.5919 6.89007 40.4025 9.08138 37.9976C9.31722 37.739 9.43152 37.392 9.39583 37.044C9.35963 36.6959 9.17655 36.3794 8.89313 36.1751C7.23245 34.9778 6.64906 33.4469 7.11039 31.4956C8.00357 27.715 12.6515 22.7396 19.544 18.1869C26.5017 13.5906 34.5719 10.2119 41.1319 9.14853C47.6903 8.08571 56.4137 8.74151 64.4667 10.9044C72.4448 13.0471 78.4266 16.2991 80.4674 19.6034C81.5209 21.3091 81.4506 22.946 80.2523 24.6072C80.0475 24.8911 79.9735 25.249 80.0495 25.5909C80.125 25.9327 80.3433 26.226 80.649 26.3967C83.4883 27.9829 90.9161 33.0808 91.1856 37.5606C91.2807 39.1458 90.4512 40.5546 88.6493 41.8667C88.3317 42.0984 88.145 42.4682 88.1456 42.8612C88.1461 43.2543 88.3359 43.6241 88.6539 43.8542C88.6746 43.8698 90.7718 45.4037 92.6761 48.1427C95.2165 51.7899 97.518 57.7319 94.0513 65.3262C92.2561 69.2532 89.6904 72.3925 86.4254 74.6562C85.8684 75.0426 85.7298 75.807 86.1161 76.364C86.5025 76.921 87.2669 77.0596 87.8239 76.6733C91.4561 74.1546 94.3026 70.6806 96.284 66.3461C100.228 57.6977 97.5925 50.9102 94.6874 46.7401ZM18.188 16.1383C14.1927 18.7775 10.9339 21.5382 8.6004 24.2126C5.84122 20.72 5.49212 17.1634 7.56758 13.6237C9.61564 10.1374 13.3032 7.778 17.6832 7.15013C21.9365 6.53985 26.1578 7.60267 29.5386 10.0815C25.6841 11.6946 21.7881 13.7603 18.188 16.1383ZM65.1003 8.53308C62.9804 7.96365 60.8134 7.49561 58.6469 7.13151C61.2659 4.54558 64.7336 2.89628 68.4424 2.53063C72.3859 2.14119 76.0729 3.25262 78.8223 5.65753C82.6267 8.9851 82.3288 13.0941 81.0405 16.4145C77.9824 13.2855 72.3549 10.4813 65.1003 8.53308Z" fill="#D3A98C"/>
<path d="M16.765 55.9403C15.7829 49.883 19.8976 44.1759 25.9554 43.1937C32.0132 42.2116 37.7198 46.3263 38.7014 52.3841C39.6836 58.4419 35.5688 64.1485 29.5116 65.1301C23.4538 66.1123 17.7471 61.9981 16.765 55.9403Z" fill="#FD9DB4"/>
<path d="M74.7215 31.6222C75.1311 34.1476 73.4156 36.5267 70.8902 36.9363C68.3647 37.3459 65.9857 35.6304 65.5761 33.105C65.1665 30.5796 66.882 28.2005 69.4074 27.7909C71.9328 27.3813 74.3124 29.0968 74.7215 31.6222Z" fill="#5F5C5D"/>
<path d="M43.6511 36.6593C44.0608 39.1847 42.3452 41.5638 39.8198 41.9734C37.2944 42.383 34.9154 40.6675 34.5058 38.1421C34.0961 35.6167 35.8117 33.2376 38.3371 32.828C40.8625 32.4184 43.2415 34.1339 43.6511 36.6593Z" fill="#5F5C5D"/>
<path d="M68.1251 43.4157C68.4613 45.3505 67.2666 47.3474 65.113 48.9258C63.367 50.1945 60.9911 51.2009 58.282 51.671C52.9938 52.5895 48.214 51.1787 46.68 48.4686C46.4623 48.0812 46.3082 47.6561 46.2321 47.2175C45.6229 43.7095 50.4001 42.1445 56.445 41.0946C62.4909 40.0447 67.5159 39.9071 68.1251 43.4157Z" fill="#5F5C5D"/>
<path d="M65.1127 48.9259C63.3667 50.1945 60.9907 51.201 58.2817 51.6711C52.9935 52.5896 48.2137 51.1787 46.6797 48.4687C48.4257 47.2 50.8022 46.1936 53.5107 45.7235C58.7989 44.8049 63.5792 46.2158 65.1127 48.9259Z" fill="#E27FA3"/>
<path d="M55.0679 53.1856C49.7905 53.1856 45.6354 50.9395 45.0252 47.4283C44.7774 46.0024 45.0681 43.9678 47.8578 42.3718C48.4458 42.0351 49.1957 42.2394 49.5324 42.8279C49.8691 43.4165 49.6648 44.1659 49.0763 44.5026C47.4089 45.4562 47.3277 46.3422 47.443 47.0078C47.9276 49.7985 52.7954 51.3822 58.0722 50.4652C63.349 49.5487 67.3981 46.4172 66.9135 43.6264C66.8049 43.0007 66.4661 42.2357 64.8003 41.8711C64.1383 41.7263 63.7188 41.0716 63.8636 40.4096C64.0084 39.7476 64.6637 39.3281 65.3252 39.4729C68.2111 40.1044 69.097 41.8515 69.3324 43.206C70.0693 47.449 65.3081 51.6997 58.4932 52.883C57.3171 53.0878 56.1674 53.1856 55.0679 53.1856Z" fill="#F8D4AE"/>
<path d="M65.3257 39.4741C63.4741 39.0691 61.0149 39.1327 57.4603 39.684L56.8676 36.0265C56.759 35.3573 56.1291 34.9022 55.4598 35.0113C54.7906 35.1194 54.336 35.7498 54.4446 36.419L55.0419 40.1035C51.7107 40.7417 49.4646 41.4533 47.8582 42.3724C47.2697 42.7091 47.0659 43.4585 47.4026 44.047C47.6291 44.4432 48.0434 44.6651 48.469 44.6651C48.6759 44.6651 48.8854 44.6128 49.0772 44.5027C50.5895 43.6374 52.9975 42.9387 56.6556 42.3031C59.077 41.8826 62.5556 41.3804 64.8007 41.8717C65.4627 42.0171 66.1169 41.5976 66.2623 40.9351C66.4071 40.2731 65.9876 39.6189 65.3257 39.4741Z" fill="#D3A98C"/>
<path d="M52.5139 34.6399C53.1169 33.7923 54.293 33.5937 55.1407 34.1967L55.3455 34.3426L55.4913 34.1377C56.0944 33.2901 57.2704 33.0915 58.1181 33.6945C58.9658 34.2976 59.1644 35.4736 58.5613 36.3213L58.0436 37.0495C57.0429 38.4562 55.0915 38.7852 53.6848 37.7849L52.9566 37.2672C52.1095 36.6642 51.9109 35.4876 52.5139 34.6399Z" fill="#E27FA3"/>
<path d="M79.7833 46.9717C64.8775 46.9717 52.7939 52.4135 52.7939 59.1261C52.7939 60.6476 52.7939 66.241 52.7939 67.7625C52.7939 70.7777 55.2376 73.5348 59.2748 75.6594C61.2204 80.04 65.3765 86.7608 73.7855 91.7816V99.0817V101.001C73.7855 102.493 76.4707 103.702 79.7833 103.702C83.0953 103.702 85.7805 102.493 85.7805 101.001V99.0817V91.7816C94.1889 86.7608 98.3455 80.04 100.291 75.6594C104.328 73.5348 106.772 70.7782 106.772 67.7625C106.772 66.241 106.772 60.6471 106.772 59.1261C106.773 52.4135 94.689 46.9717 79.7833 46.9717Z" fill="#FFFFA1"/>
<path d="M73.5012 54.4161C72.5532 53.5328 71.1625 53.7738 70.0025 54.4399L66.2032 56.6488C65.6498 56.9788 65.3726 57.4732 65.3726 58.1218C65.3493 58.9818 66.0734 60.0245 66.9868 59.995C67.2697 59.995 67.5463 59.9185 67.8174 59.7597L69.7139 58.6405V64.4014C71.057 64.6843 72.5175 64.9196 74.0846 65.0846V55.9599C74.0846 55.3114 73.8901 54.7988 73.5012 54.4161Z" fill="#63D3D6"/>
<path d="M95.0574 62.9097C94.9338 58.421 93.3021 54.9398 88.6899 54.8633C83.8712 54.9398 82.328 58.6863 82.3047 63.4279C82.3047 64.0992 82.3342 64.7358 82.3988 65.3306C83.8831 65.2597 85.2852 65.1304 86.6046 64.9536C86.5751 64.441 86.5632 63.9171 86.5513 63.4279C86.6046 61.1073 86.6159 58.1914 88.6893 58.1619C89.4491 58.1619 89.9911 58.5741 90.3267 59.3928C90.6567 60.2177 90.8217 61.5603 90.8217 63.4279C90.8217 63.6927 90.816 63.9461 90.816 64.1876C92.4131 63.8111 93.8265 63.3751 95.0574 62.9097Z" fill="#A3D676"/>
<path d="M79.7814 104.929C75.0388 104.929 72.5574 102.954 72.5574 101.004V92.4747C64.405 87.4161 60.2298 80.8391 58.1543 76.1601L60.3984 75.165C62.3792 79.6315 66.4189 85.9577 74.4136 90.7308C74.7844 90.9526 75.0119 91.3524 75.0119 91.7848V101.004C75.0119 101.37 76.7037 102.474 79.7814 102.474C82.8628 102.474 84.5566 101.37 84.5566 101.004V91.7848C84.5566 91.3524 84.7836 90.9526 85.155 90.7308C93.146 85.9597 97.1842 79.6356 99.1645 75.1707L101.409 76.1658C99.3341 80.8432 95.1604 87.4182 87.0117 92.4742V101.003C87.0112 102.954 84.5276 104.929 79.7814 104.929Z" fill="#F9CB71"/>
<path d="M79.784 81.1454C63.9617 81.1454 51.5674 75.2676 51.5674 67.7632V59.1268C51.5674 51.6229 63.9617 45.7451 79.784 45.7451C95.6062 45.7451 108 51.6229 108 59.1268V67.7632C108.001 75.2676 95.6062 81.1454 79.784 81.1454ZM79.784 48.1997C72.7451 48.1997 66.1463 49.4254 61.2036 51.6514C56.6394 53.7067 54.0219 56.4312 54.0219 59.1268V67.7632C54.0219 70.4588 56.6394 73.1833 61.2036 75.2386C66.1463 77.4646 72.7446 78.6903 79.784 78.6903C86.8229 78.6903 93.4216 77.4646 98.3639 75.2386C102.928 73.1833 105.545 70.4583 105.545 67.7632V59.1268C105.545 56.4312 102.928 53.7067 98.3639 51.6514C93.4216 49.4254 86.8229 48.1997 79.784 48.1997Z" fill="#F9CB71"/>
<path d="M79.7973 66.622C77.8387 66.622 75.878 66.5175 73.9722 66.306C70.9089 66.0624 67.1774 65.2013 63.9859 64.0009C60.2435 62.5931 58.0739 61.0886 57.5361 59.5293C57.3152 58.8885 57.6555 58.1898 58.2963 57.9689C58.9366 57.7476 59.6358 58.0879 59.8567 58.7292C60.378 60.2409 67.6548 63.3477 74.1848 63.8612C74.1982 63.8623 74.2111 63.8638 74.2246 63.8654C79.6183 64.4663 85.7154 64.141 90.5335 62.9955C90.547 62.9924 90.5604 62.9893 90.5739 62.9867C94.4972 62.1918 99.365 59.7972 99.7037 58.7742C99.8997 58.1251 100.585 57.7585 101.233 57.9539C101.882 58.1494 102.249 58.8347 102.053 59.4838C101.164 62.4312 93.6159 64.8697 91.0812 65.388C87.6471 66.2015 83.7279 66.6215 79.7973 66.622Z" fill="#F9CB71"/>
<path d="M80.897 21.6253C81.2295 21.9103 81.3956 22.337 81.3956 22.9069C81.3956 24.0778 80.7072 24.6627 79.331 24.6627H71.0969C69.7206 24.6627 69.0322 24.0778 69.0322 22.9069C69.0322 22.3375 69.1983 21.9103 69.5308 21.6253C69.8629 21.3403 70.3852 21.1981 71.0969 21.1981H73.0187V12.6315L71.1206 13.747C70.8517 13.9053 70.575 13.9844 70.29 13.9844C69.3782 14.0118 68.6511 12.9723 68.6764 12.1096C68.6764 11.4611 68.9531 10.9708 69.507 10.6382L73.3037 8.43141C74.4668 7.76631 75.8586 7.5227 76.804 8.40761C77.1914 8.78722 77.3853 9.30183 77.3853 9.94986V21.1981H79.331C80.0431 21.1976 80.565 21.3403 80.897 21.6253Z" fill="#63D3D6"/>
<path d="M88.4273 48.5923C88.7598 48.8773 88.9258 49.3039 88.9258 49.8739C88.9258 51.0448 88.2375 51.6297 86.8612 51.6297H78.6271C77.2509 51.6297 76.5625 51.0448 76.5625 49.8739C76.5625 49.3045 76.7285 48.8773 77.0611 48.5923C77.3931 48.3073 77.9155 48.1651 78.6271 48.1651H80.549V39.5984L78.6509 40.714C78.3815 40.8723 78.1053 40.9514 77.8203 40.9514C76.9085 40.9788 76.1814 39.9393 76.2067 39.0766C76.2067 38.428 76.4834 37.9377 77.0373 37.6052L80.8339 35.3984C81.9971 34.7328 83.3888 34.4897 84.3343 35.3746C84.7216 35.7542 84.9156 36.2688 84.9156 36.9168V48.1651H86.8612C87.5729 48.1651 88.0947 48.3073 88.4273 48.5923Z" fill="#A3D676"/>
<path d="M96.1286 38.9918C95.0368 37.5204 94.4912 35.3932 94.4912 32.6086C94.515 27.8635 96.0593 24.1165 100.875 24.042C105.666 24.1206 107.238 27.8723 107.258 32.6086C107.258 35.3932 106.712 37.5209 105.621 38.9923C103.642 41.9402 98.1069 41.9407 96.1286 38.9918ZM102.512 36.666C102.844 35.8436 103.01 34.4907 103.01 32.6081C103.01 30.7416 102.844 29.3969 102.512 28.5741C102.18 27.7518 101.634 27.3401 100.875 27.3401C98.8045 27.3706 98.789 30.2839 98.7389 32.6081C98.7895 34.9293 98.8045 37.8669 100.875 37.9C101.634 37.9 102.18 37.4888 102.512 36.666Z" fill="#63D3D6"/>
<path d="M83.9421 19.565C82.8503 18.0936 82.3047 15.9664 82.3047 13.1819C82.3285 8.43671 83.8728 4.68971 88.6878 4.61523C93.4785 4.69385 95.0507 8.44551 95.0709 13.1819C95.0709 15.9664 94.5253 18.0941 93.4335 19.5655C91.4558 22.5135 85.9203 22.514 83.9421 19.565ZM90.3257 17.2392C90.6577 16.4169 90.8238 15.0639 90.8238 13.1814C90.8238 11.3148 90.6577 9.97017 90.3257 9.14733C89.9932 8.325 89.4475 7.91332 88.6883 7.91332C86.618 7.94383 86.6025 10.8571 86.5523 13.1814C86.603 15.5025 86.618 18.4401 88.6883 18.4732C89.4475 18.4732 89.9932 18.062 90.3257 17.2392Z" fill="#A3D676"/>
<path d="M103.227 85.6813C106.59 81.7435 107.934 77.3712 103.996 74.0084C100.058 70.6452 94.1402 71.1112 90.777 75.049C87.4137 78.9869 87.8797 84.905 91.8176 88.2683C95.7554 91.631 99.8634 89.6192 103.227 85.6813Z" fill="#F8D4AE"/>
<path d="M96.0218 91.1968C94.2691 91.1968 92.5696 90.5239 91.0211 89.202C86.5749 85.4048 86.0474 78.6985 89.8445 74.2522C91.6837 72.0987 94.252 70.7897 97.0753 70.5673C99.8997 70.3465 102.64 71.2355 104.794 73.0751C108.767 76.4689 108.536 81.3542 104.16 86.4785C102.179 88.7981 100.136 90.2819 98.0869 90.8896C97.3944 91.0949 96.704 91.1968 96.0218 91.1968ZM97.9209 72.9887C97.7042 72.9887 97.4865 72.997 97.2682 73.0146C95.0981 73.1853 93.1245 74.1912 91.7111 75.8462C88.7931 79.2632 89.1986 84.417 92.6156 87.335C94.146 88.6414 95.7068 89.0349 97.3898 88.5359C98.9537 88.0725 100.65 86.8095 102.294 84.884C105.806 80.7724 106.111 77.4267 103.2 74.9416C101.711 73.6699 99.8572 72.9887 97.9209 72.9887Z" fill="#D3A98C"/>
<path d="M47.5686 93.8894C47.5686 93.8894 69.5577 76.7126 76.5439 87.333C83.53 97.9477 59.921 106.913 47.5686 106.913C38.7599 106.913 35.8864 99.8779 36.3358 91.4022C36.4 90.1915 47.5686 93.8894 47.5686 93.8894Z" fill="#F8D4AE"/>
<path d="M47.5686 108.14C43.6696 108.14 40.5995 106.866 38.4434 104.354C36.309 101.867 34.067 96.9263 35.511 87.5114C35.6139 86.8417 38.04 87.2135 37.9371 87.8838C36.9208 94.5105 37.7623 99.792 40.3058 102.755C41.9742 104.7 44.4179 105.685 47.5681 105.685C56.3965 105.685 72.1665 100.723 75.8612 93.8671C76.9256 91.892 76.8134 89.9753 75.5178 88.0069C74.4897 86.4434 73.0586 85.5306 71.144 85.2156C62.5985 83.812 48.4649 94.7453 48.3232 94.856C47.7889 95.2728 47.0178 95.1782 46.6004 94.6439C46.1836 94.1097 46.2782 93.3385 46.812 92.9217C47.4248 92.4428 61.9324 81.2147 71.5402 82.7937C74.1333 83.2198 76.1617 84.52 77.568 86.6586C79.3543 89.3728 79.511 92.2685 78.0215 95.0328C75.4465 99.8106 68.6227 103.035 64.7847 104.532C59.0781 106.757 52.4808 108.14 47.5686 108.14Z" fill="#D3A98C"/>
</svg>
