<svg width="147" height="151" viewBox="0 0 147 151" fill="none" xmlns="http://www.w3.org/2000/svg">
<path d="M121.326 57.4884C121.001 57.257 120.818 57.1433 120.818 57.1433C131.612 48.1282 110.389 38.052 110.389 38.052C113.549 32.9918 109.587 28.5148 102.44 25.3201L106.137 26.145C108.305 22.5065 112.287 13.7044 104.577 7.82203C95.0635 0.553285 79.2321 5.91365 75.838 19.3847L80.5471 20.4355C74.6572 20.0666 68.7837 20.3804 63.799 21.5319C58.8164 22.6835 53.4016 24.9791 48.2706 27.8941L52.0404 24.8839C43.0803 14.2679 26.5085 16.3962 21.1421 27.104C16.7951 35.7727 24.236 41.9348 27.7867 44.2522L30.7364 41.8967C25.7211 47.9002 24.1278 53.6587 29.1887 56.8173C29.1887 56.8173 14.5328 75.1859 28.1876 78.5501C28.1876 78.5501 19.1663 92.9685 31.9308 104.965C39.4602 112.038 49.3969 112.797 58.4658 111.257C49.3255 124.99 47.4797 139.193 56.3574 142.566C59.2553 143.667 64.7049 144.053 70.6737 143.642C75.8265 147.652 83.5376 150.2 92.1573 150.2C107.671 150.2 120.247 141.949 120.247 131.772C120.247 123.344 111.624 116.238 99.8508 114.044C96.458 108.103 89.2151 103.845 80.6485 103.282C81.8082 102.65 82.4541 102.254 82.4541 102.254C82.4541 102.254 120.191 105.886 129.044 82.5227C134.55 67.9975 123.829 59.2784 121.326 57.4884ZM58.7898 112.182L58.5026 111.251C58.9178 111.18 59.3316 111.105 59.7426 111.025C59.4085 111.4 59.0893 111.786 58.7898 112.182Z" fill="#F8D4AE"/>
<path d="M104.568 26.3604C100.347 24.0892 94.581 22.3455 88.3672 21.3178C90.3695 17.2003 95.1125 9.48095 101.546 12.1938C107.614 14.7453 106.044 22.1734 104.568 26.3604Z" fill="#FFF1E6"/>
<path d="M72.451 58.9554C81.6002 56.8408 88.104 70.0395 96.1023 70.6616C108.32 71.6022 115.124 66.2656 120.823 57.1416C120.823 57.1416 135.256 66.1391 129.05 82.5203C120.191 105.886 82.4578 102.252 82.4578 102.252C82.4578 102.252 50.1452 122.074 31.9318 104.965C19.1673 92.9681 28.1885 78.5497 28.1885 78.5497C37.3126 84.2476 45.769 86.0573 56.3345 79.8517C63.2494 75.7838 63.3018 61.0693 72.451 58.9554Z" fill="#FFF1E6"/>
<path d="M87.3353 79.5193C86.5567 81.2174 85.427 82.8059 84.0685 84.0861C82.5712 85.5004 80.7799 86.5546 78.8735 86.995C75.246 87.8199 71.0589 86.4321 68.0405 83.9446C66.0266 82.2996 64.5266 80.1686 64.0257 77.8825C63.8385 77.0134 63.7847 76.1347 63.9134 75.2472C64.905 67.8165 70.5621 71.5598 75.1282 70.5253C79.6929 69.484 83.1654 63.6588 87.2809 69.9216C89.0716 72.6589 88.8292 76.2947 87.3353 79.5193Z" fill="#5F5C5D"/>
<path d="M87.3354 79.5202C86.5568 81.2183 85.427 82.8068 84.0685 84.087C82.5712 85.5013 80.7799 86.5555 78.8736 86.9959C75.246 87.8208 71.059 86.433 68.0405 83.9455C68.8191 82.2481 69.9503 80.6657 71.3074 79.3787C72.8115 77.963 74.596 76.9102 76.5037 76.4759C80.132 75.6517 84.3108 77.034 87.3354 79.5202Z" fill="#E27FA3"/>
<path d="M76.7013 88.8653C73.1404 88.8653 69.2985 87.3442 66.3631 84.6626C63.3249 81.8879 61.8399 78.376 62.289 75.0275L65.5287 75.4624C65.2238 77.7335 66.3318 80.2075 68.5675 82.2493C71.407 84.8423 75.4021 86.1089 78.5117 85.4018C81.62 84.6939 84.6745 81.8218 86.1112 78.2548C87.2424 75.446 87.1702 72.7366 85.9118 70.8214L88.6444 69.0273C90.4983 71.8511 90.68 75.6597 89.1433 79.4765C87.2955 84.063 83.4072 87.6396 79.2372 88.589C78.4212 88.7748 77.5691 88.8653 76.7013 88.8653Z" fill="#F8D4AE"/>
<path d="M88.6448 69.0275C87.4572 67.2192 86.1859 66.1186 84.758 65.664C82.3262 64.8888 80.1327 66.1806 78.1964 67.3199C77.5729 67.6867 76.9379 68.0577 76.3029 68.3626L75.4665 64.7432L72.282 65.4796L73.1157 69.086C72.4147 69.0854 71.6851 69.0261 70.9684 68.9656C68.2937 68.7396 64.6321 68.4306 62.9851 72.3141C62.6584 73.0845 62.4311 73.972 62.2888 75.0276C62.169 75.9219 62.7965 76.7448 63.6909 76.8652C63.765 76.8748 63.8379 76.8795 63.9107 76.8795C64.7165 76.8795 65.4182 76.2833 65.5285 75.4625C65.6292 74.7105 65.7864 74.0802 65.994 73.5895C66.6569 72.0262 67.7465 71.9738 70.6935 72.2222C72.1758 72.3474 73.8562 72.489 75.4876 72.1174C77.1197 71.7458 78.5727 70.891 79.8543 70.1362C81.3951 69.2296 82.725 68.4463 83.7657 68.777C84.4408 68.9921 85.1636 69.6795 85.9123 70.8209C86.4077 71.5757 87.4211 71.7853 88.1759 71.2898C88.9307 70.795 89.1403 69.7816 88.6448 69.0275Z" fill="#D3A98C"/>
<path d="M44.0288 99.8562C50.9368 99.7561 56.4557 94.0748 56.3555 87.1668C56.2553 80.2588 50.5741 74.7399 43.666 74.8401C36.758 74.9403 31.2392 80.6215 31.3393 87.5296C31.4395 94.4376 37.1208 99.9564 44.0288 99.8562Z" fill="#FD9DB4"/>
<path d="M122.801 69.1005C121.245 62.3694 114.528 58.1735 107.796 59.7294C101.065 61.2852 96.8691 68.0027 98.4249 74.7344C99.9808 81.4655 106.699 85.6614 113.43 84.1055C120.161 82.5497 124.357 75.8315 122.801 69.1005Z" fill="#FD9DB4"/>
<path d="M123.338 56.9734C125.029 55.0494 125.74 52.9375 125.452 50.6739C124.657 44.4103 116.193 39.261 112.582 37.3322C113.573 34.8221 113.223 32.2924 111.538 29.9307C110.664 28.7077 109.418 27.5405 107.848 26.4508C109.043 24.3396 110.393 21.3001 110.691 17.9686C111.104 13.3507 109.334 9.39172 105.571 6.5203C100.728 2.82535 94.111 1.92152 87.8679 4.10214C81.1926 6.43454 76.1548 11.8718 74.3349 18.6825C70.3991 18.773 66.6783 19.1882 63.4311 19.9389C55.7486 21.7146 46.5075 26.314 38.7126 32.242C30.5945 38.4157 25.4478 44.8977 24.5916 50.0252C24.1139 52.8865 24.9108 55.3128 26.9029 57.1334C24.5018 60.452 19.153 68.794 21.1866 74.771C21.921 76.9298 23.4857 78.5156 25.8487 79.5025C25.083 81.1529 24.071 83.8161 23.6531 87.0489C23.0025 92.0839 23.7164 99.4861 30.8136 106.156C36.6667 111.654 43.8402 113.557 50.964 113.557C52.3939 113.557 53.8218 113.476 55.2368 113.337C49.8648 122.469 47.7264 131.513 49.6437 137.499C50.6605 140.674 52.7819 142.954 55.7785 144.093C58.1041 144.976 61.8338 145.436 66.1596 145.436C68.7486 145.436 71.5513 145.272 74.3942 144.934C79.4428 144.335 88.7193 142.686 94.1239 138.377C97.8923 135.373 98.3198 132.129 98.0149 129.937C97.4888 126.154 95.0495 123.431 90.9605 122.06C82.1135 119.094 66.8702 123.242 62.6893 127.424C62.0509 128.062 62.0509 129.097 62.6893 129.735C63.327 130.373 64.3622 130.373 65.0006 129.735C68.4716 126.263 82.3646 122.624 89.9212 125.159C92.8355 126.137 94.4234 127.846 94.7773 130.387C95.0543 132.379 94.1743 134.157 92.0862 135.822C88.6009 138.6 82.012 140.738 74.0082 141.689C67.0111 142.52 60.1514 142.259 56.9389 141.038C54.8761 140.254 53.4686 138.729 52.756 136.504C50.9919 130.994 53.6163 121.725 59.4483 112.742C62.7553 112.136 65.9242 111.249 68.7997 110.266L67.742 107.173C57.35 110.727 42.8956 113.022 33.0514 103.775C21.4473 92.8694 29.2388 79.9592 29.5743 79.4181C29.852 78.9736 29.9003 78.423 29.7036 77.9371C29.5069 77.4512 29.0883 77.0898 28.5799 76.9639C26.2346 76.386 24.8285 75.3257 24.282 73.7215C22.6928 69.0567 28.2083 60.6732 30.4672 57.8371C30.7578 57.473 30.879 57.0013 30.8007 56.5419C30.7218 56.0825 30.4509 55.6783 30.0555 55.4312C28.1702 54.2545 27.4583 52.7082 27.8163 50.5643C28.5262 46.3133 33.3393 40.4364 40.6925 34.8446C48.1375 29.1827 56.9138 24.8011 64.1682 23.1248C71.4247 21.4478 81.2341 21.5335 90.4092 23.3548C99.47 25.1529 106.374 28.3218 108.878 31.8302C110.14 33.5998 110.18 35.3013 109.004 37.1858C108.757 37.5813 108.691 38.0631 108.821 38.5103C108.952 38.9574 109.268 39.3277 109.689 39.5278C109.719 39.5421 112.733 40.9815 115.827 43.2179C119.706 46.0206 121.913 48.741 122.211 51.0856C122.425 52.768 121.627 54.3389 119.771 55.8886C119.37 56.2234 119.155 56.7311 119.19 57.2525C119.224 57.7738 119.507 58.2482 119.95 58.5266C119.969 58.5388 120.123 58.6368 120.377 58.8172C121.585 59.6808 124.625 62.1112 126.756 66.0131C129.42 70.8896 129.676 76.2486 127.518 81.9424C124.555 89.7624 117.775 95.2637 107.366 98.293L108.28 101.432C119.727 98.1004 127.228 91.9328 130.574 83.1015C135.901 69.0451 127.027 59.9871 123.338 56.9734ZM77.7365 18.6866C79.453 13.3181 83.5733 9.06572 88.9459 7.18864C94.1484 5.37077 99.6224 6.09288 103.588 9.11949C106.302 11.1905 110.029 15.954 105.043 24.7663C101.378 22.8437 96.6033 21.2518 91.0442 20.1485C86.651 19.276 82.1094 18.7907 77.7365 18.6866Z" fill="#D3A98C"/>
<path d="M76.4754 62.1225C75.4858 61.4956 74.1756 61.7897 73.5488 62.7792L73.397 63.0181L73.1582 62.8664C72.1686 62.2395 70.8584 62.5336 70.2316 63.5231C69.6048 64.5127 69.8988 65.8229 70.8884 66.4497L71.7377 66.988C73.3793 68.028 75.5532 67.54 76.5931 65.8984L77.1315 65.049C77.7583 64.0594 77.4643 62.7493 76.4754 62.1225Z" fill="#E27FA3"/>
<path d="M98.8265 62.8123C99.5384 65.8927 97.8404 68.9152 95.0343 69.5638C92.2282 70.2124 89.3758 68.2414 88.6639 65.1611C87.952 62.0807 89.6501 59.0582 92.4562 58.4096C95.263 57.761 98.1146 59.7327 98.8265 62.8123Z" fill="#5F5C5D"/>
<path d="M60.6022 71.6454C61.3141 74.7257 59.616 77.7483 56.8099 78.3969C54.0031 79.0455 51.1514 77.0745 50.4395 73.9941C49.7276 70.9137 51.4257 67.8912 54.2318 67.2426C57.0379 66.594 59.8903 68.565 60.6022 71.6454Z" fill="#5F5C5D"/>
<path d="M49.1553 5.45322C52.6698 8.74049 54.1399 13.3944 53.507 17.8244C56.7146 20.8244 56.1518 20.2977 61.3896 25.1973C54.3516 41.3668 42.2983 54.2532 26.6432 62.3468C21.4047 57.4472 21.9682 57.974 18.7647 54.978C14.3864 55.9057 9.63722 54.75 6.12195 51.4628C0.401556 46.1126 0.102091 37.139 5.45565 31.4145C6.68072 30.105 8.09228 29.0821 9.6134 28.3457C9.63654 23.9688 11.2461 19.5885 14.4742 16.1372C17.6982 12.6907 21.9567 10.7959 26.3227 10.4808C26.9563 8.91404 27.886 7.43239 29.1111 6.12292C34.4612 0.403206 43.4349 0.103066 49.1553 5.45322Z" fill="white"/>
<path d="M62.5059 24.0034L55.2236 17.192C55.2773 16.5617 55.2991 15.9254 55.2773 15.2836C55.1365 11.0605 53.3587 7.14503 50.2729 4.25863C43.9026 -1.69997 33.872 -1.36444 27.9134 5.00592C26.8135 6.18131 25.9124 7.50439 25.2196 8.9452C20.7249 9.49717 16.4828 11.5975 13.2772 15.0243C10.0702 18.4531 8.2578 22.8266 8.00598 27.3478C6.61621 28.1352 5.3571 29.1221 4.25862 30.2968C-1.69998 36.6672 -1.36443 46.6978 5.00593 52.6564C8.05159 55.5047 11.933 56.9149 15.807 56.9149C16.6223 56.9149 17.437 56.8509 18.2435 56.7263L25.5279 63.5398C25.8376 63.8297 26.2391 63.9808 26.6447 63.9808C26.9006 63.9808 27.1579 63.9209 27.3948 63.7984C43.4139 55.5169 55.6877 42.3944 62.8891 25.8491C63.1641 25.2148 63.0116 24.4757 62.5059 24.0034ZM26.9109 60.3587L21.9214 55.6918C23.9251 54.8561 25.7879 53.5949 27.3648 51.9091C27.7235 51.5259 28.0665 51.1203 28.3857 50.7031C28.9336 49.9857 28.7968 48.9601 28.0794 48.4122C27.3621 47.8643 26.3371 48.0011 25.7885 48.7185C25.5354 49.0499 25.2631 49.3718 24.978 49.6761C20.2506 54.7301 12.2924 54.9963 7.23828 50.2689C2.18419 45.5414 1.91807 37.5839 6.64548 32.5298C7.11577 32.0269 7.62485 31.5695 8.16456 31.1544C8.33471 32.374 8.61852 33.5882 9.02484 34.7812C9.25624 35.4612 9.8919 35.8899 10.5718 35.8899C10.746 35.8899 10.9237 35.862 11.0979 35.8021C11.9527 35.5115 12.4094 34.5832 12.1188 33.7284C10.1676 27.993 11.5253 21.6812 15.6634 17.2573C19.7993 12.8362 26.0043 11.0605 31.8574 12.6245C32.7286 12.8579 33.6249 12.34 33.8583 11.4675C34.0911 10.5956 33.5732 9.69998 32.7014 9.46654C31.4838 9.14121 30.2539 8.93908 29.0261 8.8506C29.4052 8.2823 29.8286 7.74259 30.3002 7.23827C35.0283 2.18418 42.9858 1.91807 48.0399 6.64547C50.488 8.93567 51.8982 12.0419 52.0098 15.3925C52.1214 18.743 50.9222 21.9371 48.632 24.3852C48.3434 24.6935 48.0379 24.9895 47.7227 25.2645C47.0428 25.858 46.9727 26.8904 47.5669 27.5704C47.8902 27.9406 48.3435 28.1298 48.7988 28.1298C49.1806 28.1298 49.5637 27.9971 49.8727 27.7269C50.2709 27.3791 50.6568 27.0061 51.0196 26.6175C52.5734 24.9569 53.7242 23.0219 54.4382 20.9325L59.4242 25.5959C52.6271 40.6003 41.4205 52.5822 26.9109 60.3587Z" fill="#E2E2E2"/>
<path d="M124.192 142.825C129.838 142.038 134.139 139.419 133.351 133.773C132.564 128.127 127.349 124.188 121.703 124.975C116.057 125.762 112.118 130.977 112.905 136.623C113.693 142.269 118.546 143.612 124.192 142.825Z" fill="#F8D4AE"/>
<path d="M121.392 144.667C119.323 144.667 117.529 144.316 116.034 143.618C113.372 142.373 111.73 140.033 111.286 136.85C110.845 133.686 111.663 130.541 113.588 127.992C115.512 125.444 118.314 123.798 121.477 123.357C128.005 122.446 134.059 127.018 134.97 133.547C135.413 136.731 134.474 139.431 132.254 141.356C130.435 142.933 127.798 143.972 124.417 144.443C123.353 144.593 122.343 144.667 121.392 144.667ZM123.135 126.511C122.737 126.511 122.335 126.538 121.93 126.594C117.185 127.256 113.863 131.654 114.525 136.398C114.816 138.489 115.763 139.882 117.419 140.657C118.996 141.394 121.261 141.584 123.967 141.207C126.673 140.83 128.799 140.027 130.114 138.887C131.496 137.689 132.025 136.09 131.734 133.999C131.128 129.66 127.397 126.511 123.135 126.511Z" fill="#D3A98C"/>
<path d="M105.818 138.167C127.596 138.167 145.25 130.825 145.25 121.768C145.25 112.712 127.596 105.37 105.818 105.37C84.0409 105.37 66.3867 112.712 66.3867 121.768C66.3867 130.825 84.0409 138.167 105.818 138.167Z" fill="white"/>
<path d="M105.818 139.8C95.0745 139.8 84.9493 138.05 77.3069 134.872C69.2105 131.504 64.752 126.85 64.752 121.767C64.752 116.685 69.2112 112.031 77.3089 108.663C84.952 105.485 95.0765 103.734 105.818 103.734C116.562 103.734 126.687 105.485 134.329 108.663C142.425 112.031 146.884 116.685 146.884 121.767C146.884 126.85 142.425 131.504 134.327 134.872C126.685 138.05 116.56 139.8 105.818 139.8ZM105.818 107.003C83.209 107.003 68.0209 114.637 68.0209 121.767C68.0209 128.897 83.209 136.532 105.818 136.532C128.428 136.532 143.616 128.897 143.616 121.767C143.616 114.637 128.428 107.003 105.818 107.003Z" fill="#E2E2E2"/>
<path d="M140.993 107.78C140.993 101.126 125.244 95.7305 105.817 95.7305C86.3906 95.7305 70.6423 101.126 70.6423 107.78C70.6423 109.418 70.6423 117.48 70.6423 119.118C70.6423 125.773 86.3906 131.168 105.817 131.168C125.244 131.168 140.993 125.773 140.993 119.118C140.993 117.48 140.993 109.418 140.993 107.78Z" fill="#FFBE8D"/>
<path d="M105.818 132.8C96.2462 132.8 87.2242 131.515 80.4149 129.182C70.9873 125.952 69.0088 121.925 69.0088 119.116V110.322H72.2777V119.116C72.2777 121.51 75.7161 124.117 81.4746 126.09C87.9525 128.31 96.5974 129.532 105.819 129.532C115.037 129.532 123.682 128.31 130.16 126.09C135.92 124.117 139.359 121.51 139.359 119.116V109.9H142.628V119.116C142.628 121.925 140.649 125.952 131.22 129.182C124.409 131.515 115.388 132.8 105.818 132.8Z" fill="#EA9C71"/>
<path d="M105.426 88.9121C126.134 88.9121 142.92 94.6624 142.92 101.756C142.92 101.756 144.046 113.568 134.704 111.577C134.704 111.577 129.496 118.581 121.226 115.845C121.226 115.845 113.908 122.297 105.622 118.009C97.3355 122.297 90.0171 115.845 90.0171 115.845C81.7472 118.581 76.54 111.577 76.54 111.577C67.1981 113.567 68.3231 101.756 68.3231 101.756C68.3231 94.6624 85.11 88.9121 105.818 88.9121" fill="#FFFFA1"/>
<path d="M135.534 103.302V103.307C131.311 105.761 121.271 108.984 105.818 108.984C90.3641 108.984 80.3239 105.761 76.0947 103.307V103.302C80.3233 100.022 90.3634 95.7266 105.818 95.7266C121.272 95.7266 131.312 100.022 135.534 103.302Z" fill="#E27FA3"/>
<path d="M99.6759 121.131C94.9512 121.131 91.1991 118.78 89.6698 117.651C83.3233 119.324 78.2501 115.961 75.8851 113.347C73.3839 113.675 71.3149 113.124 69.7216 111.705C66.258 108.618 66.6242 102.49 66.6896 101.681C66.7249 98.724 68.8702 94.5207 78.7755 91.1272C85.9177 88.6805 95.3467 87.3173 105.372 87.2778C105.455 87.2751 105.539 87.2771 105.622 87.2771C105.705 87.2771 105.789 87.2751 105.873 87.2778C115.897 87.3173 125.326 88.6805 132.468 91.1272C142.374 94.5207 144.519 98.724 144.554 101.681C144.619 102.49 144.986 108.619 141.522 111.706C139.929 113.125 137.859 113.676 135.359 113.347C132.994 115.961 127.921 119.324 121.574 117.652C119.444 119.224 112.998 123.168 105.622 119.825C103.54 120.768 101.533 121.131 99.6759 121.131ZM90.0169 114.21C90.4089 114.21 90.7949 114.351 91.0984 114.618C91.3618 114.847 97.7077 120.264 104.872 116.557C105.343 116.313 105.903 116.313 106.374 116.557C113.538 120.264 119.883 114.847 120.15 114.615C120.585 114.235 121.192 114.112 121.74 114.293C128.809 116.632 133.347 110.662 133.393 110.602C133.774 110.089 134.418 109.844 135.045 109.978C136.944 110.383 138.35 110.151 139.343 109.27C141.335 107.501 141.426 103.356 141.294 101.909C141.29 101.859 141.287 101.806 141.287 101.756C141.287 96.4706 126.65 90.5827 105.623 90.5467C84.5953 90.5834 69.9585 96.4706 69.9585 101.756C69.9585 101.808 69.9564 101.86 69.951 101.911C69.8182 103.356 69.9094 107.502 71.9015 109.27C72.8945 110.151 74.3006 110.383 76.1995 109.978C76.8256 109.844 77.4702 110.089 77.852 110.602C78.0344 110.844 82.4916 116.613 89.5044 114.293C89.6719 114.236 89.8454 114.21 90.0169 114.21Z" fill="#F9CB71"/>
<path d="M136.538 102.011C131.608 98.1831 120.95 94.0928 105.818 94.0928C90.6921 94.0928 80.0299 98.1831 75.0942 102.011L77.0979 104.594C80.3246 102.092 86.3213 99.4667 94.7144 98.1763C87.4463 101.823 84.4898 105.589 84.3231 105.808L86.9134 107.801C86.9652 107.735 92.1819 101.212 106.041 97.3637C108.368 97.3698 110.577 97.476 112.666 97.6632C101.507 101.225 96.3499 107.283 96.0906 107.595L98.6006 109.689C98.6183 109.667 100.413 107.558 104.123 105.195C107.508 103.04 113.226 100.231 121.295 99.0128C122.512 99.2939 123.668 99.6015 124.753 99.9323C116.112 103.107 109.002 107.308 108.656 107.514L110.327 110.324C110.421 110.268 119.689 104.794 129.612 101.739C131.646 102.653 133.295 103.633 134.533 104.594L136.538 102.011Z" fill="#DD528B"/>
<path d="M105.818 110.618C87.3326 110.618 75.3882 106.028 72.8115 102.769C72.252 102.061 72.3718 101.033 73.0796 100.473C73.7874 99.9139 74.8151 100.034 75.3753 100.741C76.7147 102.435 86.8086 107.349 105.818 107.349C124.827 107.349 134.921 102.435 136.26 100.741C136.82 100.034 137.848 99.9139 138.556 100.473C139.263 101.033 139.384 102.061 138.824 102.769C136.247 106.028 124.303 110.618 105.818 110.618Z" fill="#F9CB71"/>
</svg>
