<svg width="88" height="124" viewBox="0 0 88 124" fill="none" xmlns="http://www.w3.org/2000/svg">
<path d="M72.4787 88.4802L72.0277 88.1938C74.0255 87.4086 75.9206 86.2504 77.6286 84.6155C85.4283 77.151 81.3125 68.4734 80.2779 66.6014C80.1425 66.3588 80.0622 66.2324 80.0622 66.2324C89.5317 63.8072 79.2327 51.1351 79.2327 51.1351C82.7295 48.9065 81.5832 44.912 78.0554 40.7692L80.1279 42.3935C82.5768 40.7596 87.7092 36.4293 84.6324 30.4319C80.839 23.0248 69.3031 21.6504 63.1434 29.0856L65.7832 31.1536C62.1987 29.1597 58.4205 27.5989 54.9483 26.83C51.4778 26.0616 47.394 25.8808 43.3029 26.1745L46.5684 25.4141C44.1241 16.0726 33.0909 12.4493 26.5206 17.5604C21.1995 21.6981 24.0235 27.7904 25.5574 30.3066L28.1129 29.7113C23.1698 31.9765 20.4474 35.1127 22.6772 38.6085C22.6772 38.6085 7.98598 45.746 15.5459 51.9428C15.5459 51.9428 5.57198 58.2884 9.98941 69.6338C12.1377 75.1465 16.5945 78.4586 21.5376 80.4322L5.64893 93.5576C8.99977 100.63 19.2141 106.727 29.0661 99.7813C29.0661 99.7813 31.5166 107.11 45.5743 105.971C53.0853 105.363 65.6159 99.7931 65.6159 99.7931L85.5861 98.8035C83.877 89.5047 72.4787 88.4802 72.4787 88.4802Z" fill="#F8D4AE"/>
<path d="M37.8747 26.8387C33.5674 27.5936 29.5661 28.841 26.6472 30.4468C25.5947 27.5464 24.4556 22.3937 28.6574 20.5813C33.1152 18.6559 36.4616 23.9905 37.8747 26.8387Z" fill="#FFF1E6"/>
<path d="M79.0799 42.0597C77.1118 39.3716 74.016 36.5521 70.4253 34.0483C72.9134 32.0639 78.1992 28.6412 81.4231 32.2684C84.4667 35.6849 81.2585 39.8749 79.0799 42.0597Z" fill="#FFF1E6"/>
<path d="M49.177 52.8968C55.5495 54.3082 55.6798 64.5343 60.5112 67.3184C67.8942 71.564 73.7601 70.2525 80.0647 66.2344C80.0647 66.2344 86.4266 76.1982 77.6316 84.6174C65.082 96.624 42.4977 83.0538 42.4977 83.0538C42.4977 83.0538 16.2954 85.8194 9.98907 69.6364C5.57165 58.2904 15.5455 51.9453 15.5455 51.9453C19.5642 58.2505 24.3276 61.9164 32.8125 61.1846C38.3685 60.7004 42.805 51.4859 49.177 52.8968Z" fill="#FFF1E6"/>
<path d="M31.2255 64.0281C32.264 59.3399 29.3052 54.6973 24.6165 53.6588C19.9283 52.6203 15.2857 55.5791 14.2472 60.2678C13.2087 64.9559 16.1675 69.5986 20.8562 70.6371C25.5449 71.675 30.187 68.7162 31.2255 64.0281Z" fill="#FD9DB4"/>
<path d="M77.7284 74.3269C78.7669 69.6388 75.8081 64.9961 71.1194 63.9576C66.4312 62.9191 61.7886 65.8779 60.7501 70.5666C59.7116 75.2548 62.6704 79.8974 67.3591 80.9359C72.0473 81.9744 76.6899 79.0156 77.7284 74.3269Z" fill="#FD9DB4"/>
<path d="M78.9521 88.9443C77.8203 88.4202 76.7189 88.0451 75.7591 87.7777C76.7521 87.1397 77.6844 86.409 78.5511 85.5794C86.0452 78.4076 83.4105 70.1524 81.9564 66.9762C83.8958 66.077 84.7343 64.7116 85.0932 63.6237C86.4698 59.4528 82.8314 53.7599 81.0824 51.3593C82.3967 50.049 82.9247 48.3135 82.5781 46.3505C82.4012 45.3485 81.9912 44.2757 81.37 43.1575C86.5608 39.464 88.2278 34.5141 85.8223 29.8232C83.8598 25.9966 79.9209 23.4091 75.2856 22.9019C70.3834 22.3644 65.5785 24.251 62.3557 27.9551C59.894 26.8588 57.4704 26.0219 55.2378 25.5276C53.0047 25.0334 50.4536 24.7683 47.7577 24.7228C46.3996 20.0054 42.8465 16.2665 38.1769 14.6832C33.7606 13.1858 29.0978 13.8677 25.7026 16.508C21.5412 19.7448 20.9622 24.9351 24.1074 30.4747C23.0718 31.2257 22.2472 32.0255 21.6637 32.8595C20.5207 34.4928 20.2668 36.289 20.9054 38.0318C18.3055 39.4696 12.6014 43.0935 12.0874 47.4553C11.9538 48.5921 12.1369 50.1832 13.514 51.8171C12.5345 52.6467 11.1697 53.9862 9.99077 55.811C8.05081 58.8136 6.26025 63.7332 8.74671 70.1198C11.0079 75.9211 15.8354 80.0583 23.0965 82.415L23.9204 79.8769C17.458 77.7791 13.1894 74.1705 11.2332 69.1515C7.27853 58.9945 15.8966 53.3055 16.2622 53.0696C16.6234 52.8399 16.852 52.4512 16.8778 52.0238C16.9036 51.5969 16.7228 51.183 16.3914 50.9117C15.1496 49.8934 14.6082 48.8656 14.7368 47.7681C14.9182 46.2219 16.4369 44.3218 19.0143 42.4178C21.1385 40.8491 23.2397 39.819 23.2605 39.8094C23.6025 39.6432 23.8581 39.3382 23.9614 38.9726C24.0648 38.6064 24.0069 38.2132 23.8019 37.8919C23.0195 36.6653 23.0347 35.5527 23.8491 34.3889C27.4774 29.2026 44.1782 25.8113 54.6599 28.1332C65.1409 30.4545 78.8499 40.5812 79.9501 46.8144C80.1967 48.2129 79.7412 49.229 78.5151 50.0102C78.1944 50.2147 77.9765 50.5461 77.9153 50.9213C77.854 51.297 77.9563 51.6806 78.1961 51.976C78.2107 51.994 79.68 53.8149 80.942 56.1334C82.4731 58.9468 83.0471 61.3108 82.5585 62.7885C82.2114 63.8377 81.2863 64.5414 79.73 64.9402C79.3166 65.0463 78.9796 65.3446 78.8223 65.7411C78.6645 66.1376 78.7072 66.587 78.9347 66.9476C78.9448 66.9633 79.0094 67.0672 79.1093 67.2464C79.6019 68.1377 80.7657 70.5399 80.933 73.5841C81.1414 77.3798 79.7187 80.7671 76.7049 83.6512C74.1359 86.1101 70.8856 87.5969 67.0421 88.0709L67.369 90.7191C69.1517 90.4989 70.8249 90.0839 72.3852 89.4829L72.356 89.8081C72.3829 89.8103 75.0738 90.0732 77.8967 91.3959C81.5059 93.087 83.6509 95.6611 84.2738 99.0457L86.8978 98.5626C86.1182 94.3165 83.3701 90.9904 78.9521 88.9443ZM26.3827 29.079C24.8393 26.3258 23.2846 21.7696 27.3403 18.6148C30.0251 16.5271 33.7561 16.002 37.3199 17.2106C40.9206 18.4317 43.7138 21.2124 44.9674 24.7526C42.0018 24.866 38.9335 25.2317 35.9657 25.8489C32.1784 26.6369 28.9141 27.7484 26.3827 29.079ZM72.5733 33.957C70.1442 32.1445 67.5179 30.5174 64.8775 29.1627C67.5089 26.483 71.2147 25.1418 74.9946 25.5552C78.7358 25.9646 81.8963 28.0158 83.4476 31.0414C85.7919 35.6133 82.4579 39.0877 79.8968 40.9316C78.1635 38.6564 75.6737 36.2704 72.5733 33.957Z" fill="#D3A98C"/>
<path d="M81.7151 20.9397C80.8939 24.6478 78.3232 27.5156 75.0595 28.8653C74.3102 32.2492 74.4416 31.655 73.2178 37.1817C59.4066 38.8959 45.8118 35.8848 34.0248 28.5013C35.2487 22.9746 35.1173 23.5688 35.8659 20.1894C33.4772 17.5878 32.3545 13.8977 33.1756 10.1891C34.5124 4.15406 40.4873 0.346043 46.5267 1.68335C47.9084 1.98945 49.1699 2.53762 50.2814 3.27507C53.2638 1.53225 56.8859 0.866692 60.5266 1.67267C64.1628 2.47808 67.1603 4.61013 69.1284 7.44931C70.4471 7.25048 71.8271 7.28698 73.2082 7.59308C79.2432 8.92982 83.0518 14.9047 81.7151 20.9397Z" fill="white"/>
<path d="M81.3522 11.7861C79.5538 8.96437 76.7635 7.01149 73.4957 6.28751C72.259 6.01343 71.002 5.93198 69.7484 6.03701C67.5624 3.20738 64.4289 1.17082 60.8113 0.369338C57.1914 -0.431584 53.4907 0.0913242 50.3139 1.73192C49.2226 1.10792 48.0493 0.651851 46.8137 0.377763C43.5465 -0.345651 40.1929 0.246328 37.3706 2.04475C34.5488 3.84318 32.5959 6.63348 31.8719 9.90064C31.0098 13.7952 32.0725 17.6734 34.4207 20.5457L32.7223 28.2129C32.6004 28.7644 32.8386 29.3323 33.3165 29.6322C43.1764 35.8087 54.2264 38.9872 65.6522 38.9872C68.2122 38.9872 70.793 38.8271 73.3817 38.5058C73.9417 38.4362 74.3978 38.0217 74.5202 37.4701L76.217 29.8102C76.6618 29.5951 77.0976 29.3542 77.5206 29.0846C80.3429 27.2862 82.2952 24.4958 83.0192 21.2287C83.7432 17.9615 83.1512 14.6079 81.3522 11.7861ZM80.4142 20.6519C79.8447 23.2237 78.308 25.4192 76.0872 26.8346C73.8659 28.25 71.2272 28.7161 68.6548 28.1466C68.3324 28.0753 68.01 27.9865 67.6955 27.8832C66.9957 27.6518 66.2414 28.0332 66.0111 28.733C65.7808 29.4328 66.1611 30.1871 66.8609 30.4174C67.2602 30.5488 67.6697 30.6612 68.0786 30.7516C68.9879 30.9532 69.9034 31.0526 70.8127 31.0526C71.6389 31.0526 72.4589 30.9684 73.2643 30.8061L72.1214 35.9666C59.2313 37.3656 46.6199 34.5731 35.5334 27.8636L36.678 22.6957C38.0434 23.7045 39.634 24.4526 41.3959 24.843C41.8009 24.9323 42.2154 25.003 42.6282 25.0525C42.6821 25.0586 42.7355 25.062 42.7883 25.062C43.4544 25.062 44.0301 24.5638 44.1116 23.8859C44.1992 23.1541 43.6768 22.4902 42.9456 22.4026C42.6198 22.3632 42.2924 22.3082 41.9733 22.2374C36.6651 21.0619 33.3025 15.7868 34.478 10.478C35.6541 5.16926 40.9292 1.80718 46.2374 2.98329C46.7407 3.0945 47.2299 3.24614 47.7045 3.43204C46.9648 4.0274 46.2723 4.69352 45.6398 5.43154C45.1602 5.99095 45.2248 6.83287 45.7842 7.31253C46.3436 7.79218 47.1861 7.7276 47.6652 7.16819C50.7666 3.55112 55.5828 1.94478 60.235 2.97486C64.8839 4.00437 68.57 7.49451 69.854 12.0827C70.0191 12.6719 70.5549 13.0577 71.1379 13.0577C71.257 13.0577 71.3777 13.042 71.4979 13.0083C72.2073 12.8095 72.6218 12.0731 72.423 11.3638C72.1612 10.4286 71.8147 9.53221 71.3963 8.68018C71.9068 8.71163 72.4157 8.78127 72.92 8.89304C75.4919 9.46256 77.6874 10.9992 79.1028 13.2206C80.5176 15.4414 80.9837 18.0806 80.4142 20.6519Z" fill="#E2E2E2"/>
<path d="M51.9472 72.3382C51.1418 73.033 50.1774 73.5941 49.0277 73.967C46.043 74.9302 42.7085 74.1917 40.4186 72.0602C39.534 71.2362 38.8965 70.3207 38.4601 69.3507C36.9156 65.964 37.7446 61.988 38.5741 59.4999C38.8213 58.7472 39.8227 58.6388 40.2563 59.301C40.5029 59.6813 40.8095 60.0228 41.1712 60.3064C41.6672 60.7091 42.2625 61.0062 42.9332 61.1545C44.3418 61.4662 45.742 61.0495 46.7429 60.1525C47.3905 59.5734 47.8701 58.7922 48.0729 57.8789C47.8707 58.7922 47.9757 59.7032 48.3183 60.5013C48.8474 61.7369 49.9404 62.7063 51.349 63.0181C52.0151 63.1658 52.6846 63.1489 53.3098 62.9894C53.7529 62.8849 54.1747 62.7086 54.5583 62.4682C55.2267 62.0498 56.0888 62.571 56.0001 63.3545C55.7047 65.9662 54.7768 69.9203 51.9472 72.3382Z" fill="#5F5C5D"/>
<path d="M52.579 64.4928C51.9909 67.1477 50.8861 67.8094 48.8159 67.3511C47.3938 67.036 46.6069 66.4322 46.4446 65.2252C45.788 66.2508 44.8197 66.4659 43.3976 66.1508C41.3318 65.693 40.6095 64.627 41.1976 61.9721C41.3239 61.4003 41.4812 60.883 41.6823 60.4225C42.1788 60.8252 42.7736 61.1223 43.4442 61.2705C44.8528 61.5823 46.253 61.1655 47.2539 60.2686C47.3129 60.5129 47.355 60.7724 47.369 61.0493C47.4988 60.8044 47.6459 60.5865 47.8032 60.3899C48.3323 61.6261 49.4253 62.5949 50.8339 62.9072C51.5 63.0549 52.1695 63.0375 52.7946 62.8786C52.7778 63.3801 52.7053 63.9216 52.579 64.4928Z" fill="white"/>
<path d="M51.9456 72.3372C51.1368 73.0303 50.1725 73.5914 49.0228 73.9649C46.0409 74.9298 42.7053 74.1907 40.4148 72.0587C39.5302 71.2342 38.8933 70.3186 38.458 69.3503C39.2617 68.6561 40.2255 68.095 41.3758 67.7215C44.3526 66.7555 47.6883 67.4946 49.9838 69.6278C50.8678 70.4518 51.5036 71.3723 51.9456 72.3372Z" fill="#E27FA3"/>
<path d="M46.3498 75.7227C43.8465 75.7227 41.3915 74.7887 39.5094 73.0375C38.5343 72.1293 37.7716 71.0733 37.2431 69.8989C35.5519 66.1897 36.345 61.9667 37.3082 59.0781C37.5795 58.2524 38.2872 57.6638 39.1533 57.5492C40.0323 57.4341 40.8837 57.8239 41.3718 58.5703L39.1398 60.0323C39.2027 60.1289 39.3398 60.2188 39.5032 60.1946C39.679 60.1716 39.8009 60.0357 39.8408 59.9189C39.1741 61.9189 38.2704 65.7196 39.6739 68.7981C40.0587 69.6524 40.6147 70.4196 41.3286 71.0846C43.25 72.8734 46.1122 73.507 48.6189 72.6977C49.5439 72.3972 50.3718 71.9361 51.0761 71.3283C53.6586 69.1216 54.4388 65.2922 54.6747 63.2051C54.6606 63.3281 54.714 63.5033 54.8634 63.5971C55.0027 63.6853 55.17 63.66 55.2661 63.5999L53.8507 61.3381C54.6033 60.8675 55.5362 60.8681 56.2855 61.3393C57.0258 61.8055 57.4245 62.635 57.3262 63.5045C56.9842 66.5307 55.9238 70.6959 52.8145 73.3526C51.8445 74.1894 50.7077 74.8247 49.4406 75.2364C48.4262 75.5632 47.3838 75.7227 46.3498 75.7227Z" fill="#F8D4AE"/>
<path d="M52.2761 64.4538C51.8695 64.4538 51.4601 64.41 51.0596 64.3213C49.437 63.9618 48.0547 62.8963 47.2853 61.4338C45.971 62.4341 44.2675 62.816 42.6443 62.4571C41.7861 62.2667 41.0076 61.8921 40.3303 61.3422C39.8776 60.9884 39.4693 60.5408 39.1362 60.0268C38.7352 59.4085 38.9121 58.5823 39.5299 58.1818C40.1483 57.7813 40.9745 57.9571 41.375 58.5755C41.5468 58.8406 41.7546 59.0692 41.9928 59.2557C42.364 59.5567 42.7712 59.7522 43.2211 59.8522C44.1535 60.06 45.1375 59.7999 45.8519 59.1591C46.3175 58.7429 46.6349 58.2009 46.7697 57.5904C46.9292 56.8709 47.6408 56.4159 48.3608 56.576C48.9831 56.7136 49.4072 57.2657 49.4066 57.8779C49.4066 57.9734 49.396 58.07 49.3746 58.1672C49.2393 58.7771 49.2977 59.4023 49.5437 59.9752C49.9217 60.8592 50.7041 61.509 51.6364 61.7157C52.0863 61.8157 52.5384 61.809 52.9799 61.6972C53.3028 61.6208 53.5876 61.5017 53.8488 61.3383C54.4733 60.9468 55.2967 61.1355 55.6877 61.7601C56.0791 62.3847 55.8904 63.2075 55.2658 63.599C54.757 63.918 54.2015 64.15 53.6151 64.2881C53.1843 64.3988 52.7322 64.4538 52.2761 64.4538Z" fill="#D3A98C"/>
<path d="M50.7544 56.0883C50.3214 55.3992 49.4115 55.1913 48.7223 55.6244L48.5555 55.7288L48.451 55.562C48.018 54.8729 47.1081 54.6651 46.419 55.0981C45.7298 55.5311 45.522 56.441 45.955 57.1302L46.3269 57.7222C47.0458 58.8657 48.5555 59.2106 49.699 58.4916L50.291 58.1198C50.9796 57.6873 51.1874 56.7775 50.7544 56.0883Z" fill="#E27FA3"/>
<path d="M37.8522 57.2431C37.4113 57.2431 36.9805 57.0252 36.7261 56.6258C36.1431 55.7115 35.2394 55.079 34.1807 54.8443C33.1208 54.6101 32.0357 54.8016 31.1213 55.384C30.5007 55.78 29.6756 55.5974 29.2791 54.9762C28.8831 54.3551 29.0656 53.53 29.6868 53.134C31.2022 52.168 33.0029 51.8501 34.7569 52.2387C36.5115 52.6274 38.0095 53.6754 38.9749 55.1908C39.3709 55.812 39.1884 56.6371 38.5672 57.033C38.3459 57.1751 38.0976 57.2431 37.8522 57.2431Z" fill="#5F5C5D"/>
<path d="M65.6178 63.3929C65.1774 63.3929 64.7461 63.1744 64.4916 62.7757C63.2886 60.8885 60.7752 60.3313 58.8874 61.5344C58.2662 61.9304 57.4417 61.7478 57.0452 61.1266C56.6492 60.5055 56.8318 59.6804 57.453 59.2844C58.9683 58.3184 60.7684 58.0005 62.523 58.3891C64.2771 58.7778 65.775 59.8258 66.7411 61.3412C67.137 61.9624 66.9545 62.7875 66.3333 63.1834C66.1115 63.325 65.8632 63.3929 65.6178 63.3929Z" fill="#5F5C5D"/>
<path d="M44.2071 123.951C43.5483 123.951 42.9754 123.463 42.8861 122.793L42.316 118.509C42.2188 117.779 42.7322 117.108 43.4623 117.011C44.1942 116.914 44.8637 117.427 44.9608 118.157L45.5309 122.44C45.6281 123.171 45.1147 123.842 44.3846 123.939C44.3251 123.947 44.2655 123.951 44.2071 123.951Z" fill="#E2E2E2"/>
<path d="M75.0602 123.951C75.0013 123.951 74.9423 123.947 74.8828 123.939C74.1526 123.842 73.6392 123.171 73.7364 122.441L74.3065 118.157C74.4037 117.427 75.0765 116.917 75.805 117.011C76.5351 117.108 77.0485 117.779 76.9513 118.51L76.3813 122.793C76.2914 123.463 75.7185 123.951 75.0602 123.951Z" fill="#E2E2E2"/>
<path d="M37.8475 101.906C40.6327 90.6058 49.4294 88.4805 59.6336 88.4805C69.8377 88.4805 78.6344 90.6058 81.4197 101.906C85.162 117.088 74.2911 121.19 59.6336 121.19C44.976 121.19 34.1046 117.087 37.8475 101.906Z" fill="white"/>
<path d="M59.6334 122.524C48.894 122.524 41.953 120.329 38.4157 115.812C35.7051 112.353 35.0783 107.566 36.5521 101.586C39.6884 88.8608 49.9796 87.1455 59.6334 87.1455C69.2866 87.1455 79.5778 88.8608 82.7147 101.586C84.189 107.566 83.5622 112.352 80.8511 115.812C77.3132 120.329 70.3728 122.524 59.6334 122.524ZM59.6334 89.8139C44.3136 89.8139 40.7314 95.7787 39.1425 102.224C37.8748 107.367 38.3371 111.385 40.5157 114.167C43.5144 117.994 49.7679 119.855 59.6334 119.855C69.4989 119.855 75.7524 117.994 78.751 114.167C80.9297 111.385 81.392 107.367 80.1243 102.224C77.4351 91.3175 68.6867 89.8139 59.6334 89.8139Z" fill="#E2E2E2"/>
<path d="M75.067 81.4284V85.9289H44.2085V81.4284C44.2085 79.1295 46.0749 77.2637 48.3732 77.2637H70.9018C72.0509 77.2637 73.0934 77.7315 73.846 78.4842C74.5992 79.2362 75.067 80.2792 75.067 81.4284Z" fill="#C9ADB5"/>
<path d="M70.902 81.7627H48.3751C46.0751 81.7627 44.2109 83.6268 44.2109 85.9268C44.2109 87.6842 45.3011 89.1844 46.8412 89.7955V99.7947H72.4359V89.7955C73.9759 89.1844 75.0661 87.6842 75.0661 85.9268C75.0655 83.6268 73.2014 81.7627 70.902 81.7627Z" fill="#FFBE8D"/>
<path d="M55.5409 88.1788C55.4398 88.1788 55.3375 88.1675 55.2353 88.1434C54.5181 87.9754 54.0727 87.2571 54.2412 86.5398L54.2502 86.5017C54.4187 85.7839 55.1359 85.3385 55.8537 85.5075C56.5709 85.6754 57.0163 86.3938 56.8478 87.111L56.8389 87.1492C56.6945 87.7642 56.1463 88.1788 55.5409 88.1788Z" fill="#EA9C71"/>
<path d="M59.6347 91.3408C59.5336 91.3408 59.4314 91.3296 59.3286 91.3054C58.6114 91.1375 58.166 90.4191 58.3345 89.7019L58.3434 89.6637C58.5119 88.9465 59.2292 88.5005 59.947 88.6696C60.6642 88.8375 61.1096 89.5559 60.9411 90.2731L60.9321 90.3113C60.7878 90.9263 60.2396 91.3408 59.6347 91.3408Z" fill="#EA9C71"/>
<path d="M55.5451 93.0513C55.4434 93.0513 55.3406 93.0395 55.2373 93.0153C54.5201 92.8463 54.0763 92.1279 54.2454 91.4101L54.2544 91.3719C54.4234 90.6547 55.1435 90.2099 55.859 90.38C56.5763 90.5491 57.02 91.2674 56.8509 91.9847L56.8419 92.0229C56.6976 92.6373 56.15 93.0513 55.5451 93.0513Z" fill="#EA9C71"/>
<path d="M75.0675 87.2607C74.3306 87.2607 73.7335 86.6631 73.7335 85.9268V81.4279C73.7335 80.6725 73.4387 79.962 72.9034 79.4267C72.3681 78.8914 71.6576 78.5971 70.9022 78.5971H48.3736C46.8128 78.5971 45.5429 79.8671 45.5429 81.4279V85.9268C45.5429 86.6636 44.9453 87.2607 44.2089 87.2607C43.472 87.2607 42.875 86.6631 42.875 85.9268V81.4279C42.875 78.3961 45.3418 75.9287 48.3742 75.9287H70.9028C72.3709 75.9287 73.7515 76.501 74.7906 77.5401C75.8296 78.5786 76.402 79.9597 76.402 81.4279V85.9268C76.4014 86.6636 75.8038 87.2607 75.0675 87.2607Z" fill="#AB8D96"/>
<path d="M73.7698 99.7946H71.1014V89.7955C71.1014 89.2484 71.435 88.7575 71.9433 88.5553C73.0296 88.124 73.7316 87.0928 73.7316 85.9268C73.7316 84.3665 72.4623 83.0971 70.902 83.0971H48.3751C46.8142 83.0971 45.5449 84.3665 45.5449 85.9268C45.5449 87.0922 46.247 88.124 47.3332 88.5553C47.8415 88.757 48.1751 89.2484 48.1751 89.7955V99.7946H45.5067V90.6166C43.8841 89.6303 42.8765 87.8746 42.8765 85.9268C42.8765 82.8949 45.3427 80.4287 48.3751 80.4287H70.902C73.9338 80.4287 76.4001 82.8949 76.4001 85.9268C76.4001 87.8752 75.3924 89.6303 73.7698 90.6166V99.7946Z" fill="#EA9C71"/>
<path d="M75.6379 101.129H43.6386C42.9017 101.129 42.3047 100.531 42.3047 99.7949C42.3047 99.0585 42.9023 98.4609 43.6386 98.4609H75.6379C76.3748 98.4609 76.9718 99.0585 76.9718 99.7949C76.9718 100.531 76.3742 101.129 75.6379 101.129Z" fill="#E2E2E2"/>
<path d="M63.0633 114.259C64.959 112.363 64.959 109.289 63.0633 107.394C61.1675 105.498 58.0939 105.498 56.1982 107.394C54.3024 109.289 54.3024 112.363 56.1982 114.259C58.0939 116.154 61.1675 116.154 63.0633 114.259Z" fill="#95E0E8"/>
<path d="M59.6336 117.016C56.221 117.016 53.4453 114.24 53.4453 110.828C53.4453 107.416 56.2216 104.64 59.6336 104.64C63.0457 104.64 65.822 107.416 65.822 110.828C65.822 114.24 63.0457 117.016 59.6336 117.016ZM59.6336 107.308C57.6926 107.308 56.1137 108.887 56.1137 110.828C56.1137 112.769 57.6926 114.348 59.6336 114.348C61.5747 114.348 63.1535 112.769 63.1535 110.828C63.1535 108.887 61.5747 107.308 59.6336 107.308Z" fill="#63D3D6"/>
<path d="M29.0279 61.3286L31.1532 65.2955L3.95278 79.8689L1.82747 75.9019C0.741789 73.876 1.50564 71.3491 3.53154 70.264L23.3895 59.6245C24.4027 59.0819 25.5423 59.0016 26.5611 59.31C27.5805 59.6172 28.4854 60.3153 29.0279 61.3286Z" fill="#C9ADB5"/>
<path d="M25.5148 63.5912L5.65799 74.2301C3.63097 75.3164 2.86767 77.8399 3.95392 79.8669C4.78405 81.4159 6.45329 82.2236 8.09951 82.0349L14.7209 94.3941C15.8593 96.5189 18.5042 97.3181 20.6289 96.1802L35.4954 88.2154C37.6202 87.0769 38.4194 84.432 37.2815 82.3073L30.6601 69.948C31.729 68.6821 31.9817 66.8449 31.1516 65.2958C30.0653 63.2677 27.5418 62.505 25.5148 63.5912Z" fill="#FFBE8D"/>
<path d="M3.95313 81.202C3.47685 81.202 3.01629 80.9465 2.7759 80.4977L0.651157 76.5324C-0.781067 73.8595 0.228792 70.5199 2.90115 69.0882L22.7591 58.4488C24.0531 57.7557 25.5404 57.608 26.9468 58.0326C28.3532 58.4578 29.5096 59.4041 30.2033 60.6982L32.328 64.664C32.6763 65.3133 32.4319 66.1221 31.7821 66.4703C31.1323 66.8186 30.324 66.5737 29.9764 65.9244L27.8516 61.9591C27.495 61.293 26.8996 60.806 26.1751 60.587C25.4511 60.3685 24.6856 60.4438 24.0194 60.8004L4.16151 71.4399C3.49539 71.7965 3.00843 72.3919 2.78938 73.1164C2.57034 73.8404 2.64616 74.6059 3.00281 75.2721L5.12756 79.2374C5.47522 79.8866 5.23147 80.6954 4.58163 81.0431C4.38168 81.1509 4.166 81.202 3.95313 81.202Z" fill="#AB8D96"/>
<path d="M18.5751 98.0342C18.0208 98.0342 17.4642 97.9528 16.9188 97.7877C15.4619 97.3473 14.2633 96.3661 13.5449 95.0243L7.31112 83.3891C5.41497 83.2863 3.69798 82.2146 2.77743 80.4971C2.08378 79.2025 1.93607 77.7152 2.36068 76.3094C2.78585 74.9035 3.73281 73.7477 5.02742 73.054L24.8842 62.4151C26.1788 61.7215 27.6661 61.5738 29.0714 61.9984C30.4772 62.4235 31.6331 63.3699 32.3267 64.6645C33.2473 66.3821 33.1883 68.4052 32.2234 70.0407L38.4572 81.676C39.9411 84.4455 38.8953 87.9059 36.1258 89.3904L21.2593 97.3552C20.4196 97.8056 19.5019 98.0342 18.5751 98.0342ZM8.09968 80.701C8.5872 80.701 9.04102 80.9683 9.27523 81.4047L15.8966 93.764C16.2791 94.4773 16.916 94.999 17.6911 95.2338C18.4656 95.468 19.2856 95.386 19.9989 95.0041L34.8654 87.0393C35.5787 86.6568 36.1011 86.0199 36.3353 85.2448C36.5695 84.4697 36.488 83.6502 36.1056 82.9369L29.4842 70.5777C29.2258 70.0958 29.2876 69.5043 29.6409 69.0865C30.3946 68.1934 30.5266 66.9527 29.9756 65.9255C29.6184 65.2594 29.0236 64.7718 28.3002 64.5528C27.5768 64.3343 26.8113 64.4101 26.1451 64.7673L6.28834 75.4062C5.62165 75.7634 5.1347 76.3588 4.91565 77.0822C4.69717 77.8056 4.77299 78.5712 5.13021 79.2373C5.68063 80.2651 6.78597 80.8414 7.94803 80.71C7.99802 80.7038 8.04914 80.701 8.09968 80.701Z" fill="#EA9C71"/>
<path d="M13.1072 82.0642C12.9472 82.0642 12.7837 82.0349 12.6253 81.9737C11.9384 81.7075 11.5975 80.9347 11.8632 80.2478L14.8736 72.4784C15.1399 71.7915 15.9133 71.4505 16.5996 71.7162C17.2865 71.9824 17.6274 72.7553 17.3618 73.4422L14.3513 81.2116C14.1463 81.7401 13.6419 82.0642 13.1072 82.0642Z" fill="#EA9C71"/>
<path d="M28.8997 89.0876C28.7391 89.0876 28.5762 89.0584 28.4178 88.9972C27.7309 88.7309 27.39 87.9581 27.6556 87.2712L30.6656 79.5018C30.9318 78.8149 31.7052 78.474 32.3915 78.7396C33.0784 79.0059 33.4194 79.7787 33.1537 80.4656L30.1438 88.235C29.9393 88.7635 29.4344 89.0876 28.8997 89.0876Z" fill="#EA9C71"/>
<path d="M16.1175 89.0585C15.9574 89.0585 15.794 89.0293 15.6356 88.968C14.9487 88.7018 14.6078 87.929 14.8734 87.2421L20.9382 71.5887C21.2044 70.9018 21.9778 70.5609 22.6642 70.8265C23.3511 71.0928 23.692 71.8656 23.4263 72.5525L17.3616 88.2059C17.1565 88.7344 16.6516 89.0585 16.1175 89.0585Z" fill="#EA9C71"/>
<path d="M21.2347 91.9176C21.074 91.9176 20.9112 91.8884 20.7528 91.8272C20.0659 91.561 19.7249 90.7881 19.9906 90.1012L26.0554 74.4479C26.3222 73.7609 27.095 73.4206 27.7813 73.6857C28.4682 73.9519 28.8092 74.7248 28.5435 75.4117L22.4787 91.0645C22.2737 91.5935 21.7694 91.9176 21.2347 91.9176Z" fill="#EA9C71"/>
<path d="M3.66551 88.7995C3.00276 84.8932 3.83569 81.4935 7.74201 80.8307C11.6483 80.168 15.3525 82.7971 16.0152 86.7034C16.678 90.6098 14.0489 94.3139 10.1425 94.9766C6.23621 95.6394 4.32826 92.7064 3.66551 88.7995Z" fill="#F8D4AE"/>
<path d="M30.1576 99.015C29.733 98.4129 28.9006 98.2686 28.2985 98.6932C24.6191 101.287 20.5859 102.109 16.6346 101.07C13.8246 100.332 11.1506 98.6247 9.15727 96.405C9.54706 96.4 9.95033 96.364 10.366 96.2938C14.9912 95.5086 18.1157 91.1069 17.3311 86.4817C16.9508 84.2412 15.7202 82.2822 13.8673 80.9668C12.0144 79.6514 9.75937 79.1363 7.51892 79.5166C3.32952 80.2276 1.44573 83.6925 2.35 89.0237C2.73305 91.2816 3.47837 93.057 4.5281 94.3011C6.72362 98.7955 11.0849 102.369 15.9561 103.65C17.1075 103.953 18.4757 104.178 20.0029 104.178C22.8561 104.178 26.262 103.394 29.8363 100.874C30.4384 100.45 30.5822 99.6171 30.1576 99.015ZM7.96544 82.1474C9.50325 81.8862 11.0506 82.2401 12.3228 83.1426C13.5949 84.0458 14.4391 85.3898 14.7003 86.9276C15.2389 90.1021 13.0945 93.1238 9.92 93.6625C8.93991 93.8298 5.95864 94.3348 4.98136 88.5772C4.73928 87.1534 4.00351 82.8191 7.96544 82.1474Z" fill="#D3A98C"/>
<path d="M86.1281 100.334C87.2475 104.135 86.8212 107.609 83.0199 108.728C79.2192 109.847 75.2303 107.673 74.1115 103.873C72.9921 100.072 75.1663 96.0829 78.967 94.9641C82.7677 93.8447 85.0087 96.5334 86.1281 100.334Z" fill="#F8D4AE"/>
<path d="M80.9978 110.355C77.3207 110.355 73.9221 107.951 72.8319 104.249C72.1899 102.069 72.4354 99.7696 73.5233 97.774C74.6107 95.7785 76.4102 94.326 78.5906 93.684C82.6671 92.4838 85.8809 94.7703 87.4086 99.9572C88.9357 105.144 87.4737 108.808 83.3978 110.008C82.598 110.243 81.7909 110.355 80.9978 110.355ZM80.6271 96.0261C80.0829 96.0261 79.6274 96.1604 79.3438 96.2441C77.8475 96.685 76.6119 97.6813 75.8654 99.0512C75.119 100.421 74.9505 101.999 75.3914 103.496C76.3013 106.585 79.5549 108.358 82.6429 107.449C83.9999 107.049 84.7935 106.321 85.1401 105.156C85.4748 104.034 85.3731 102.496 84.848 100.711C83.6893 96.7754 81.9122 96.0261 80.6271 96.0261Z" fill="#D3A98C"/>
</svg>
