<svg width="300" height="300" viewBox="0 0 300 300" fill="none" xmlns="http://www.w3.org/2000/svg">
<g clip-path="url(#clip0_213_931)">
<circle cx="150" cy="150" r="148.5" fill="#FFD2DD" stroke="#F5E8D3" stroke-width="3"/>
<path d="M126.036 169.271C127.017 169.044 128.348 169.115 130.017 169.556C133.352 170.438 137.54 172.66 141.848 175.687L142.491 176.139L143.228 175.868C148.351 173.984 154.254 172.905 160.55 172.905C170.564 172.905 179.562 175.631 186.013 179.961C192.474 184.298 196.242 190.127 196.243 196.369C196.243 202.609 192.474 208.437 186.013 212.774C179.562 217.104 170.564 219.831 160.55 219.831C155.335 219.831 150.389 219.089 145.931 217.764L145.328 217.585L144.779 217.889C139.379 220.872 133.362 223.075 127.663 223.859C121.953 224.644 116.707 223.99 112.682 221.451V221.45L112.218 221.144C107.517 217.894 105.646 212.014 106.71 205.558C107.807 198.904 112.022 191.855 119.153 187.153L119.621 186.843L119.773 186.302L124.125 170.657C124.547 169.908 125.167 169.472 126.036 169.271Z" fill="#F8D4AE" stroke="#D3A98C" stroke-width="3"/>
<path d="M148.71 71.2695L186.624 80.08C189.39 75.5391 194.481 64.5434 184.876 57.0828C173.016 47.865 153.112 54.4127 148.71 71.2695Z" fill="#F8D4AE"/>
<path d="M163.048 76.8242C163.048 76.8242 170.231 57.8774 181.025 62.5311C191.819 67.1848 183.087 84.0352 183.087 84.0352L163.048 76.8242Z" fill="#FFF1E6"/>
<path d="M213.582 139.359C213.499 142.248 212.884 145.403 211.571 148.804C200.206 178.007 164.295 170.515 164.295 170.515C164.295 170.515 117.939 201.207 89.541 175.888C74.9998 162.923 82.8821 146.768 84.7449 143.388C84.9281 143.056 85.0522 142.853 85.1114 142.762L85.129 142.731C85.1362 142.721 85.1362 142.721 85.1362 142.721C68.0481 138.353 86.6221 115.48 86.6221 115.48C80.9618 111.877 82.0332 105.708 86.9021 99.0805C82.4725 95.2173 77.5443 88.5241 81.9436 79.9232C88.4192 67.2792 107.415 64.373 118.856 75.4623C122.779 73.762 126.694 72.4314 130.415 71.6056C155.52 66.0349 198.414 77.5147 188.652 92.8329C188.652 92.8329 215.167 105.698 201.531 116.887C201.531 116.887 201.68 116.981 201.935 117.163C202.913 117.847 205.498 119.82 207.982 122.992C210.959 126.788 213.81 132.3 213.582 139.359Z" fill="#F8D4AE"/>
<path d="M89.5386 175.886C117.938 201.206 164.293 170.513 164.293 170.513C164.293 170.513 200.202 178.005 211.568 148.8C216.116 137.091 212.18 128.338 207.977 122.992C202.056 128.557 194.707 131.407 184.174 130.508C174.15 129.641 166.141 113.018 154.645 115.569C143.148 118.121 142.671 136.16 134.21 141.599C103.9 161.063 96.5127 149.966 85.1329 142.721C85.1329 142.721 85.1329 142.721 85.1265 142.731C85.1201 142.741 85.1137 142.751 85.1073 142.761C85.0505 142.851 84.9257 143.057 84.7432 143.387C82.8781 146.764 74.9974 162.919 89.5386 175.886Z" fill="#FFF1E6"/>
<path d="M213.58 139.36C211.933 143.645 208.508 146.943 204.042 147.935C196.532 149.601 188.92 144.092 187.042 135.632C185.166 127.18 189.732 118.968 197.243 117.302C198.817 116.952 200.402 116.915 201.931 117.164C202.91 117.85 205.495 119.823 207.979 122.995C210.96 126.788 213.811 132.298 213.58 139.36Z" fill="#FD9DB4"/>
<path d="M132.801 157.208C136.307 149.285 132.727 140.02 124.805 136.514C116.882 133.008 107.617 136.588 104.111 144.51C100.604 152.433 104.184 161.697 112.107 165.204C120.029 168.71 129.294 165.13 132.801 157.208Z" fill="#FD9DB4"/>
<path d="M98.1953 96.9897L106.797 90.2428C109.388 88.2104 109.132 84.1968 106.29 82.5333C101.491 79.7231 95.2731 77.7388 91.0307 82.5093C87.0787 86.9493 88.9759 92.1071 91.8173 96.1199C93.2799 98.1835 96.2045 98.5508 98.1953 96.9897Z" fill="#FFF1E6"/>
<path d="M211.127 124.128C208.865 120.63 206.223 118.14 204.473 116.709C206.659 114.317 207.595 111.677 207.259 108.837C206.329 100.97 195.638 94.4108 191.216 92.0151C192.527 88.8857 192.139 85.7139 190.057 82.7414C189.594 82.0796 189.044 81.4307 188.412 80.7954C189.977 78.1669 191.853 74.2181 192.282 69.8589C192.846 64.1266 190.689 59.1896 186.045 55.5817C180.209 51.0472 172.163 49.787 164.521 52.2115C156.664 54.704 150.449 60.6715 147.643 68.3266C141.251 68.1361 135.153 68.601 129.998 69.7452C126.594 70.5006 122.978 71.6768 119.234 73.2371C113.691 68.3762 106.34 66.0157 98.8635 66.8375C90.6699 67.7377 83.7118 72.3073 80.2519 79.0622C77.5706 84.2977 77.705 89.6843 80.6408 94.6404C81.7042 96.436 83.0268 98.0059 84.3935 99.3461C81.561 103.607 80.4327 107.434 81.0505 110.737C81.4201 112.714 82.3931 114.421 83.9518 115.834C82.8916 117.283 81.2825 119.625 79.7854 122.367C76.3247 128.709 75.2293 133.919 76.5304 137.854C77.4282 140.568 79.3917 142.564 82.3819 143.807C81.1745 146.29 79.4197 150.706 79.0893 155.919C78.5716 164.092 81.7458 171.486 88.2702 177.301C96.107 184.288 105.855 187.802 117.344 187.802C120.656 187.802 124.112 187.51 127.709 186.925C128.745 186.756 129.449 185.78 129.28 184.743C129.112 183.707 128.136 183.004 127.099 183.173C112.211 185.595 99.9989 182.665 90.8003 174.464C77.7106 162.797 84.1262 148.427 86.4011 144.307C86.5979 143.954 86.7195 143.758 86.7332 143.737C87.0604 143.223 87.1212 142.583 86.8972 142.017C86.6731 141.45 86.1906 141.025 85.6009 140.875C82.6116 140.111 80.8256 138.733 80.1407 136.663C78.1771 130.731 85.2137 120.221 88.0902 116.673C88.4319 116.252 88.5775 115.705 88.4911 115.17C88.4039 114.635 88.0926 114.163 87.6357 113.871C86.0074 112.834 85.0752 111.581 84.7872 110.039C84.3799 107.858 85.2473 105.051 87.2973 101.85C87.9054 102.313 88.4927 102.729 89.0344 103.09C89.3585 103.306 89.7249 103.409 90.0874 103.409C90.7011 103.409 91.3044 103.112 91.6701 102.563C92.2526 101.69 92.0166 100.51 91.1428 99.9271C79.9174 92.4424 81.621 84.7265 83.635 80.7938C86.5107 75.1807 92.359 71.3752 99.2788 70.615C106.898 69.7765 114.366 72.797 119.254 78.691C119.924 79.4991 121.122 79.6111 121.93 78.9406C122.738 78.2709 122.851 77.0723 122.18 76.2641C122.154 76.2337 122.129 76.2049 122.103 76.1745C125.136 74.9831 128.06 74.0677 130.822 73.4548C139.957 71.4272 152.28 71.6416 163.785 74.0301C175.164 76.3921 183.821 80.4633 186.944 84.921C188.546 87.2094 188.578 89.3962 187.044 91.8047C186.752 92.2616 186.671 92.8217 186.818 93.3434C186.965 93.8651 187.329 94.2988 187.816 94.5356C191.926 96.5344 202.752 103.08 203.484 109.285C203.739 111.449 202.703 113.453 200.319 115.41C199.849 115.796 199.593 116.385 199.629 116.991C199.665 117.598 199.989 118.153 200.501 118.481C200.544 118.508 204.781 121.259 208.009 126.307C212.242 132.929 212.842 140.264 209.793 148.105C205.351 159.518 196.49 166.45 183.455 168.71C173.518 170.433 164.764 168.664 164.678 168.647L163.902 172.367C164.158 172.421 168.342 173.273 174.291 173.273C177.187 173.273 180.504 173.071 183.985 172.475C198.284 170.03 208.433 162.08 213.336 149.482C217.741 138.16 214.566 129.445 211.127 124.128ZM185.447 78.3309C180.654 74.9583 173.409 72.1465 164.558 70.3086C160.307 69.4268 155.944 68.8363 151.651 68.529C154.227 62.5079 159.322 57.8478 165.671 55.8338C172.12 53.7878 178.865 54.8152 183.713 58.5831C187.124 61.2332 191.788 67.2864 185.447 78.3309Z" fill="#D3A98C"/>
<path d="M123.356 134.626C123.03 134.626 122.699 134.542 122.397 134.365C121.491 133.834 121.187 132.669 121.718 131.764C121.918 131.423 126.764 123.402 139.299 123.402C139.316 123.402 139.331 123.402 139.348 123.402C140.398 123.404 141.247 124.257 141.245 125.306C141.244 126.354 140.393 127.203 139.345 127.203C139.333 127.204 139.315 127.203 139.299 127.203C128.917 127.203 125.035 133.621 124.997 133.686C124.644 134.29 124.008 134.626 123.356 134.626Z" fill="#5F5C5D"/>
<path d="M170.872 120.205C170.157 120.205 169.473 119.801 169.15 119.112C168.704 118.161 169.113 117.03 170.063 116.584C181.446 111.246 189.25 116.477 189.576 116.702C190.44 117.298 190.657 118.482 190.062 119.346C189.468 120.207 188.29 120.425 187.427 119.837C187.146 119.649 180.985 115.661 171.678 120.025C171.417 120.148 171.142 120.205 170.872 120.205Z" fill="#5F5C5D"/>
<path d="M170.478 126.842C169.427 126.771 168.523 127.56 168.451 128.607C168.434 128.851 168.39 129.104 168.32 129.351C168.242 129.625 168.121 129.902 167.961 130.177C167.333 131.252 166.202 132.04 164.859 132.337C163.268 132.691 161.648 132.285 160.629 131.28C160.619 131.27 160.61 131.26 160.599 131.251C160.451 131.111 160.324 130.96 160.192 130.767C159.972 130.452 159.815 130.09 159.726 129.69C159.722 129.672 159.717 129.656 159.712 129.638L158.214 122.889C157.987 121.864 156.971 121.218 155.947 121.446C154.922 121.673 154.277 122.688 154.504 123.713L156.014 130.515C156.015 130.521 156.018 130.527 156.019 130.533C156.106 130.934 156.114 131.332 156.04 131.717C156.001 131.926 155.945 132.127 155.867 132.333C155.375 133.676 154.083 134.729 152.495 135.082C151.262 135.355 149.996 135.172 149.017 134.579C148.96 134.545 148.901 134.513 148.841 134.485C148.819 134.472 148.795 134.455 148.753 134.426C148.292 134.114 147.92 133.707 147.675 133.249C147.182 132.323 146.03 131.972 145.104 132.466C144.177 132.96 143.827 134.111 144.321 135.037C144.855 136.04 145.652 136.917 146.599 137.558C146.789 137.69 146.961 137.794 147.13 137.879C148.398 138.627 149.848 139.011 151.349 139.011C151.999 139.011 152.659 138.939 153.318 138.792C155.725 138.258 157.776 136.759 158.909 134.776C160.787 136.095 163.279 136.581 165.684 136.048C168.056 135.521 170.083 134.08 171.243 132.095C171.564 131.546 171.81 130.974 171.978 130.387C172.12 129.882 172.21 129.371 172.244 128.869C172.315 127.821 171.525 126.914 170.478 126.842Z" fill="#D3A98C"/>
<path d="M151.802 121.326C152.583 120.081 154.225 119.706 155.468 120.487L155.769 120.676L155.958 120.375C156.739 119.131 158.381 118.756 159.624 119.536C160.868 120.317 161.244 121.959 160.463 123.203L159.792 124.271C158.497 126.335 155.773 126.958 153.709 125.662L152.64 124.992C151.396 124.211 151.021 122.569 151.802 121.326Z" fill="#E27FA3"/>
<path d="M210.703 150.857C208.087 148.53 208.565 146.918 206.529 145.96C204.493 145.002 202.193 144.7 199.935 144.409C197.069 144.04 194.203 143.671 191.336 143.302C189.958 143.124 188.543 142.949 187.174 143.268C184.574 143.875 182.713 146.088 180.643 147.784C177.246 150.567 171.946 153.709 168.025 151.982C163.526 150 158.25 152.541 153.892 155.082C150.249 157.207 146.634 159.38 143.019 161.552C139.095 163.911 134.959 166.491 132.927 170.535C131.387 173.598 131.265 177.13 129.992 180.302C128.481 184.07 125.444 187.109 123.701 190.785C121.959 194.462 122.07 199.614 125.637 201.444C130.302 203.838 133.148 208.423 138.411 209.138C141.802 209.598 145.256 208.634 148.588 207.681C153.421 206.298 158.281 204.904 162.841 202.762C169.32 199.717 175.363 195.117 182.434 194.343C187.648 193.773 191.66 188.44 195.213 184.561C197.718 181.825 200.721 179.573 203.368 176.968C206.194 174.187 208.609 171.005 210.507 167.561C211.839 165.144 212.93 162.548 213.162 159.842C213.394 157.137 212.596 152.767 210.703 150.857Z" fill="#E2A864"/>
<path d="M213.162 159.842C213.331 157.869 212.946 155.022 211.995 152.878C209.939 154.081 208.291 156.137 207.192 158.277C205.587 161.399 204.781 164.854 203.102 167.94C200.811 172.154 197.053 175.413 193.379 178.568C189.102 182.242 184.79 185.94 179.903 188.767C176.107 190.962 172.021 192.597 167.953 194.224C164.87 195.456 161.786 196.689 158.703 197.922C154.338 199.668 149.971 201.413 145.605 203.159C143.454 204.019 141.207 204.896 138.922 204.743C135.941 204.545 133.425 202.637 130.541 201.93C129.367 201.643 128.003 201.724 126.801 202.112C130.807 204.604 133.601 208.485 138.411 209.138C141.802 209.598 145.256 208.634 148.588 207.681C153.421 206.298 158.281 204.904 162.841 202.762C169.32 199.717 175.363 195.117 182.434 194.343C187.648 193.773 191.66 188.44 195.212 184.561C197.718 181.824 200.721 179.573 203.368 176.968C206.194 174.187 208.609 171.005 210.507 167.561C211.838 165.145 212.929 162.548 213.162 159.842Z" fill="#C68554"/>
<path d="M205.048 152.658C206.308 150.787 204.933 148.139 202.855 147.355C200.777 146.57 198.388 147.15 196.272 147.979C194.156 148.807 193.759 148.925 191.513 149.169C189.02 149.44 186.427 148.66 184.058 149.523C181.753 150.363 180.265 152.528 178.597 154.319C176.93 156.111 174.452 157.723 172.03 157.567C168.786 157.359 164.296 155.783 161.132 156.656C157.534 157.647 154.075 159.1 150.629 160.548C146.283 162.375 142.862 166.512 140.319 170.438C139.086 172.341 138.452 174.538 137.42 176.549C135.831 179.646 133.344 182.22 131.395 185.121C129.447 188.021 128.009 191.574 128.926 194.843C130.093 199.01 136.768 200.444 140.848 198.577C143.235 197.485 145.149 195.381 147.687 194.736C150.829 193.938 154.03 195.588 157.246 195.291C162.959 194.766 166.441 188.652 171.603 186.058C174.635 184.533 178.183 184.276 181.158 182.642C183.642 181.278 185.521 179.07 187.339 176.914C190.946 172.635 195.38 170.652 198.987 166.372C202.612 162.073 201.917 157.311 205.048 152.658Z" fill="#F0BC74"/>
<path d="M143.322 175.797C144.588 175.298 145.692 174.448 146.651 173.486C147.261 172.874 147.839 172.179 148.045 171.355C148.252 170.531 147.987 169.557 147.237 169.171C146.501 168.792 145.584 169.071 144.791 169.379C143.191 170 141.598 170.703 140.094 171.535C139.243 172.006 138.016 172.679 137.679 173.656C136.731 176.418 141.818 176.39 143.322 175.797Z" fill="#E2A864"/>
<path d="M136.991 171.964C136.79 173.077 137.478 174.057 138.525 174.465C139.572 174.873 140.915 174.765 142.163 174.356C143.411 173.946 144.579 173.255 145.674 172.504C146.638 171.841 147.645 171.002 147.824 170.023C148.56 165.988 137.775 167.623 136.991 171.964Z" fill="#85523F"/>
<path d="M145.435 170.314C144.443 171.127 143.573 172.165 142.364 172.594C141.269 172.983 139.994 172.774 139.12 172.065C138.529 171.584 138.143 170.884 138.013 170.134C137.482 170.67 137.114 171.283 136.991 171.963C136.79 173.075 137.478 174.056 138.525 174.464C139.573 174.871 140.915 174.764 142.163 174.355C143.411 173.945 144.578 173.255 145.673 172.503C146.637 171.84 147.644 171.002 147.823 170.022C147.875 169.737 147.864 169.482 147.809 169.252C146.975 169.31 146.109 169.763 145.435 170.314Z" fill="#704334"/>
<path d="M140.207 169.677C140.93 169.051 141.882 168.702 142.834 168.594C143.787 168.5 144.777 168.644 145.582 169.11C144.652 168.998 143.763 168.96 142.87 169.061C141.975 169.148 141.106 169.371 140.207 169.677Z" fill="#D6A89D"/>
<path d="M139.762 176.097C141.214 175.717 142.605 175.246 143.927 174.599C145.255 173.965 146.492 173.168 147.696 172.267C146.748 173.432 145.49 174.353 144.127 175.018C142.757 175.67 141.256 176.081 139.762 176.097Z" fill="#FFDFB8"/>
<path d="M213.162 159.842C213.394 157.137 212.597 152.766 210.703 150.857C208.087 148.53 208.565 146.918 206.53 145.96C204.494 145.002 202.194 144.7 199.936 144.409C197.07 144.039 194.203 143.671 191.336 143.301C189.958 143.123 188.543 142.948 187.174 143.267C184.574 143.874 182.713 146.088 180.643 147.783C177.246 150.566 171.946 153.708 168.025 151.981C165.4 150.824 162.511 151.213 159.694 152.237C160.684 154.449 163.151 155.743 165.627 156.076C168.18 156.418 170.79 155.936 173.369 155.611C179.307 154.86 185.507 154.973 190.889 157.319C196.27 159.665 200.678 164.586 201.077 170.406C201.397 175.077 199.202 179.556 196.271 183.461C198.536 181.201 201.083 179.215 203.367 176.967C206.193 174.186 208.609 171.005 210.506 167.561C211.838 165.145 212.93 162.548 213.162 159.842Z" fill="#D3975B"/>
<path d="M202.856 147.355C200.778 146.571 198.388 147.151 196.273 147.98C194.158 148.808 193.759 148.925 191.513 149.17C189.02 149.441 186.428 148.66 184.059 149.523C181.754 150.363 180.265 152.528 178.598 154.32C178.3 154.639 177.97 154.948 177.626 155.248C182.203 155.046 186.784 155.532 190.888 157.321C194.647 158.96 197.926 161.857 199.7 165.439C202.527 161.388 202.142 156.978 205.047 152.661C206.308 150.787 204.933 148.139 202.856 147.355Z" fill="#E2AC6A"/>
<path d="M213.162 159.842C213.331 157.869 212.947 155.022 211.995 152.878C209.939 154.081 208.291 156.137 207.192 158.277C205.588 161.399 204.781 164.854 203.103 167.94C202.52 169.013 201.84 170.022 201.093 170.984C201.203 175.446 199.08 179.719 196.27 183.462C198.536 181.203 201.083 179.216 203.367 176.969C206.192 174.188 208.608 171.006 210.506 167.562C211.838 165.145 212.93 162.548 213.162 159.842Z" fill="#BC7A4D"/>
<path d="M159.706 176.399C160.726 176.947 162.014 176.901 163.137 176.508C164.261 176.115 165.25 175.41 166.181 174.667C167.141 173.901 168.088 173.047 168.581 171.94C169.074 170.833 168.989 169.411 168.081 168.646C167.118 167.834 165.574 168.027 164.459 168.703C163.344 169.378 162.53 170.433 161.648 171.389C161.179 171.898 160.675 172.391 160.095 172.779C159.7 173.044 158.645 173.236 158.385 173.549C157.65 174.433 159.004 176.022 159.706 176.399Z" fill="#E2A864"/>
<path d="M165.428 168.051C167.317 168.646 167.772 170.898 166.596 172.566C165.42 174.234 163.022 175.22 160.895 175.216C159.711 175.213 158.485 174.873 158.056 174.005C156.844 171.557 162.62 167.167 165.428 168.051Z" fill="#85523F"/>
<path d="M164.267 172.043C163.179 172.773 161.997 173.615 160.711 173.487C159.517 173.367 159.173 172.309 158.454 171.683C157.931 172.504 157.721 173.328 158.055 174.005C158.484 174.873 159.71 175.213 160.894 175.216C163.021 175.22 165.419 174.234 166.595 172.566C166.951 172.061 167.14 171.503 167.202 170.953C166.2 170.902 165.147 171.452 164.267 172.043Z" fill="#704334"/>
<path d="M160.486 176.627C162.197 176.747 163.902 176.369 165.336 175.499C166.771 174.636 167.899 173.304 168.59 171.737C168.262 173.416 167.107 174.969 165.576 175.897C164.041 176.819 162.129 177.116 160.486 176.627Z" fill="#FFDFB8"/>
<path d="M161.33 169.933C161.914 169.311 162.802 168.991 163.658 168.967C164.515 168.951 165.398 169.23 165.969 169.826C164.429 169.268 162.881 169.301 161.33 169.933Z" fill="#D6A89D"/>
<path d="M142.334 192.411C143.646 192.995 145.261 192.801 146.544 192.076C147.827 191.352 148.793 190.149 149.398 188.828C149.728 188.108 149.964 187.325 149.891 186.551C149.819 185.777 149.395 185.014 148.683 184.692C148.093 184.424 147.382 184.485 146.759 184.713C146.135 184.941 145.579 185.323 145.033 185.7C144.188 186.283 143.342 186.866 142.497 187.448C141.925 187.844 140.785 188.338 140.422 188.942C139.669 190.196 141.303 191.951 142.334 192.411Z" fill="#E2A864"/>
<path d="M140.845 190.605C141.635 191.428 143.021 191.685 144.334 191.386C145.648 191.087 146.872 190.282 147.775 189.286C148.472 188.517 149.014 187.522 148.774 186.676C148.561 185.926 147.784 185.482 146.966 185.272C143.87 184.476 137.757 187.39 140.845 190.605Z" fill="#85523F"/>
<path d="M148.714 187.76C148.159 187.487 147.404 187.588 146.797 187.86C146.041 188.198 145.372 188.736 144.577 188.959C143.829 189.169 143.003 189.065 142.348 188.69C141.659 188.295 141.467 187.438 140.865 187.036C139.874 188.019 139.577 189.284 140.846 190.606C141.636 191.428 143.022 191.685 144.335 191.387C145.648 191.088 146.873 190.283 147.775 189.285C148.186 188.83 148.54 188.296 148.714 187.76Z" fill="#704334"/>
<path d="M143.543 186.332C144.058 185.854 144.793 185.642 145.492 185.65C146.191 185.67 146.901 185.914 147.36 186.413C146.701 186.237 146.095 186.127 145.466 186.119C144.837 186.1 144.22 186.184 143.543 186.332Z" fill="#D6A89D"/>
<path d="M145.065 192.635C146.169 192.032 147.15 191.311 147.98 190.43C148.818 189.557 149.484 188.55 150.022 187.43C149.844 188.653 149.198 189.818 148.324 190.744C147.441 191.663 146.299 192.374 145.065 192.635Z" fill="#FFDFB8"/>
<path d="M177.9 174.814C178.216 175.878 179.204 176.698 180.33 176.833C181.407 176.963 182.497 176.508 183.415 175.9C185.112 174.777 186.421 173.089 187.065 171.196C187.335 170.404 187.436 169.406 186.798 168.887C186.103 168.322 185.039 168.697 184.201 169.092C182.563 169.864 180.798 170.528 179.218 171.409C178.073 172.047 177.519 173.618 177.9 174.814Z" fill="#E2A864"/>
<path d="M180.071 174.51C180.978 174.843 182.02 174.744 182.945 174.396C184.297 173.886 185.445 172.837 186.063 171.55C186.453 170.737 186.63 169.77 186.257 168.976C183.943 164.04 174.336 172.406 180.071 174.51Z" fill="#85523F"/>
<path d="M186.072 169.294C185.349 169.777 184.83 170.495 184.239 171.129C183.648 171.762 182.904 172.349 182.043 172.409C181.06 172.477 180.157 171.804 179.751 170.938C179.582 170.577 179.499 170.189 179.458 169.791C177.989 171.471 177.562 173.589 180.071 174.51C180.978 174.843 182.02 174.744 182.945 174.396C184.297 173.886 185.445 172.837 186.063 171.55C186.425 170.795 186.583 169.915 186.309 169.155C186.227 169.198 186.147 169.243 186.072 169.294Z" fill="#704334"/>
<path d="M181.337 169.062C181.805 168.509 182.559 168.223 183.285 168.197C184.011 168.179 184.765 168.42 185.228 168.945C183.904 168.532 182.663 168.566 181.337 169.062Z" fill="#D6A89D"/>
<path d="M179.957 175.988C181.318 175.871 182.611 175.522 183.795 174.922C184.985 174.33 186.039 173.503 186.952 172.48C186.349 173.709 185.251 174.706 184.002 175.337C182.747 175.96 181.295 176.241 179.957 175.988Z" fill="#FFDFB8"/>
<path d="M183.799 160.143C184.569 160.351 185.4 160.036 186.116 159.65C187.166 159.084 188.127 158.35 188.947 157.488C189.59 156.812 190.164 156.016 190.3 155.111C190.435 154.207 190.012 153.192 189.147 152.89C188.144 152.54 187.062 153.219 186.186 153.862C185.413 154.429 184.639 154.996 183.867 155.562C183.345 155.945 182.352 156.411 182.076 157.021C181.592 158.095 182.747 159.883 183.799 160.143Z" fill="#E2A864"/>
<path d="M190.3 155.111C190.435 154.207 190.012 153.192 189.147 152.89C188.144 152.54 187.062 153.219 186.186 153.862C185.449 154.403 184.711 154.943 183.974 155.483C185.879 155.727 187.743 156.145 189.531 156.788C189.909 156.279 190.209 155.722 190.3 155.111Z" fill="#D3975B"/>
<path d="M182.568 158.124C184.015 158.917 185.93 158.445 187.32 157.47C187.911 157.054 188.452 156.542 188.788 155.91C189.123 155.279 189.234 154.515 188.973 153.869C188.529 152.768 187.128 152.306 185.918 152.513C183.697 152.894 178.941 156.142 182.568 158.124Z" fill="#85523F"/>
<path d="M185.919 152.513C184.628 152.734 182.491 153.924 181.63 155.27C183.959 155.4 186.247 155.763 188.439 156.433C188.569 156.268 188.689 156.096 188.788 155.91C189.123 155.279 189.234 154.515 188.973 153.869C188.53 152.767 187.129 152.306 185.919 152.513Z" fill="#7A4939"/>
<path d="M188.822 154.56C188.016 154.875 187.346 155.456 186.633 155.946C185.552 156.689 184.116 157.205 183.044 156.249C182.692 155.935 182.374 155.263 181.953 154.838C181.027 155.919 180.818 157.168 182.568 158.125C184.015 158.917 185.93 158.445 187.32 157.47C187.911 157.054 188.451 156.542 188.788 155.91C189.024 155.465 189.14 154.956 189.102 154.467C189.008 154.494 188.913 154.524 188.822 154.56Z" fill="#704334"/>
<path d="M181.631 155.271C181.87 155.284 182.107 155.311 182.346 155.329C182.223 155.155 182.097 154.985 181.957 154.843C181.838 154.983 181.724 155.125 181.631 155.27L181.631 155.271Z" fill="#60372C"/>
<path d="M189.053 155.141C189.097 154.918 189.121 154.691 189.103 154.467C189.007 154.494 188.914 154.524 188.822 154.56C188.016 154.876 187.347 155.456 186.633 155.947C186.628 155.95 186.623 155.952 186.619 155.956C187.232 156.095 187.84 156.251 188.439 156.434C188.569 156.269 188.689 156.096 188.788 155.911C188.897 155.705 188.973 155.485 189.028 155.26C189.038 155.22 189.045 155.181 189.053 155.141Z" fill="#60372C"/>
<path d="M183.964 154.069C184.476 153.55 185.215 153.277 185.941 153.219C186.667 153.174 187.423 153.342 187.972 153.787C187.267 153.686 186.619 153.635 185.958 153.687C185.297 153.727 184.657 153.868 183.964 154.069Z" fill="#D6A89D"/>
<path d="M182.647 159.984C183.799 160.278 185.061 160.19 186.184 159.737C187.307 159.285 188.285 158.469 188.925 157.452" stroke="#FFDFB8" stroke-width="0.5122" stroke-miterlimit="10"/>
<path d="M111.881 222.718L122.726 203.315C127.783 193.459 156.891 182.457 162.779 195.988C168.676 209.519 130.046 234.178 111.881 222.718Z" fill="#F8D4AE"/>
<path d="M123.291 227.586C117.543 227.586 113.513 225.995 110.867 224.325C105.949 221.225 103.089 215.725 103.023 209.237C102.927 199.872 108.523 190.089 117.281 184.314C118.157 183.736 119.335 183.978 119.914 184.854C120.492 185.73 120.25 186.909 119.374 187.487C111.667 192.569 106.741 201.091 106.824 209.198C106.878 214.445 109.034 218.676 112.896 221.11C117.689 224.135 124.769 224.586 132.83 222.379C140.07 220.398 147.767 216.318 153.419 211.465C159.814 205.976 162.661 200.474 161.038 196.748C159.617 193.484 156.426 191.751 151.55 191.596C141.076 191.266 127.383 198.404 124.418 204.183C123.939 205.117 122.793 205.486 121.859 205.007C120.925 204.527 120.556 203.381 121.036 202.448C124.944 194.832 140.41 187.438 151.67 187.796C158.05 187.998 162.494 190.569 164.522 195.229C166.882 200.646 163.737 207.613 155.894 214.348C149.745 219.627 141.704 223.89 133.832 226.045C129.812 227.145 126.313 227.586 123.291 227.586Z" fill="#D3A98C"/>
<path d="M210.125 204.841C216.038 198.927 214.627 187.928 206.972 180.273C199.317 172.618 188.317 171.206 182.403 177.12C176.49 183.033 177.902 194.033 185.557 201.688C193.212 209.343 204.211 210.755 210.125 204.841Z" fill="#F8D4AE"/>
<path d="M200.713 210.374C195.139 210.374 189.041 207.857 184.215 203.032C180.217 199.034 177.658 194.048 177.009 188.993C176.337 183.756 177.776 179.062 181.062 175.776C187.707 169.131 199.934 170.545 208.318 178.929C216.702 187.313 218.116 199.54 211.471 206.184C208.65 209.005 204.823 210.374 200.713 210.374ZM191.836 175.354C188.71 175.354 185.847 176.367 183.749 178.463C181.314 180.898 180.26 184.465 180.778 188.508C181.321 192.734 183.496 196.937 186.902 200.343C193.803 207.244 203.619 208.658 208.782 203.497C213.946 198.333 212.531 188.518 205.63 181.616C201.531 177.518 196.405 175.354 191.836 175.354Z" fill="#D3A98C"/>
<path d="M82.6385 263.91L83.2604 261.489L80.8391 260.867L81.461 258.446L79.0396 257.824L80.9056 250.559L83.327 251.181L83.949 248.76L86.3704 249.382L86.9923 246.961L96.6779 249.449L96.0559 251.87L98.4773 252.492L97.8553 254.913L93.0126 253.669L93.6345 251.248L88.7918 250.004L88.1698 252.425L85.7484 251.803L83.8824 259.068L86.3038 259.69L85.6818 262.111L90.5246 263.355L91.1466 260.934L95.9894 262.177L95.3674 264.599L92.946 263.977L92.324 266.398L82.6385 263.91ZM108.016 270.108L108.309 267.625L105.826 267.332L106.705 259.883L109.188 260.176L109.481 257.694L121.895 259.159L121.602 261.641L124.085 261.934L123.206 269.383L120.723 269.09L120.43 271.573L108.016 270.108ZM110.792 267.918L118.24 268.797L119.119 261.348L111.671 260.469L110.792 267.918ZM136.484 273.16L136.45 270.66L133.95 270.694L133.848 263.195L136.348 263.161L136.313 260.661L148.812 260.49L148.846 262.99L151.346 262.956L151.449 270.455L148.949 270.489L148.983 272.989L136.484 273.16ZM138.95 270.626L146.449 270.523L146.347 263.024L138.847 263.126L138.95 270.626ZM162.633 272.824L160.106 255.507L165.054 254.785L166.498 264.681L171.446 263.958L171.084 261.485L173.558 261.124L173.197 258.65L178.145 257.928L178.506 260.402L176.032 260.763L176.393 263.236L173.919 263.597L174.28 266.071L176.754 265.71L177.115 268.184L179.589 267.823L179.95 270.297L175.002 271.019L174.641 268.545L172.168 268.906L171.807 266.432L166.859 267.154L167.581 272.102L162.633 272.824ZM194.044 252.222L193.354 249.82L198.159 248.439L198.85 250.842L194.044 252.222ZM193.381 268.02L192.691 265.617L197.496 264.236L195.425 257.028L193.022 257.718L192.332 255.316L199.54 253.244L202.302 262.856L207.107 261.475L207.798 263.878L193.381 268.02ZM220.863 259.84L219.9 257.533L217.593 258.497L214.703 251.576L217.01 250.613L216.046 248.306L227.581 243.489L228.544 245.795L230.851 244.832L232.778 249.446L221.243 254.263L222.207 256.57L231.434 252.716L232.398 255.023L220.863 259.84ZM220.28 251.956L227.201 249.066L226.237 246.759L219.316 249.649L220.28 251.956Z" fill="#5D4037"/>
</g>
<defs>
<clipPath id="clip0_213_931">
<rect width="300" height="300" fill="white"/>
</clipPath>
</defs>
</svg>
