<svg width="127" height="136" viewBox="0 0 127 136" fill="none" xmlns="http://www.w3.org/2000/svg">
<path d="M86.9128 44.4882C93.6366 37.9233 97.6872 27.4226 87.7126 17.0367C77.7379 6.65083 56.0423 -0.349832 42.2546 1.86362C28.4669 4.07707 10.0528 17.5161 3.82981 30.5022C-2.39314 43.4883 4.74012 52.1935 13.1814 56.3239L86.9128 44.4882Z" fill="#95E0E8"/>
<path d="M12.5397 57.6339C9.00036 55.9017 4.24507 52.7141 1.69033 47.3622C-0.812228 42.1201 -0.534787 36.236 2.51469 29.8719C5.55742 23.5225 11.6895 16.6335 19.3378 10.971C26.9075 5.3674 35.1757 1.52302 42.0235 0.42366C48.8713 -0.675699 57.9271 0.388057 66.8705 3.34055C75.9066 6.32435 83.8869 10.9483 88.7637 16.0265C93.6516 21.1163 95.757 26.618 95.0205 32.38C94.2685 38.2628 90.7501 42.7788 87.9308 45.5311L85.8935 43.4448C89.4101 40.011 91.6242 35.95 92.1275 32.0098C92.7468 27.1661 90.9072 22.4679 86.6602 18.0459C77.1508 8.14495 56.0966 1.11667 42.4851 3.30249C28.8748 5.48709 11.0769 18.7518 5.14371 31.1314C2.49445 36.6602 2.21762 41.6984 4.32119 46.1051C6.03253 49.6898 9.40671 52.8534 13.8207 55.0141L12.5397 57.6339Z" fill="#63D3D6"/>
<path d="M15.8146 91.7974C29.5852 106.624 56.7874 92.3842 56.7874 92.3842C56.7874 92.3842 87.0741 97.3954 95.5178 79.0028C101.433 66.1076 90.266 58.0438 90.266 58.0438C99.4837 51.3531 82.8835 42.0451 82.8835 42.0451C89.762 32.5425 63.4854 29.3334 47.0883 31.9655C30.6863 34.5982 6.73922 45.8698 16.2412 52.7428C16.2412 52.7428 3.39389 66.7779 14.2426 70.2472C14.2426 70.2472 14.1401 70.389 13.9664 70.6616C12.635 72.7688 7.253 82.5808 15.8146 91.7974Z" fill="#F8D4AE"/>
<path d="M51.0811 56.8498C43.5722 58.0554 42.7202 69.9415 36.9098 72.8485C28.0314 77.2816 21.2978 75.3548 14.2388 70.2484C14.2388 70.2484 6.15658 81.4022 15.8108 91.7979C29.5869 106.624 56.7854 92.3841 56.7854 92.3841C56.7854 92.3841 87.0746 97.3948 95.5183 79.0027C101.434 66.1075 90.2664 58.0437 90.2664 58.0437C85.16 65.1027 79.368 69.0404 69.5486 67.6089C63.1194 66.6667 58.59 55.6443 51.0811 56.8498Z" fill="#FFF1E6"/>
<path d="M91.0562 71.7692C92.3549 66.3267 88.9956 60.8618 83.5531 59.5632C78.1105 58.2645 72.6457 61.6238 71.3471 67.0663C70.0484 72.5088 73.4076 77.9737 78.8502 79.2723C84.2927 80.571 89.7576 77.2117 91.0562 71.7692Z" fill="#FD9DB4"/>
<path d="M32.4802 86.3302C36.9603 82.9781 37.8748 76.6288 34.5226 72.1486C31.1705 67.6685 24.8212 66.7541 20.341 70.1062C15.8609 73.4583 14.9464 79.8077 18.2986 84.2878C21.6507 88.768 28 89.6824 32.4802 86.3302Z" fill="#FD9DB4"/>
<path d="M33.113 99.9932C25.4347 99.9932 19.1768 97.5612 14.7462 92.7906C6.49578 83.9091 10.2334 74.4544 12.1166 70.9476C10.296 70.0048 9.13708 68.6292 8.66198 66.8442C7.34717 61.9011 12.0319 55.5001 14.1993 52.8773C11.9607 50.4367 12.0214 47.0165 14.4387 43.2672L16.8897 44.8478C14.0029 49.3257 16.3305 51.01 17.0959 51.5631C17.4329 51.8067 17.6496 52.183 17.6919 52.5967C17.7343 53.0105 17.598 53.4223 17.3169 53.7292C17.2991 53.7489 15.4607 55.7702 13.8291 58.3882C11.8115 61.6261 10.9988 64.2919 11.48 66.0972C11.8207 67.3758 12.8697 68.2793 14.6867 68.8606C15.1317 69.003 15.4816 69.3498 15.6276 69.7943C15.7737 70.238 15.6976 70.7254 15.4239 71.1042C15.4134 71.1183 15.3306 71.2361 15.1955 71.4479C14.5608 72.4521 13.0336 75.1818 12.6285 78.7315C12.1227 83.1615 13.5535 87.2244 16.8823 90.8073C22.214 96.5478 30.3668 98.3733 41.1149 96.236C49.345 94.5983 56.0443 91.1296 56.1112 91.0946C56.3917 90.9479 56.7127 90.8957 57.0252 90.9485C57.0988 90.9601 64.5457 92.1583 72.8741 91.1381C83.7505 89.8049 90.923 85.5186 94.1922 78.397C99.5221 66.7791 89.8243 59.5299 89.4093 59.2267C89.0324 58.9517 88.8084 58.5122 88.809 58.0463C88.8096 57.5798 89.0318 57.1409 89.4093 56.8665C90.9525 55.7463 91.6657 54.5598 91.589 53.2394C91.481 51.374 89.874 49.0967 86.943 46.6531C84.573 44.6778 82.1938 43.3329 82.1699 43.3194C81.8077 43.1156 81.5487 42.767 81.4597 42.3606C81.3707 41.9549 81.4585 41.5295 81.7021 41.1925C82.5406 40.0342 83.3546 38.194 80.7489 35.5993L82.807 33.5332C85.374 36.0904 86.0781 38.8845 84.8676 41.5369C87.7508 43.3507 94.2014 47.9624 94.4998 53.0675C94.6078 54.9109 93.9375 56.5792 92.5048 58.0444C93.5864 59.0664 95.1117 60.733 96.3787 62.9728C98.4184 66.5784 100.155 72.3926 96.8427 79.6136C93.1678 87.6191 84.9787 92.6076 73.1614 94.0409C65.5665 94.9623 58.8587 94.1575 57.0295 93.8979C55.3728 94.7173 49.2529 97.5802 41.7508 99.0829C38.7074 99.6906 35.8212 99.9932 33.113 99.9932Z" fill="#D3A98C"/>
<path d="M58.4721 68.7889L53.9476 65.516L53.3301 61.6698C53.2024 60.8749 52.4542 60.3329 51.6593 60.4612C50.8644 60.5889 50.323 61.3371 50.4507 62.132L51.0682 65.9782L47.7953 70.5027C47.3232 71.1552 47.4699 72.0668 48.1224 72.5388C48.3809 72.726 48.6798 72.8156 48.9756 72.8156C49.4274 72.8156 49.8731 72.6063 50.1585 72.2122L52.9311 68.3795L56.7638 71.1522C57.4163 71.6242 58.3279 71.4781 58.7999 70.8256C59.2707 70.1725 59.1246 69.261 58.4721 68.7889Z" fill="#D3A98C"/>
<path d="M32.5339 69.6558C31.8304 69.6558 31.2111 69.1457 31.0963 68.4288C30.9686 67.6339 31.51 66.8856 32.3049 66.7579L40.6456 65.4192C41.4398 65.2909 42.1887 65.8329 42.3164 66.6278C42.444 67.4227 41.9027 68.171 41.1078 68.2986L32.7671 69.6374C32.6885 69.6497 32.6106 69.6558 32.5339 69.6558Z" fill="#5F5C5D"/>
<path d="M63.9055 64.6197C63.202 64.6197 62.5827 64.109 62.4679 63.3926C62.3402 62.5977 62.8816 61.8495 63.6765 61.7218L72.0171 60.3831C72.8114 60.2548 73.5603 60.7968 73.688 61.5917C73.8156 62.3866 73.2743 63.1348 72.4794 63.2625L64.1387 64.6013C64.0601 64.6135 63.9822 64.6197 63.9055 64.6197Z" fill="#5F5C5D"/>
<path d="M49.0283 60.4529C49.5795 59.6807 50.6518 59.5015 51.424 60.0527L51.6106 60.1859L51.7438 59.9993C52.2951 59.2271 53.3674 59.0479 54.1396 59.5991C54.9118 60.1503 55.091 61.2226 54.5398 61.9948L54.0665 62.6578C53.1519 63.9388 51.3725 64.2365 50.0914 63.3219L49.4285 62.8487C48.6563 62.2981 48.4771 61.2251 49.0283 60.4529Z" fill="#E27FA3"/>
<path d="M78.0885 34.6562C78.9484 40.0125 66.3927 46.4816 50.0453 49.1057C33.6973 51.7298 19.7482 49.5151 18.8882 44.1595L78.0885 34.6562Z" fill="#767576"/>
<path d="M36.8953 51.6666C29.9265 51.6666 24.1154 50.6262 20.7541 48.6288C20.0617 48.2175 19.834 47.3226 20.2453 46.6302C20.6565 45.9378 21.5509 45.7101 22.2439 46.1213C26.1828 48.4618 36.2354 49.8472 49.8138 47.6663C63.3977 45.4854 72.5136 41.0241 75.522 37.5708C76.0511 36.9637 76.9718 36.8999 77.5789 37.429C78.186 37.9581 78.2498 38.8788 77.7207 39.4859C73.6277 44.1847 62.8557 48.5257 50.276 50.5452C45.5876 51.2989 41.0367 51.6666 36.8953 51.6666Z" fill="#5F5C5D"/>
<path d="M14.6989 38.79C35.75 31.2277 58.0263 27.6515 80.3867 28.2451C83.7541 28.3347 86.377 31.2 86.1726 34.5619C86.086 35.9866 85.9995 37.4119 85.9129 38.8372C60.9634 37.3199 35.9869 41.3294 12.7659 50.5791C12.2374 49.2526 11.7089 47.9267 11.181 46.6003C9.93437 43.4716 11.5291 39.9286 14.6989 38.79Z" fill="#95A1B3"/>
<path d="M12.766 52.0372C12.5696 52.0372 12.3738 51.9979 12.1896 51.9187C11.8342 51.7659 11.5543 51.478 11.4113 51.1189L9.82639 47.1401C9.07568 45.255 9.12171 43.1981 9.95529 41.348C10.7889 39.4986 12.2983 38.1028 14.206 37.4177C35.5137 29.7633 57.7943 26.1866 80.426 26.7875C82.4528 26.8415 84.3232 27.6948 85.6938 29.19C87.0645 30.6865 87.752 32.6256 87.6286 34.6506L87.3689 38.9253C87.3456 39.3114 87.1695 39.6723 86.8803 39.9283C86.5906 40.1849 86.2125 40.3162 85.8252 40.2923C73.5162 39.544 61.0997 40.1554 48.9233 42.1098C36.7469 44.0642 24.7632 47.3697 13.3062 51.9334C13.1318 52.0028 12.9489 52.0372 12.766 52.0372ZM15.1918 40.1621C14.0348 40.5777 13.1189 41.4248 12.6138 42.5462C12.1073 43.6689 12.0797 44.9168 12.5352 46.0604L13.583 48.6906C24.8258 44.3233 36.5523 41.1418 48.4599 39.2304C60.3674 37.3189 72.5003 36.6695 84.5453 37.2993L84.7172 34.4732C84.7921 33.2443 84.3753 32.0676 83.543 31.1598C82.7119 30.2526 81.5769 29.7351 80.348 29.702C58.0803 29.1115 36.1576 32.6299 15.1918 40.1621Z" fill="#70838E"/>
<path d="M120.901 78.9033H63.7695C61.6389 78.9033 59.7827 80.3544 59.2684 82.4218L50.9228 118.83H34.3796C31.6524 118.83 29.4414 121.041 29.4414 123.768C29.4414 126.496 31.6518 128.707 34.3796 128.707H48.4657L48.465 128.709H58.0303H108.55C112.435 128.709 115.82 126.062 116.757 122.293L125.402 84.6604C126.13 81.7349 123.916 78.9033 120.901 78.9033Z" fill="#95A1B3"/>
<path d="M104.056 110.367L108.984 88.4716C109.339 86.8941 108.14 85.3945 106.523 85.3945H67.2449C66.0627 85.3945 65.0388 86.2158 64.7822 87.3698L59.9128 109.266C59.5623 110.841 60.7617 112.336 62.3754 112.336H101.594C102.774 112.336 103.797 111.518 104.056 110.367Z" fill="#B5F6F8"/>
<path d="M87.2172 106.701H78.0859L80.5412 97.5693H89.6725L87.2172 106.701Z" fill="#E27FA3"/>
<path d="M90.8297 96.6828C90.6959 96.5079 90.5259 96.3692 90.335 96.2722L90.7898 94.5792C91.1526 93.2295 90.9242 91.884 90.1619 90.8902C89.4234 89.9265 88.2412 89.374 86.9191 89.374C84.403 89.374 81.9066 91.3278 81.2363 93.8224L80.6206 96.112H80.5414C79.8822 96.112 79.3046 96.5545 79.1333 97.1917L76.678 106.323C76.5602 106.761 76.6528 107.228 76.9291 107.589C77.2047 107.948 77.6325 108.16 78.0861 108.16H87.2174C87.8766 108.16 88.4542 107.717 88.6255 107.08L91.0808 97.9485C91.1986 97.5109 91.1059 97.0425 90.8297 96.6828ZM84.0519 94.5792C84.3797 93.3596 85.7196 92.2897 86.9184 92.2897C87.2112 92.2897 87.6096 92.3548 87.8472 92.6641C88.0559 92.9367 88.1007 93.3479 87.9736 93.8218L87.3579 96.1114H83.64L84.0519 94.5792ZM86.0996 105.243H79.9878L81.6586 99.0276H87.7704L86.0996 105.243Z" fill="#DD528B"/>
<path d="M125.703 79.7861C124.54 78.2982 122.79 77.4443 120.901 77.4443H63.7692C63.76 77.4443 63.7508 77.4443 63.7422 77.4449L63.5611 77.448C63.5519 77.4486 63.5427 77.4486 63.5341 77.4486C60.8413 77.5493 58.4891 79.5123 57.8151 82.2223C57.8127 82.2309 57.8108 82.2401 57.809 82.2487L49.7612 117.372H34.5868C31.0499 117.372 28.0895 120.153 27.9864 123.573C27.9342 125.319 28.5744 126.971 29.7892 128.222C31.0045 129.475 32.6348 130.164 34.3793 130.164H48.3776C48.4064 130.166 48.4359 130.167 48.4648 130.167H108.55C113.115 130.167 117.071 127.073 118.178 122.619L126.817 85.0122C127.273 83.1793 126.867 81.2746 125.703 79.7861ZM60.6479 82.9147C61.0132 81.4686 62.2365 80.422 63.6299 80.3637L63.7827 80.3606H116.186L108.239 114.568C107.814 116.22 106.329 117.372 104.622 117.372H52.7523L60.6479 82.9147ZM48.4654 127.248H34.3793C33.4298 127.248 32.5428 126.873 31.8817 126.191C31.2206 125.51 30.8726 124.611 30.9008 123.66C30.9567 121.8 32.6097 120.288 34.5862 120.288H81.5978C80.9508 121.241 80.5579 122.367 80.5217 123.573C80.4818 124.898 80.8421 126.168 81.5487 127.251H48.5525C48.5237 127.249 48.4948 127.248 48.4654 127.248ZM123.981 84.3339L115.342 121.94C114.565 125.067 111.772 127.251 108.55 127.251H86.9153V127.248C85.9657 127.248 85.0787 126.873 84.4177 126.191C83.7566 125.51 83.4079 124.611 83.4368 123.66C83.4926 121.8 85.1457 120.288 87.1222 120.288H104.622C107.669 120.288 110.32 118.226 111.069 115.273C111.072 115.263 111.074 115.254 111.076 115.244L119.18 80.3612H120.9C121.885 80.3612 122.799 80.8062 123.406 81.5827C124.014 82.3586 124.225 83.3524 123.981 84.3339Z" fill="#70838E"/>
<path d="M105.478 110.688L110.406 88.7922C110.673 87.6057 110.391 86.3811 109.632 85.4316C108.872 84.482 107.739 83.9375 106.523 83.9375H67.2448C65.3647 83.9375 63.7669 85.2192 63.3587 87.0545L58.4898 108.95C58.2259 110.135 58.5107 111.358 59.27 112.305C60.0293 113.253 61.1618 113.796 62.3759 113.796H101.594C103.469 113.795 105.066 112.517 105.478 110.688ZM61.5448 110.48C61.4251 110.331 61.2398 110.016 61.3361 109.582L66.205 87.6861C66.3142 87.1951 66.7415 86.8526 67.2448 86.8526H106.523C106.968 86.8526 107.235 87.103 107.355 87.2522C107.474 87.4013 107.66 87.7168 107.562 88.1508L102.633 110.047C102.523 110.536 102.095 110.878 101.594 110.878H62.3753C61.9309 110.878 61.6645 110.629 61.5448 110.48Z" fill="#70838E"/>
<path d="M46.2425 133.233C68.067 118.77 66.6386 97.6664 65.0433 89.3423C64.6468 87.2749 62.9219 85.7398 60.8245 85.5618C49.9481 84.638 42.7995 81.7959 39.1148 79.9097C37.3543 79.0086 35.2145 79.3235 33.7886 80.6941C30.8042 83.5631 24.7789 88.3461 14.6312 92.3672C12.6743 93.1425 11.4651 95.1104 11.6817 97.2042C12.5546 105.634 17.2731 126.253 42.341 133.808C43.6589 134.205 45.0959 133.993 46.2425 133.233Z" fill="#A3D676"/>
<path d="M43.2124 126.193C25.2703 120.174 20.6163 106.014 19.4175 98.5307C28.0859 94.8441 33.9105 90.6652 37.5112 87.4941C41.8742 89.4928 48.6582 91.8142 58.0227 92.8442C59.0294 100.333 58.6685 115.246 43.2124 126.193Z" fill="#FFFFA1"/>
<path d="M43.6844 135.465C43.0939 135.465 42.5003 135.379 41.9203 135.204C16.0488 127.408 11.1407 106.137 10.231 97.3541C9.94922 94.6324 11.5372 92.0242 14.0931 91.0114C24.2446 86.989 30.1563 82.1619 32.7773 79.6428C34.652 77.8418 37.4651 77.4275 39.7786 78.6109C43.0141 80.2677 50.0669 83.1845 60.9476 84.1084C63.6871 84.341 65.9601 86.3801 66.4751 89.0674C68.1373 97.7395 69.5712 119.521 47.0475 134.448C46.0359 135.12 44.8672 135.465 43.6844 135.465ZM37.0029 80.8588C36.1988 80.8588 35.4045 81.1626 34.7981 81.7457C31.4085 85.0039 25.2512 89.7273 15.1673 93.7227C13.8206 94.2561 12.9834 95.6262 13.1313 97.0539C13.9808 105.256 18.5679 125.121 42.7612 132.413C43.6697 132.686 44.645 132.543 45.4362 132.019C66.499 118.06 65.1627 97.7162 63.6103 89.6174C63.3403 88.2081 62.1433 87.1376 60.7002 87.0154C49.892 86.0971 42.6348 83.3509 38.4491 81.208C37.9918 80.9723 37.4958 80.8588 37.0029 80.8588Z" fill="#87B758"/>
<path d="M43.2118 127.652C43.0559 127.652 42.8994 127.627 42.7484 127.576C24.2158 121.359 19.2739 106.854 17.9775 98.762C17.8713 98.1003 18.2298 97.4514 18.8467 97.1893C27.5587 93.4837 33.2814 89.2771 36.5475 86.4002C36.9797 86.0196 37.5953 85.9287 38.1183 86.1687C42.0762 87.9814 48.7694 90.3593 58.1824 91.3955C58.8484 91.4685 59.3787 91.986 59.4677 92.6501C60.5603 100.772 60.0103 116.083 44.0552 127.383C43.8054 127.56 43.5101 127.652 43.2118 127.652ZM21.0528 99.4114C22.4934 106.895 27.2757 118.999 42.973 124.569C56.3998 114.707 57.4894 101.739 56.7104 94.1595C48.1445 93.0976 41.8135 90.967 37.7629 89.2041C34.393 92.059 28.9465 95.9249 21.0528 99.4114Z" fill="#F9CB71"/>
<path d="M41.1113 113.388C40.84 113.388 40.5705 113.313 40.3355 113.165L32.508 108.248C31.826 107.82 31.6204 106.92 32.0488 106.238C32.4767 105.556 33.3771 105.35 34.0591 105.779L40.3373 109.723L44.8593 96.7775C45.1245 96.0169 45.9556 95.6161 46.7168 95.8819C47.4767 96.1477 47.8781 96.9788 47.6123 97.7393L42.4869 112.412C42.3408 112.831 42.0112 113.16 41.5926 113.307C41.436 113.361 41.2734 113.388 41.1113 113.388Z" fill="#87B758"/>
<path d="M4.77469 91.171C2.8835 95.4972 2.86817 99.6681 7.1944 101.559C11.5206 103.451 16.5607 101.477 18.4525 97.1509C20.3437 92.8246 18.3703 87.7845 14.0441 85.8927C9.71721 84.0009 6.66589 86.8448 4.77469 91.171Z" fill="#F8D4AE"/>
<path d="M10.6046 103.734C9.26831 103.734 7.91114 103.465 6.61044 102.896C2.04727 100.901 0.891449 96.4154 3.43882 90.5877C5.98619 84.7607 10.065 82.5626 14.6276 84.5575C17.0768 85.628 18.9624 87.5886 19.9372 90.0776C20.9119 92.5667 20.8592 95.2859 19.7887 97.7351C18.1467 101.49 14.4631 103.734 10.6046 103.734ZM6.11079 91.7558C3.27002 98.2532 6.66324 99.7368 7.77856 100.224C11.3615 101.791 15.5508 100.15 17.1167 96.567C17.8754 94.8317 17.9128 92.9043 17.2223 91.1408C16.5317 89.3773 15.1954 87.9882 13.4601 87.2295C8.95097 85.2591 6.81362 90.1488 6.11079 91.7558Z" fill="#D3A98C"/>
<path d="M52.0586 77.877C47.5949 76.3387 43.4362 76.6579 41.8979 81.1222C40.3597 85.586 42.7315 90.4518 47.1953 91.99C51.659 93.5282 56.5248 91.1564 58.063 86.6927C59.6019 82.2284 56.5229 79.4152 52.0586 77.877Z" fill="#F8D4AE"/>
<path d="M49.9889 93.919C48.8908 93.919 47.789 93.7361 46.7203 93.3678C44.1932 92.4968 42.1565 90.694 40.9853 88.2915C39.8142 85.8884 39.6484 83.1734 40.5194 80.6463C41.3984 78.0946 43.1313 76.4299 45.5289 75.8333C47.4845 75.3465 49.841 75.5706 52.5338 76.4981C55.2261 77.4262 57.2204 78.7017 58.4609 80.2897C59.982 82.2367 60.3214 84.6153 59.4418 87.167C58.5708 89.6941 56.7686 91.7307 54.3655 92.9019C52.9782 93.5777 51.4872 93.919 49.9889 93.919ZM47.6717 78.5004C47.1494 78.5004 46.6681 78.5544 46.2329 78.6624C44.8009 79.019 43.8335 79.9785 43.2761 81.5959C42.0018 85.2923 43.9734 89.3368 47.6699 90.6105C49.461 91.228 51.3847 91.1102 53.0869 90.2803C54.7896 89.4504 56.067 88.0067 56.6839 86.2161C57.2412 84.5987 57.0706 83.2471 56.1621 82.0839C55.2868 80.9636 53.7031 79.9852 51.583 79.2548C50.1313 78.7545 48.8061 78.5004 47.6717 78.5004Z" fill="#D3A98C"/>
</svg>
