<svg width="95" height="120" viewBox="0 0 95 120" fill="none" xmlns="http://www.w3.org/2000/svg">
<path d="M76.2422 48.7426C75.9883 48.6088 75.8473 48.5446 75.8473 48.5446C82.7539 41.2469 66.6643 36.0454 66.6643 36.0454C68.4678 32.2065 65.2291 29.41 59.829 27.7983L62.5484 28.05C63.7701 25.2992 65.8237 18.7557 59.7782 15.3034C52.3168 11.0365 41.4779 16.212 40.2667 25.9859L43.73 26.3068C39.4841 26.5705 35.3113 27.3122 31.8503 28.565C28.3903 29.8172 24.7246 31.9118 21.3183 34.4179L23.743 31.9667C16.3756 25.297 4.71492 28.2648 1.84343 36.271C-0.482744 42.7531 5.39573 46.4256 8.14444 47.7393L10.0414 45.821C6.99629 50.488 6.37742 54.6793 10.282 56.4508C10.282 56.4508 1.45795 70.6689 11.5286 71.8222C11.5286 71.8222 6.37797 82.7619 16.5913 90.0651C31.1634 100.479 52.4827 83.6722 52.4827 83.6722C52.4827 83.6722 79.8017 82.8761 84.0238 65.6604C86.6497 54.9582 78.1945 49.779 76.2422 48.7426Z" fill="#F8D4AE"/>
<path d="M16.9514 37.9773C13.6148 40.9979 10.8213 44.2729 9.17262 47.2587C6.6291 45.3495 2.74772 41.5552 5.39965 37.6853C8.21251 33.5773 14.122 36.3118 16.9514 37.9773Z" fill="#FFF1E6"/>
<path d="M61.4447 28.3405C58.221 27.1181 53.9392 26.4037 49.4019 26.2329C50.4621 23.1596 53.1577 17.3105 58.0036 18.647C62.5752 19.9025 62.1222 25.2656 61.4447 28.3405Z" fill="#FFF1E6"/>
<path d="M41.4175 54.1137C47.7705 51.8147 53.6141 60.5185 59.3908 60.2456C68.2138 59.822 72.599 55.4654 75.851 48.5435C75.851 48.5435 86.9869 53.5889 84.0274 65.6592C79.8009 82.876 52.4848 83.6715 52.4848 83.6715C52.4848 83.6715 31.1637 100.479 16.5917 90.0655C6.37889 82.7624 11.529 71.8226 11.529 71.8226C18.5694 75.0199 24.7814 75.5413 31.7776 70.2392C36.3559 66.7641 35.065 56.4127 41.4175 54.1137Z" fill="#FFF1E6"/>
<path d="M40.7281 71.9619C41.9421 72.647 43.5078 73.0521 45.1637 73.0347C46.2117 73.025 47.293 72.8428 48.3449 72.46C51.061 71.4611 52.9591 69.31 53.7013 67.1878C53.8351 66.8071 53.9297 66.4303 53.9872 66.0589C54.1072 65.2781 54.0514 64.5288 53.8058 63.8796C52.3474 60.0396 48.8841 61.2119 44.6582 62.7649C40.4278 64.3205 37.3628 66.0258 38.4949 69.5074C38.8112 70.4818 39.6231 71.3382 40.7281 71.9619Z" fill="white"/>
<path d="M45.048 74.3296C43.4944 74.3296 41.9558 74.0028 40.5986 73.3552C38.8941 72.5418 37.7022 71.3151 37.2432 69.9013C36.6138 67.9634 36.97 66.2587 38.3017 64.833L40.2363 66.5806C39.5528 67.3119 39.4062 68.0699 39.7458 69.115C39.9808 69.8382 40.7098 70.5364 41.7456 71.0307C43.5519 71.8931 45.9036 71.9768 47.8824 71.2493C49.5504 70.6359 51.0177 69.4288 51.9087 67.9367C52.6763 66.6502 52.9318 65.2691 52.5757 64.3322C52.0281 62.8929 51.2688 62.5922 50.2982 62.5922C50.291 62.5922 50.2832 62.5922 50.276 62.5922L50.2639 60.0088C50.2744 60.0088 50.2849 60.0088 50.2954 60.0088C52.5795 60.0088 54.1746 61.1588 55.0373 63.4279C55.6828 65.1255 55.3686 67.2456 54.1751 69.2444C52.9667 71.2688 51.0592 72.8403 48.8032 73.669C47.6014 74.1105 46.32 74.3296 45.048 74.3296Z" fill="#F8D4AE"/>
<path d="M50.2707 60.0078C50.2685 60.0078 50.2663 60.0078 50.2646 60.0078C48.8339 60.0143 47.2593 60.4668 45.427 61.1122L44.2263 57.873L41.7575 58.7577L42.9687 62.0257C41.1552 62.7516 39.4363 63.6194 38.3025 64.8325C37.8114 65.3578 37.8468 66.1751 38.381 66.6574C38.6332 66.8852 38.9518 66.9978 39.2692 66.9978C39.6243 66.9978 39.9783 66.8575 40.2371 66.5802C41.2536 65.4921 43.2745 64.6531 45.1173 63.9756C46.8744 63.3302 48.8654 62.5983 50.2762 62.5917C51.0019 62.5885 51.587 62.0072 51.5837 61.2938C51.5809 60.582 50.9936 60.0078 50.2707 60.0078Z" fill="#D3A98C"/>
<path d="M31.7296 80.303C33.7971 75.8479 31.7997 70.5885 27.2683 68.5559C22.737 66.5232 17.3876 68.487 15.3201 72.9421C13.2527 77.3972 15.2501 82.6566 19.7814 84.6892C24.3128 86.7219 29.6622 84.7581 31.7296 80.303Z" fill="#FD9DB4"/>
<path d="M78.3463 56.777C76.6257 52.1818 71.4419 49.8278 66.768 51.5195C62.0941 53.2111 59.6999 58.3077 61.4204 62.9029C63.141 67.4982 68.3248 69.8521 72.9988 68.1605C77.6727 66.4689 80.0669 61.3723 78.3463 56.777Z" fill="#FD9DB4"/>
<path d="M77.8244 48.1621C78.8216 46.6624 79.1192 45.1165 78.7094 43.551C77.5745 39.2146 71.1568 36.3371 68.3229 35.2615C68.7537 33.4144 68.2521 31.6341 66.8517 30.1432C66.1289 29.3738 65.1577 28.6729 63.9703 28.0524C64.6246 26.456 65.2882 24.2299 65.2014 21.8923C65.0781 18.5601 63.4311 15.8958 60.4385 14.1862C56.6013 11.9949 51.7383 11.9454 47.4288 14.0535C42.8545 16.2911 39.7263 20.5584 39.0063 25.5115C36.2282 25.9258 33.6305 26.5452 31.3951 27.3543C29.1607 28.1628 26.7759 29.3466 24.3883 30.8017C20.5739 27.4902 15.3779 26.2358 10.4197 27.4478C5.74854 28.5897 2.07899 31.7277 0.602868 35.8417C-0.54805 39.0504 -0.044765 42.1291 2.05852 44.7446C3.53409 46.5792 5.50685 47.851 7.05764 48.6493C6.5632 49.8787 6.28501 51.032 6.24298 52.0787C6.16057 54.1064 6.95311 55.7812 8.50002 56.9122C7.051 59.5385 4.0606 65.8205 6.05604 69.8459C6.77613 71.2982 8.02162 72.2851 9.76818 72.7914C9.37496 74.0366 8.92145 75.9571 8.91481 78.2017C8.90375 81.8307 10.0923 87.0165 15.817 91.1104C19.2056 93.5323 23.2181 94.7454 27.7139 94.7454C31.6384 94.7454 35.9324 93.8205 40.5001 91.9685C46.7906 89.4172 51.6437 85.9323 52.9567 84.9448C54.6075 84.8594 60.6016 84.419 67.0735 82.3511C77.1575 79.1288 83.4596 73.4624 85.2985 65.964C87.8288 55.6599 80.8303 50.0445 77.8244 48.1621ZM48.6008 16.3656C52.1166 14.6457 56.0494 14.6652 59.12 16.4194C63.8055 19.0957 62.7895 23.9999 61.5667 27.0101C58.776 26.0025 55.2496 25.3195 51.2217 25.0406C48.0565 24.8215 44.8228 24.8764 41.734 25.176C42.511 21.3654 45.0213 18.117 48.6008 16.3656ZM3.08224 36.7003C4.26357 33.4079 7.24401 30.8859 11.0552 29.9539C14.9349 29.0056 18.9883 29.8784 22.0926 32.2834C19.5435 34.0245 17.0448 36.0445 14.7795 38.2293C11.8975 41.009 9.6631 43.7767 8.20302 46.322C5.28674 44.8098 1.27981 41.724 3.08224 36.7003ZM82.7467 65.3572C81.1135 72.0171 75.5862 76.9016 66.3191 79.8759C59.2206 82.1537 52.5103 82.3788 52.444 82.381C52.1591 82.3897 51.8843 82.4892 51.6614 82.6643C51.6094 82.7056 46.3537 86.811 39.4471 89.6015C30.4305 93.2447 23.0007 93.0489 17.3639 89.0208C8.17316 82.4484 12.5318 72.7713 12.721 72.3651C12.898 71.9893 12.8808 71.5527 12.6751 71.1911C12.4693 70.8301 12.0993 70.5876 11.6812 70.5397C10.001 70.3472 8.93417 69.7502 8.42037 68.7154C7.6931 67.25 7.94696 64.8281 9.15429 61.7113C10.1315 59.1894 11.3914 57.1443 11.4036 57.1242C11.5988 56.8094 11.648 56.4277 11.5391 56.0753C11.4301 55.723 11.173 55.4331 10.8328 55.2782C9.43413 54.6436 8.81028 53.6594 8.87001 52.1804C8.99224 49.1609 11.8892 44.6347 16.6195 40.0732C21.4201 35.4431 27.2836 31.5945 32.3037 29.7772C36.3903 28.2982 41.7887 27.488 47.274 27.488C48.5283 27.488 49.7882 27.5304 51.037 27.6169C57.6461 28.0747 62.8365 29.6739 64.9216 31.8951C65.9425 32.9827 66.1173 34.1294 65.4713 35.5035C65.3142 35.8379 65.3104 36.2223 65.4591 36.56C65.6085 36.8977 65.8972 37.1565 66.2528 37.2723C66.276 37.2799 68.5828 38.0341 70.9892 39.3315C73.9624 40.935 75.7527 42.6169 76.1647 44.1965C76.4562 45.3128 76.0375 46.4471 74.8849 47.6651C74.5984 47.9674 74.4784 48.3872 74.5586 48.7928C74.6388 49.1985 74.9131 49.5421 75.2942 49.7167C75.3113 49.7243 75.4264 49.7781 75.6172 49.8787C76.5508 50.3746 78.9239 51.8014 80.7839 54.3331C83.1062 57.4923 83.766 61.2013 82.7467 65.3572Z" fill="#D3A98C"/>
<path d="M44.5818 55.9833C43.8175 55.6304 42.9071 55.9534 42.5482 56.7048L42.4614 56.8865L42.2766 56.8011C41.5123 56.4482 40.602 56.7712 40.243 57.5226C39.8841 58.2741 40.2126 59.1691 40.977 59.522L41.6334 59.8249C42.9016 60.4105 44.4126 59.8744 45.0082 58.6275L45.3163 57.9821C45.6747 57.2317 45.3461 56.3362 44.5818 55.9833Z" fill="#E27FA3"/>
<path d="M60.7577 54.8219C61.475 56.7375 60.4768 58.8625 58.5283 59.5677C56.5799 60.273 54.4185 59.2915 53.7012 57.3759C52.9839 55.4602 53.9822 53.3352 55.9306 52.63C57.879 51.9247 60.0404 52.9057 60.7577 54.8219Z" fill="#5F5C5D"/>
<path d="M51.9123 8.76424C53.2729 12.3987 52.6363 16.2757 50.5435 19.232C51.7857 22.5489 51.5672 21.9666 53.5953 27.3834C42.5009 36.4625 28.9471 41.3677 14.5221 41.5248C12.4941 36.108 12.712 36.6903 11.4715 33.3778C7.92911 32.461 4.88064 29.913 3.52011 26.278C1.30511 20.3625 4.38731 13.8032 10.4079 11.6238C11.7856 11.1252 13.1937 10.9012 14.5769 10.9213C16.204 7.78277 18.9925 5.21625 22.6217 3.90255C26.2465 2.59047 30.0582 2.76882 33.366 4.12114C34.4058 3.22394 35.6302 2.49531 37.0079 1.99669C43.0252 -0.180497 49.6973 2.84875 51.9123 8.76424Z" fill="white"/>
<path d="M54.8289 26.9376L52.0022 19.3881C54.017 16.1778 54.5722 12.1247 53.147 8.3184C50.6848 1.74333 43.2411 -1.63772 36.553 0.783066C35.3147 1.23112 34.1676 1.85807 33.1301 2.64542C29.6425 1.41436 25.7689 1.38826 22.1651 2.69218C18.5603 3.99719 15.6274 6.4865 13.7829 9.64625C12.4744 9.70823 11.1891 9.96271 9.95189 10.4108C3.26318 12.8305 -0.174645 20.1494 2.28703 26.725C3.71337 30.5334 6.81106 33.2691 10.4651 34.4273L13.2896 41.9713C13.4799 42.4797 13.9726 42.8168 14.5224 42.8168C14.5274 42.8168 14.5323 42.8168 14.5368 42.8168C29.2913 42.6564 43.0879 37.6631 54.4356 28.3769C54.8637 28.0267 55.0208 27.4504 54.8289 26.9376ZM15.4327 40.2166L13.4826 35.008C13.7968 35.0308 14.1126 35.0428 14.43 35.0428C15.91 35.0422 17.4143 34.7905 18.8822 34.2598C19.2848 34.1141 19.6841 33.9466 20.069 33.7628C20.7216 33.4512 20.9937 32.6785 20.6768 32.0369C20.3599 31.3953 19.574 31.1278 18.9214 31.4393C18.6145 31.5861 18.2954 31.7194 17.974 31.8357C12.6453 33.7633 6.71483 31.0707 4.75368 25.8321C2.79197 20.5936 5.53128 14.7624 10.86 12.8343C11.4037 12.6374 11.9584 12.4895 12.5214 12.3857C12.1912 13.3345 11.9479 14.3214 11.8041 15.3388C11.7045 16.0451 12.2056 16.6976 12.9246 16.7961C12.986 16.8048 13.0468 16.8086 13.1071 16.8086C13.7525 16.8086 14.3155 16.3409 14.4068 15.6944C15.0909 10.8566 18.4121 6.80296 23.0732 5.11569C27.7322 3.43006 32.9321 4.39902 36.6431 7.64632C37.1851 8.12047 38.0153 8.07317 38.4975 7.54029C38.9798 7.00741 38.9317 6.19124 38.3897 5.71708C37.6099 5.03467 36.7736 4.43818 35.897 3.9265C36.3954 3.64593 36.9169 3.40396 37.4611 3.20657C42.7893 1.27843 48.7203 3.97109 50.6815 9.21015C52.6432 14.4487 49.9039 20.2799 44.5751 22.208C44.2516 22.3249 43.9181 22.4277 43.5829 22.5125C42.8805 22.6909 42.4575 23.395 42.6389 24.0862C42.7915 24.6685 43.3252 25.0551 43.9098 25.0551C44.0182 25.0551 44.1288 25.0421 44.2389 25.0138C44.6586 24.9072 45.0773 24.7789 45.4827 24.6321C47.2669 23.9861 48.8171 22.9894 50.088 21.7535L52.0403 26.967C41.5394 35.3098 28.9202 39.8762 15.4327 40.2166Z" fill="#E2E2E2"/>
<path d="M27.1094 70.6938C26.7643 70.6938 26.4197 70.5611 26.162 70.2969C25.6593 69.7825 25.6759 68.9652 26.1991 68.471C26.2931 68.3823 27.8328 66.9332 29.7862 65.4428C28.7907 65.4254 27.7294 65.4917 26.829 65.7468C26.131 65.9441 25.4037 65.5483 25.203 64.8626C25.0022 64.1769 25.4049 63.4614 26.1017 63.264C29.2492 62.3728 33.5194 63.2265 33.6997 63.2629C34.2311 63.3711 34.6399 63.7898 34.7289 64.3156C34.8179 64.842 34.5691 65.3678 34.1017 65.6391C31.2435 67.3014 28.0513 70.3029 28.0192 70.3333C27.7648 70.5742 27.4368 70.6938 27.1094 70.6938Z" fill="#5F5C5D"/>
<path d="M41.6602 100.098C42.4757 93.6605 40.1534 88.077 36.4732 87.6263C32.793 87.1756 29.1486 92.0285 28.3331 98.4654C27.5175 104.902 29.8398 110.486 33.52 110.937C37.2002 111.387 40.8446 106.534 41.6602 100.098Z" fill="#F8D4AE"/>
<path d="M33.9996 112.251C33.7872 112.251 33.5737 112.238 33.3597 112.211C28.8926 111.664 26.1124 105.553 27.0305 98.2984C27.4723 94.7977 28.7068 91.6331 30.5053 89.3874C30.544 89.339 30.5861 89.2933 30.6314 89.2515L31.5329 90.1824H32.8536L32.5196 90.9474L32.5694 90.986C31.0849 92.8397 30.0164 95.621 29.6381 98.6171C29.2715 101.515 29.5629 104.296 30.4589 106.45C31.2398 108.327 32.4156 109.493 33.6849 109.648C34.9536 109.804 36.3849 108.957 37.6094 107.326C39.0147 105.454 39.9914 102.827 40.3592 99.9302C40.4383 99.2989 40.487 98.6731 40.5047 98.0728L43.1311 98.1478C43.1112 98.8281 43.0559 99.5349 42.9669 100.248C42.0897 107.157 38.2227 112.251 33.9996 112.251Z" fill="#D3A98C"/>
<path d="M86.3878 63.5443C86.4912 63.0706 86.5288 62.5747 86.4884 62.0674L86.2971 59.6575C86.2346 58.8729 85.9907 58.1459 85.6163 57.5064C85.1384 52.5077 84.1435 50.1244 81.8372 50.3011C79.9081 50.449 78.6295 52.4152 78.599 55.109L78.2456 55.1362C75.3763 55.3564 73.2316 57.8212 73.4556 60.6422L73.6464 63.0516C73.6807 63.4817 73.768 63.895 73.9019 64.2859C73.45 64.9401 73.0352 65.6486 72.6724 66.4071C70.1875 71.6032 71.0039 77.1245 74.4964 78.7394C77.989 80.3538 82.8349 77.4507 85.3204 72.2546C86.7959 69.1705 87.1079 65.9727 86.3878 63.5443Z" fill="#F8D4AE"/>
<path d="M87.7328 63.4921C87.8141 62.9984 87.8396 62.4873 87.7981 61.9669L87.6067 59.5575C87.5365 58.6739 87.2865 57.8458 86.895 57.1046C86.614 54.1928 85.9525 48.6906 81.7382 49.0152C79.4082 49.1887 77.7396 51.1266 77.3624 53.9563C74.1751 54.586 71.8871 57.4771 72.1459 60.7423L72.3373 63.1517C72.3622 63.4655 72.4098 63.7727 72.4783 64.0712C72.1183 64.634 71.7848 65.2305 71.4828 65.8558C68.6462 71.7871 69.7252 77.9592 73.9395 79.9075C74.7874 80.299 75.6872 80.486 76.6086 80.486C80.2649 80.486 84.2441 77.5427 86.5089 72.8066C88.0199 69.6469 88.4573 66.275 87.7328 63.4921ZM81.9401 51.591C82.3466 51.5589 83.169 51.4991 83.7967 54.2157C82.825 53.7801 81.7321 53.573 80.595 53.66L80.0796 53.6997C80.3838 52.4719 81.0674 51.6562 81.9401 51.591ZM78.348 56.4239L80.7986 56.2363C80.9014 56.2287 81.0032 56.2243 81.1044 56.2243C83.117 56.2243 84.8282 57.7528 84.9874 59.7587L85.1783 62.1681C85.3453 64.2746 83.7381 66.1217 81.5955 66.2859L79.1449 66.4735C77.0002 66.6366 75.1231 65.0576 74.956 62.9511L74.7652 60.5417C74.5988 58.4352 76.206 56.5881 78.348 56.4239ZM75.0572 77.5699C72.2726 76.2823 71.7245 71.4217 73.8582 66.9602C73.8759 66.9232 73.8953 66.8878 73.9135 66.8509C75.1192 68.2162 76.894 69.0688 78.838 69.0688C79.0072 69.0688 79.1781 69.0623 79.3495 69.0493L81.8002 68.8617C83.1568 68.7578 84.3846 68.2505 85.3724 67.4691C85.2148 68.8584 84.7972 70.3157 84.1308 71.7082C81.9959 76.1719 77.8402 78.8575 75.0572 77.5699Z" fill="#D3A98C"/>
<path d="M66.1019 114.956C81.3357 114.956 93.6852 106.17 93.6852 95.3308C93.6852 84.4918 81.3357 75.7051 66.1019 75.7051C50.868 75.7051 38.5186 84.4918 38.5186 95.3308C38.5186 106.17 50.868 114.956 66.1019 114.956Z" fill="white"/>
<path d="M66.1015 109.396C77.0187 109.396 85.8689 103.099 85.8689 95.3308C85.8689 87.5631 77.0187 81.2661 66.1015 81.2661C55.1842 81.2661 46.334 87.5631 46.334 95.3308C46.334 103.099 55.1842 109.396 66.1015 109.396Z" fill="#FFFFA1"/>
<path d="M90.4328 77.0982C86.609 74.4028 79.9944 74.4072 67.9902 74.4132L66.1015 74.4137L64.2128 74.4132C52.2092 74.4083 45.594 74.4028 41.7702 77.0982C37.8634 79.8518 37.2041 84.9484 37.2041 95.3308C37.2041 105.713 37.8634 110.81 41.7702 113.563C43.4205 114.726 45.5924 115.387 48.491 115.761L49.9997 119.217C50.2132 119.707 50.6982 120 51.2076 120C51.3807 120 51.556 119.966 51.7252 119.895C52.3922 119.614 52.7003 118.854 52.4144 118.199L51.4714 116.039C54.8545 116.254 59.0306 116.252 64.2128 116.249L66.1015 116.248L67.9902 116.249C68.5676 116.249 69.1323 116.25 69.6853 116.25C74.0938 116.25 77.7263 116.23 80.7322 116.039L79.7892 118.199C79.5033 118.854 79.8113 119.614 80.4783 119.895C80.647 119.966 80.8229 120 80.996 120C81.5053 120 81.9904 119.707 82.2038 119.217L83.7132 115.761C86.6112 115.386 88.7836 114.726 90.4339 113.563C94.3408 110.81 95 105.713 95 95.3308C95 84.9484 94.3396 79.8518 90.4328 77.0982ZM88.902 111.464C85.765 113.675 79.4513 113.669 67.9913 113.666L66.101 113.665L64.2111 113.666C52.7512 113.671 46.4374 113.675 43.301 111.464C40.3328 109.372 39.8317 104.796 39.8317 95.3308C39.8317 85.8657 40.3328 81.29 43.301 79.1976C46.438 76.9867 52.7517 76.9922 64.2111 76.996L66.101 76.9965L67.9913 76.996C79.4524 76.9933 85.765 76.9867 88.902 79.1976C91.8702 81.29 92.3713 85.8657 92.3713 95.3308C92.3713 104.796 91.8702 109.372 88.902 111.464Z" fill="#E2E2E2"/>
<path d="M80.996 101.021C80.996 93.5572 74.3277 87.5068 66.1015 87.5068C57.8758 87.5068 51.207 93.5572 51.207 101.021C51.207 108.484 57.8753 107.73 66.1015 107.73C74.3277 107.73 80.996 108.484 80.996 101.021Z" fill="#FFBE8D"/>
<path d="M66.1015 86.2153C57.1646 86.2153 49.8936 92.8567 49.8936 101.021C49.8936 103.482 50.5462 105.315 51.8884 106.624C54.1162 108.796 57.794 109.043 62.1245 109.043C62.7472 109.043 63.3844 109.037 64.0314 109.032C65.3842 109.021 66.8189 109.021 68.1716 109.032C73.3206 109.073 77.7667 109.109 80.3146 106.624C81.6569 105.315 82.3095 103.482 82.3095 101.021C82.3095 92.8567 75.039 86.2153 66.1015 86.2153ZM78.4646 104.79C76.6938 106.517 72.7549 106.486 68.1932 106.449C67.5096 106.443 66.8111 106.438 66.1015 106.438C65.392 106.438 64.6934 106.443 64.0099 106.449C59.4482 106.486 55.5093 106.517 53.7384 104.79C52.9193 103.991 52.5206 102.758 52.5206 101.02C52.5206 94.2808 58.6131 88.7982 66.101 88.7982C67.2879 88.7982 68.4399 88.9368 69.5377 89.1956C61.932 91.0846 60.1285 96.9789 60.0428 97.2758C59.8453 97.9593 60.2474 98.6673 60.9415 98.8652C61.0632 98.9 61.1854 98.9163 61.3065 98.9163C61.8745 98.9163 62.3988 98.5498 62.5686 97.9887C62.651 97.7152 64.6818 91.3772 74.1862 91.207C74.888 91.6768 75.5384 92.2059 76.1274 92.786C71.6084 93.0547 68.9293 95.8838 68.0516 97.6374C67.7331 98.2747 67.9991 99.0408 68.6445 99.3584C68.832 99.4508 69.0317 99.4943 69.2285 99.4943C69.7092 99.4943 70.1732 99.2339 70.4055 98.7847C70.495 98.6124 72.5956 94.6908 78.1765 95.4379C79.1361 97.1127 79.6819 99.0093 79.6819 101.02C79.6825 102.758 79.2837 103.991 78.4646 104.79Z" fill="#EA9C71"/>
<path d="M68.6655 110.688C68.27 110.688 67.8674 110.688 67.4548 110.687L66.1015 110.687L64.7482 110.687C56.0662 110.692 51.2856 110.695 48.4478 108.695C45.5149 106.628 45.0205 102.901 45.0205 95.3308C45.0205 87.7601 45.5155 84.0338 48.4478 81.9669C51.2856 79.9665 56.0673 79.9659 64.7482 79.9741L66.1015 79.9746L67.4548 79.9741C76.1346 79.9665 80.9174 79.9665 83.7552 81.9669C86.6881 84.0338 87.1825 87.7601 87.1825 95.3308C87.1825 102.901 86.6875 106.628 83.7552 108.695C81.0524 110.6 76.5848 110.688 68.6655 110.688ZM66.1015 108.104L67.4565 108.104C75.3238 108.112 80.074 108.111 82.2249 106.595C84.2192 105.19 84.556 101.984 84.556 95.3308C84.556 88.6774 84.2192 85.472 82.2249 84.0664C80.0746 82.5504 75.3254 82.5558 67.4565 82.5575L66.1015 82.558L64.7465 82.5575C56.8792 82.5526 52.129 82.5504 49.9787 84.0664C47.9844 85.4725 47.6475 88.6774 47.6475 95.3308C47.6475 101.984 47.9844 105.19 49.9787 106.595C52.1295 108.111 56.8814 108.112 64.7465 108.104L66.1015 108.104Z" fill="#E2E2E2"/>
<path d="M31.041 91.1849C32.7195 87.4966 35.3958 85.0856 39.1472 86.7354C42.8986 88.3857 44.5793 92.7129 42.9008 96.4012C41.2228 100.089 36.821 101.742 33.0696 100.092C29.3187 98.4419 29.363 94.8732 31.041 91.1849Z" fill="#F8D4AE"/>
<path d="M36.0954 102.021C34.9025 102.021 33.6907 101.78 32.5332 101.271C30.374 100.321 29.0561 98.7064 28.7209 96.6021C28.4488 94.8898 28.8255 92.8899 29.8414 90.6572C30.8574 88.4246 32.1228 86.8151 33.6028 85.8738C35.4218 84.7167 37.5246 84.6069 39.6837 85.5563C41.8185 86.4953 43.4534 88.1951 44.2874 90.3429C45.1214 92.4908 45.055 94.8295 44.0999 96.9283C42.6464 100.123 39.4442 102.021 36.0954 102.021ZM36.8354 87.5002C36.1967 87.5002 35.5982 87.6807 35.0302 88.0423C33.9982 88.6986 33.0337 89.9678 32.2401 91.7121C31.4464 93.4565 31.1273 95.0094 31.317 96.203C31.5128 97.4351 32.2616 98.3214 33.6061 98.9125C36.6905 100.269 40.3219 98.9054 41.7018 95.8735C42.3705 94.4048 42.4169 92.7675 41.8329 91.2641C41.2494 89.7606 40.1046 88.5708 38.6108 87.914C37.9836 87.6383 37.394 87.5002 36.8354 87.5002Z" fill="#D3A98C"/>
</svg>
