<svg width="127" height="157" viewBox="0 0 127 157" fill="none" xmlns="http://www.w3.org/2000/svg">
<path d="M119.013 85.7846L102.94 67.5889L83.9407 82.9011C78.3243 80.6654 71.9714 79.404 65.2428 79.404C42.3859 79.404 30.1865 92.4777 30.1865 110.414C30.1865 128.351 42.3859 144.36 65.2428 144.36C88.0997 144.36 106.629 129.819 106.629 111.882C106.629 109.983 106.42 108.123 106.021 106.314C118.755 99.4691 119.013 85.7846 119.013 85.7846Z" fill="#F8D4AE"/>
<path d="M106.821 107.801L105.223 104.829C116.895 98.5545 117.315 86.2699 117.327 85.75L120.7 85.8175C120.69 86.4162 120.269 100.572 106.821 107.801Z" fill="#D3A98C"/>
<path d="M32.2926 25.4685L10.5721 46.53C6.91023 44.6138 -0.886526 39.3312 2.52038 30.5132C6.72486 19.622 22.6053 16.0063 32.2926 25.4685Z" fill="#F8D4AE"/>
<path d="M24.9695 34.9149C24.9695 34.9149 12.5932 25.1742 7.26945 32.5996C1.94567 40.0249 14.5144 47.7478 14.5144 47.7478L24.9695 34.9149Z" fill="#FFF1E6"/>
<path d="M84.8989 21.6291L54.8682 17.9054C56.9001 4.51711 71.7599 -2.16531 81.671 3.99652C89.7014 8.98224 86.661 17.8955 84.8989 21.6291Z" fill="#F8D4AE"/>
<path d="M66.4072 21.0326C66.4072 21.0326 70.4178 5.80206 79.14 8.52147C87.8621 11.2409 82.483 24.9772 82.483 24.9772L66.4072 21.0326Z" fill="#FFF1E6"/>
<path d="M112.401 74.1867C105.998 97.6842 69.0428 97.6913 69.0428 97.6913C69.0428 97.6913 39.5482 119.947 20.2751 105.051C6.76746 94.6054 14.1715 79.7719 14.1715 79.7719C0.607051 77.7854 13.109 58.5911 13.109 58.5911C0.467847 52.3 24.4355 27.4652 43.3884 21.1158C62.3469 14.7644 96.4323 20.1499 90.139 32.7847C90.139 32.7847 111.674 40.575 102.044 50.3327C102.044 50.3327 102.233 50.4265 102.57 50.6203C105.166 52.1224 116.384 59.579 112.401 74.1867Z" fill="#F8D4AE"/>
<path d="M55.2844 56.6162C63.964 53.7086 71.5093 65.9058 79.3281 65.7617C91.2696 65.5308 97.3732 59.7163 102.049 50.3301C102.049 50.3301 116.895 57.7099 112.406 74.1848C105.997 97.6845 69.0456 97.6901 69.0456 97.6901C69.0456 97.6901 39.5481 119.946 20.275 105.051C6.7674 94.605 14.1714 79.7714 14.1714 79.7714C23.5576 84.4467 31.9318 85.4112 41.6028 78.4007C47.9308 73.8056 46.6049 59.5238 55.2844 56.6162Z" fill="#FFF1E6"/>
<path d="M41.7497 82.9682C39.6105 76.5826 32.6994 73.1402 26.3139 75.2794C19.9283 77.4185 16.4859 84.3297 18.6251 90.7152C20.7642 97.1008 27.6754 100.543 34.0609 98.404C40.4465 96.2648 43.8889 89.3537 41.7497 82.9682Z" fill="#FD9DB4"/>
<path d="M104.459 71.0146C107.437 64.9745 104.955 57.6639 98.915 54.686C92.8749 51.708 85.5643 54.1904 82.5864 60.2305C79.6084 66.2705 82.0908 73.5811 88.1309 76.559C94.1709 79.537 101.482 77.0546 104.459 71.0146Z" fill="#FD9DB4"/>
<path d="M104.606 49.9078C106.04 47.8844 106.518 45.7701 106.027 43.6011C104.67 37.5983 96.0525 33.3917 92.3125 31.8264C93.0142 29.2966 92.424 26.8733 90.5646 24.7356C89.6115 23.6397 88.3097 22.6312 86.7082 21.7257C87.6634 19.561 88.6691 16.5077 88.647 13.2692C88.6158 8.71596 86.5121 5.01289 82.564 2.56051C77.4924 -0.588586 70.9534 -0.847815 65.0714 1.86521C58.8052 4.7565 54.4153 10.5007 53.2634 17.2797C49.4729 17.7371 45.9197 18.4864 42.853 19.5141C39.7877 20.5411 36.5023 22.0829 33.2019 23.9998C28.1984 19.2833 21.2333 17.343 14.4912 18.8103C8.16179 20.1881 3.09866 24.335 0.947414 29.9038C-0.726566 34.2397 -0.174727 38.4627 2.54327 42.1153C4.47577 44.7133 7.11777 46.5442 9.18379 47.6962C8.45085 49.3844 8.01904 50.9738 7.9189 52.4227C7.72288 55.2486 8.71292 57.5384 10.7974 59.1349C8.7534 62.6377 4.40688 71.188 6.93951 76.7973C7.85427 78.8228 9.50836 80.2227 11.8705 80.9741C11.2853 82.6601 10.5744 85.3092 10.4728 88.4377C10.3116 93.4057 11.7029 100.553 19.2447 106.385C23.9534 110.024 29.6522 111.851 36.1187 111.851C41.1449 111.851 46.6349 110.748 52.485 108.534C61.1176 105.267 67.8299 100.649 69.6069 99.3694C71.7965 99.3204 79.937 98.9617 88.7962 96.3687C102.524 92.3496 111.25 84.8327 114.031 74.629C117.873 60.5312 108.533 52.5526 104.606 49.9078ZM66.484 4.93051C71.3327 2.69403 76.6785 2.8794 80.7828 5.42837C87.1045 9.35444 85.4617 16.1654 83.6606 20.274C79.927 18.7648 75.1671 17.6768 69.7027 17.1292C65.3974 16.6981 60.9855 16.6484 56.7669 16.9467C57.9522 11.6605 61.5132 7.2245 66.484 4.93051ZM4.09438 31.1212C5.83512 26.6141 9.98989 23.2449 15.2078 22.1099C20.5579 20.9459 26.072 22.3415 30.2019 25.8464C26.6551 28.1503 23.163 30.8477 19.9855 33.7866C15.9543 37.5145 12.8109 41.2503 10.7399 44.7033C6.82729 42.5088 1.41474 38.0621 4.09438 31.1212ZM110.774 73.7427C108.287 82.8654 100.598 89.3816 87.9184 93.1102C78.2197 95.9625 69.1324 96.0037 69.043 96.0037C68.6765 96.0037 68.3199 96.123 68.0273 96.3439C67.9549 96.3985 60.678 101.839 51.2201 105.405C38.8538 110.067 28.79 109.498 21.3079 103.716C9.09217 94.2686 15.4088 81.0778 15.6816 80.5245C15.923 80.0401 15.9181 79.4698 15.6674 78.9897C15.4166 78.5103 14.9515 78.1794 14.4167 78.1012C12.1212 77.7653 10.6809 76.8854 10.0155 75.4117C9.08152 73.3449 9.52256 69.9998 11.291 65.7392C12.7171 62.3039 14.5062 59.5383 14.5232 59.5113C14.786 59.1079 14.8641 58.6115 14.7377 58.147C14.6113 57.6825 14.2924 57.2948 13.8613 57.0796C11.96 56.1335 11.1411 54.728 11.2853 52.6577C11.5744 48.4902 15.6837 42.361 22.2773 36.2631C28.9619 30.0814 37.0548 25.0161 43.9247 22.7143C48.968 21.0247 55.4317 20.127 62.0963 20.127C64.5132 20.127 66.957 20.2449 69.3682 20.4864C78.3042 21.3812 85.2764 23.7974 88.0192 26.9501C89.3821 28.5161 89.5753 30.1311 88.6293 32.0309C88.4148 32.4613 88.3942 32.9635 88.5732 33.4095C88.7514 33.8562 89.1129 34.2056 89.5646 34.3697C89.5952 34.381 92.6882 35.5117 95.8948 37.3945C99.872 39.7304 102.238 42.1345 102.737 44.3468C103.093 45.9242 102.474 47.4945 100.844 49.1457C100.464 49.53 100.294 50.0733 100.381 50.6052C100.469 51.1379 100.807 51.5974 101.29 51.8396C101.312 51.8509 101.466 51.9305 101.726 52.0789C102.973 52.8005 106.135 54.8644 108.557 58.4347C111.581 62.8941 112.328 68.0439 110.774 73.7427Z" fill="#D3A98C"/>
<path d="M81.2373 57.8913C82.216 60.8131 80.8517 63.9054 78.1891 64.7967C75.5265 65.6887 72.5748 64.0431 71.5961 61.1206C70.6175 58.1988 71.9818 55.1065 74.6444 54.2152C77.3063 53.3231 80.2579 54.9687 81.2373 57.8913Z" fill="#5F5C5D"/>
<path d="M44.9756 70.0394C45.9543 72.9612 44.59 76.0535 41.9274 76.9448C39.2655 77.8368 36.3131 76.1913 35.3344 73.2687C34.3558 70.3469 35.7201 67.2546 38.382 66.3633C41.0446 65.472 43.9962 67.1175 44.9756 70.0394Z" fill="#5F5C5D"/>
<path d="M67.7747 67.9856C68.2363 69.3648 67.585 70.96 66.1845 72.3562C65.0474 73.4805 63.4203 74.4819 61.4892 75.1289C57.7194 76.3917 54.0618 75.8924 52.6364 74.0792C52.434 73.82 52.2735 73.526 52.1691 73.2135C51.331 70.7128 54.6548 69.0331 58.9637 67.59C63.2726 66.1461 66.9373 65.4842 67.7747 67.9856Z" fill="#5F5C5D"/>
<path d="M66.1838 72.357C65.0468 73.4813 63.4197 74.4827 61.4886 75.1297C57.7188 76.3925 54.0611 75.8932 52.6357 74.08C53.7728 72.9565 55.4006 71.9536 57.331 71.3073C61.1008 70.0446 64.7584 70.5438 66.1838 72.357Z" fill="#E27FA3"/>
<path d="M57.3944 77.5202C56.6267 77.5202 55.8852 77.4492 55.1878 77.3058C52.8142 76.8171 51.1736 75.5551 50.5692 73.7504C50.2567 72.8172 50.0146 70.9891 51.9094 69.237C52.5934 68.6042 53.6608 68.6461 54.2936 69.33C54.9264 70.0147 54.8845 71.0814 54.2006 71.7142C53.6246 72.2476 53.7077 72.4962 53.7688 72.678C53.9726 73.2852 54.7375 73.7675 55.8675 74.0004C57.3191 74.3001 59.1728 74.1283 60.9526 73.5324C62.7324 72.9365 64.3148 71.9557 65.2934 70.8428C66.0555 69.9763 66.3758 69.1312 66.172 68.5232C66.1109 68.3407 66.0179 68.0644 65.1294 68.0041C64.1997 67.9416 63.4966 67.1369 63.5591 66.2072C63.6216 65.2775 64.4256 64.5723 65.3559 64.6369C68.0917 64.8209 69.0462 66.4785 69.3722 67.4508C69.9681 69.2285 69.4049 71.2774 67.8282 73.0707C66.4483 74.6403 64.3872 75.9407 62.025 76.7319C60.4682 77.2539 58.8816 77.5202 57.3944 77.5202Z" fill="#F8D4AE"/>
<path d="M65.3574 64.6377C63.9937 64.5439 62.3148 64.8081 60.0357 65.4814L58.8425 61.9189L55.643 62.9907L56.8369 66.5538C54.4939 67.4352 52.9414 68.2839 51.9108 69.237C51.2269 69.8691 51.185 70.9373 51.8171 71.6212C52.1502 71.9813 52.6026 72.1631 53.0564 72.1631C53.4662 72.1631 53.8767 72.0147 54.2013 71.7142C55.474 70.5374 58.5031 69.5225 59.4988 69.1894C62.1166 68.3123 63.9597 67.9267 65.1301 68.0034C66.0612 68.0673 66.8644 67.3642 66.9269 66.4338C66.9901 65.5048 66.287 64.7002 65.3574 64.6377Z" fill="#D3A98C"/>
<path d="M59.486 59.3131C58.4675 58.7975 57.2239 59.2052 56.7083 60.2243L56.5833 60.4708L56.3369 60.3465C55.3184 59.8309 54.0741 60.2385 53.5592 61.2577C53.0436 62.2761 53.4513 63.5197 54.4704 64.0354L55.3454 64.4778C57.0357 65.3336 59.0996 64.6568 59.9547 62.9665L60.3972 62.0915C60.9121 61.0723 60.5044 59.8287 59.486 59.3131Z" fill="#E27FA3"/>
<path d="M80.5953 139.862C99.119 136.902 111.736 119.486 108.776 100.962C105.816 82.4388 88.3997 69.8219 69.8761 72.782C51.3524 75.742 38.7355 93.158 41.6956 111.682C44.6556 130.205 62.0716 142.822 80.5953 139.862Z" fill="#B9A6DD"/>
<path d="M104.133 99.8273C103.474 99.1682 102.406 99.1682 101.747 99.8273L95.8765 105.698L85.3994 104.635C84.4747 104.537 83.6444 105.216 83.5507 106.144C83.4569 107.071 84.1323 107.899 85.0592 107.993L95.1038 109.011L96.6961 116.652C96.8623 117.448 97.564 117.995 98.3459 117.995C98.4595 117.995 98.576 117.983 98.6918 117.96C99.6037 117.77 100.19 116.876 99.9993 115.963L98.3409 108.005L104.133 102.213C104.793 101.555 104.793 100.486 104.133 99.8273Z" fill="white"/>
<path d="M103.133 124.275L88.5062 122.6L80.0944 114.397C79.4275 113.747 78.3586 113.76 77.7088 114.427C77.0582 115.094 77.0717 116.163 77.7386 116.813L85.7427 124.618L79.7002 139.086C79.3408 139.946 79.7471 140.934 80.6072 141.293C80.8195 141.382 81.0397 141.424 81.2563 141.424C81.9168 141.424 82.5439 141.034 82.8138 140.387L88.8102 126.031L102.75 127.627C102.815 127.635 102.88 127.638 102.943 127.638C103.789 127.638 104.058 124.381 103.133 124.275Z" fill="white"/>
<path d="M70.7849 113.33C70.0371 112.773 68.9803 112.929 68.4242 113.677L64.5059 118.942L53.1225 117.013C52.2042 116.857 51.3328 117.476 51.1773 118.395C51.0217 119.314 51.6403 120.184 52.5593 120.34L56.827 121.064L55.3938 125.425C55.1026 126.311 55.5849 127.264 56.4698 127.554C56.6445 127.612 56.8221 127.639 56.9968 127.639C57.7056 127.639 58.3661 127.189 58.599 126.478L60.1913 121.634L63.8191 122.249L65.8567 132.309C66.0187 133.11 66.7225 133.661 67.5087 133.661C67.6195 133.661 67.7324 133.65 67.8453 133.627C68.7587 133.443 69.3489 132.552 69.1642 131.639L67.0463 121.181L71.1315 115.69C71.6876 114.943 71.5328 113.886 70.7849 113.33Z" fill="white"/>
<path d="M67.7491 98.3071L58.375 96.9662L54.483 80.4018C54.2699 79.4948 50.9852 80.2661 51.1982 81.1738L55.0249 97.4598L49.7409 99.6337C48.8794 99.9881 48.4682 100.975 48.8226 101.836C49.091 102.487 49.7203 102.882 50.3836 102.882C50.5974 102.882 50.8147 102.841 51.0249 102.754L57.2138 100.209L67.2718 101.647C67.3528 101.659 67.4331 101.664 67.5126 101.664C68.3386 101.664 69.0602 101.057 69.1809 100.215C69.3123 99.2935 68.671 98.4392 67.7491 98.3071Z" fill="white"/>
<path d="M85.9686 79.9594C85.5112 79.1476 84.4828 78.86 83.6703 79.3174L78.8728 82.0198L70.5384 77.8131C69.7067 77.3934 68.6919 77.7272 68.2721 78.5589C67.8524 79.3905 68.1862 80.4054 69.0185 80.8252L77.2294 84.9693V97.0224C77.2294 97.9542 77.985 98.7098 78.9168 98.7098C79.8486 98.7098 80.6043 97.9542 80.6043 97.0224V84.9174L85.3272 82.257C86.1383 81.8003 86.4259 80.7712 85.9686 79.9594Z" fill="white"/>
<path d="M83.271 102.075C82.749 102.075 82.2341 101.833 81.9038 101.378C81.3563 100.624 81.5246 99.569 82.2788 99.0215L93.094 91.175C93.8482 90.6281 94.9036 90.7958 95.4505 91.55C95.9974 92.3043 95.8297 93.3589 95.0755 93.9065L84.2603 101.753C83.9613 101.97 83.6147 102.075 83.271 102.075Z" fill="white"/>
<path d="M84.4556 110.175C86.586 105.083 84.1856 99.2287 79.0941 97.0983C74.0026 94.9678 68.1481 97.3683 66.0176 102.46C63.8872 107.551 66.2876 113.406 71.3791 115.536C76.4706 117.667 82.3251 115.266 84.4556 110.175Z" fill="#FFFFA1"/>
<path d="M75.2359 117.996C68.7949 117.996 63.5557 112.756 63.5557 106.315C63.5557 99.874 68.7956 94.6348 75.2359 94.6348C81.6768 94.6348 86.9161 99.8747 86.9161 106.315C86.9168 112.755 81.6768 117.996 75.2359 117.996ZM75.2359 98.009C70.6557 98.009 66.9299 101.735 66.9299 106.315C66.9299 110.895 70.6557 114.621 75.2359 114.621C79.8161 114.621 83.5419 110.894 83.5419 106.315C83.5426 101.735 79.8161 98.009 75.2359 98.009Z" fill="#F9CB71"/>
<path d="M75.2353 141.966C74.3035 141.966 73.5479 141.211 73.5479 140.279V116.308C73.5479 115.376 74.3035 114.62 75.2353 114.62C76.1671 114.62 76.9228 115.376 76.9228 116.308V140.279C76.9228 141.211 76.1678 141.966 75.2353 141.966Z" fill="#F9CB71"/>
<path d="M75.2361 141.967C55.5773 141.967 39.584 125.973 39.584 106.315C39.584 86.6557 55.5773 70.6631 75.2361 70.6631C94.8949 70.6631 110.888 86.6564 110.888 106.315C110.888 125.973 94.8949 141.967 75.2361 141.967ZM75.2361 74.0373C57.4381 74.0373 42.9589 88.5165 42.9589 106.315C42.9589 124.113 57.4388 138.592 75.2361 138.592C93.0342 138.592 107.513 124.113 107.513 106.315C107.514 88.5165 93.0342 74.0373 75.2361 74.0373Z" fill="#A484D8"/>
<path d="M104.204 149.116C85.932 157.058 65.1816 157.058 46.9092 149.116L53.6889 132.569C67.8407 137.559 83.273 137.559 97.4247 132.569L104.204 149.116Z" fill="#767576"/>
<path d="M75.5574 156.739C65.5554 156.739 55.5541 154.713 46.2375 150.663C45.3959 150.298 45.001 149.326 45.349 148.477L52.1288 131.93C52.4697 131.098 53.4029 130.679 54.2509 130.978C67.9907 135.823 83.1247 135.823 96.8646 130.978C97.7126 130.68 98.6458 131.098 98.9867 131.93L105.766 148.477C106.114 149.326 105.72 150.298 104.878 150.663C95.5606 154.713 85.5593 156.739 75.5574 156.739ZM49.1046 148.209C66.0078 155.083 85.1062 155.083 102.009 148.209L96.4647 134.676C82.9188 139.089 68.1946 139.089 54.6493 134.676L49.1046 148.209Z" fill="#5F5C5D"/>
<path d="M109.567 88.9708L105.982 84.1072C104.051 84.8316 102.137 84.9403 101.074 83.3395C99.5516 81.0455 101.804 77.9915 105.146 75.1755C105.146 75.1755 99.6816 70.3404 101.479 67.1465C103.277 63.9534 109.933 66.8276 115.806 70.8226C117.199 71.2551 118.473 72.1117 119.404 73.3751L123.39 78.782C125.716 81.9382 125.04 86.3813 121.889 88.7044L119.49 90.4722C116.333 92.7988 111.894 92.127 109.567 88.9708Z" fill="#F8D4AE"/>
<path d="M124.748 77.7824L120.762 72.3755C119.664 70.8862 118.18 69.8464 116.548 69.2882C113.054 66.9338 106.83 63.3067 102.835 64.2442C101.585 64.5375 100.607 65.2549 100.008 66.3188C98.239 69.4615 100.907 73.1546 102.694 75.1119C99.7283 77.9628 97.6978 81.3036 99.6686 84.2723C100.405 85.3824 101.496 86.0663 102.823 86.2503C103.063 86.2836 103.307 86.2993 103.556 86.2993C104.132 86.2993 104.728 86.2119 105.328 86.0642L108.21 89.9725C109.93 92.3056 112.593 93.5406 115.291 93.5406C117.101 93.5406 118.926 92.9845 120.491 91.8304L122.89 90.0627C124.778 88.6714 126.011 86.6281 126.362 84.3085C126.714 81.9904 126.141 79.6715 124.748 77.7824ZM102.95 67.9743C103.048 67.801 103.195 67.627 103.607 67.5304C104.935 67.2186 107.378 67.9572 110.319 69.4849C109.681 69.7505 109.065 70.0943 108.485 70.5225L106.103 72.2782C106.097 72.2824 106.09 72.2846 106.084 72.2895C105.808 72.4927 105.531 72.7015 105.256 72.916C103.717 71.2448 102.348 69.0424 102.95 67.9743ZM123.026 83.8043C122.809 85.2325 122.05 86.491 120.888 87.3476L118.489 89.1153C116.089 90.8837 112.696 90.3717 110.926 87.9704L108.567 84.7702C110.894 83.5316 112.789 81.9442 113.136 81.6467C113.844 81.0408 113.926 79.9762 113.32 79.2688C112.715 78.5615 111.65 78.4784 110.942 79.0835C108.899 80.8299 105.174 83.1658 103.288 82.908C102.917 82.8561 102.683 82.7106 102.481 82.4059C101.596 81.0728 103.796 78.1673 108.087 75.0047L108.088 75.004L108.089 75.0061L110.487 73.2384C112.889 71.4685 116.279 71.9799 118.047 74.3783L122.033 79.7852C122.889 80.9478 123.242 82.3753 123.026 83.8043Z" fill="#D3A98C"/>
<path d="M29.3975 117.3C27.4891 111.466 27.9898 106.066 33.825 104.158C39.6594 102.25 45.9363 105.433 47.8446 111.268C49.753 117.102 46.5691 123.379 40.7347 125.288C34.8995 127.195 31.3051 123.135 29.3975 117.3Z" fill="#F8D4AE"/>
<path d="M37.9572 127.448C33.4537 127.448 29.843 124.09 27.7933 117.824C25.2649 110.091 27.2713 104.525 33.2996 102.554C36.5502 101.49 40.0196 101.758 43.0693 103.304C46.119 104.851 48.3839 107.493 49.4471 110.743C50.5102 113.994 50.2432 117.463 48.6964 120.513C47.1495 123.563 44.5075 125.827 41.2576 126.891C40.1148 127.264 39.0111 127.448 37.9572 127.448ZM31.0013 116.775C32.9459 122.721 36.0438 125.045 40.21 123.683C42.6034 122.901 44.5494 121.232 45.6886 118.987C46.8278 116.741 47.0238 114.186 46.2411 111.792C45.4585 109.399 43.7902 107.453 41.5445 106.314C39.2988 105.174 36.7434 104.978 34.35 105.761C30.1831 107.123 29.0575 110.83 31.0013 116.775Z" fill="#D3A98C"/>
</svg>
